<svg width="168" height="21" viewBox="0 0 168 21" fill="none" xmlns="http://www.w3.org/2000/svg">
<path d="M37.6121 10.5L32.638 0.00452703H25.1158V20.9955H32.638V10.5L37.6121 20.9955L42.586 10.5V20.9955H50.1085V0.00434595H42.586L37.6121 10.5ZM58.3732 0.00452703L52.5221 20.9955H60.0446L61.0045 17.5508H69.0322L69.9924 20.9953H77.5148L71.6637 0.00452703H58.3732ZM61.9647 14.1062L65.0185 3.14828L68.0721 14.1062H61.9647ZM93.9895 0.0137622H79.9121V20.9953H87.4316V12.2527H93.9895C97.2685 12.2527 99.9265 9.51202 99.9265 6.13322C99.9265 2.75443 97.2683 0.0137622 93.9895 0.0137622ZM89.1918 8.69842H87.5605V2.41671H89.1918C90.8869 2.41671 92.5345 3.35272 92.5345 5.25516C92.5345 7.1576 91.0809 8.69842 89.1918 8.69842ZM102.536 20.9953H110.057V12.2328H122.532V8.78679H110.057V3.44887H122.532V0.00452703H102.536V20.9953ZM168 3.44887V0.00452703H148.001V20.9955H168V17.5506H155.523V12.2329H168V8.78697H155.523V3.44887H168ZM145.178 5.25679C145.178 2.3604 142.898 0.0106838 140.087 0.0106838H125.165V20.9953H132.812V12.3063H134.442C136.286 12.3063 137.785 13.8484 137.785 15.7494C137.785 15.8059 137.783 15.8624 137.78 15.9189V20.9955H145.178V15.7492C145.178 15.6912 145.179 15.6347 145.178 15.5766C145.089 12.7597 142.841 10.5031 140.087 10.5031C142.898 10.5031 145.178 8.15482 145.178 5.25679ZM134.442 8.70132H132.812V2.42142H134.442C136.095 2.42142 137.785 3.35435 137.785 5.25679C137.785 7.15923 136.288 8.70132 134.442 8.70132ZM10.1894 0C4.56184 0 0 4.70105 0 10.5C0 10.9458 0.0281161 11.384 0.0799551 11.8147C0.708174 16.9936 4.99465 21 10.1894 21C15.3841 21 19.6721 16.9919 20.2989 11.8145L19.3194 11.8175C18.6972 16.4409 14.8464 19.9999 10.1894 19.9999C5.53254 19.9999 1.68169 16.4409 1.05945 11.8145H1.05787C0.999473 11.3788 0.970292 10.9396 0.970532 10.4998C0.970532 5.25389 5.09833 1.00011 10.1894 1.00011C15.2804 1.00011 19.4084 5.25371 19.4084 10.5C19.4084 10.9473 19.3773 11.3871 19.3194 11.8147L20.2989 11.8145C20.3524 11.3839 20.3789 10.9458 20.3789 10.5C20.3789 4.70087 15.8167 0 10.1894 0ZM16.922 10.9183C16.922 10.8359 16.9132 10.764 16.9027 10.7061C16.781 10.0086 16.543 9.33804 16.1991 8.72432C15.8434 8.09053 15.3189 7.48608 14.8033 7.04026C14.6325 6.90601 14.4351 6.81219 14.2251 6.76546C14.0151 6.71874 13.7977 6.72025 13.5883 6.76991C13.4254 6.28443 13.0387 5.87826 12.6044 5.68287C11.8303 5.39344 11.013 5.24563 10.1894 5.24611C9.34772 5.24611 8.53728 5.39876 7.78622 5.6798C7.72999 5.70116 7.66023 5.73014 7.58766 5.77287C7.39427 5.87713 7.22316 6.02031 7.08443 6.19393C6.94571 6.36755 6.84219 6.56809 6.78002 6.78367C6.33262 6.70128 5.84815 6.83401 5.50144 7.09821C4.9723 7.55673 4.52502 8.10705 4.17981 8.72432C3.83522 9.33773 3.59706 10.0084 3.47603 10.7061C3.46548 10.764 3.4567 10.8359 3.4567 10.9183C3.44535 11.2344 3.5264 11.5466 3.68936 11.8147H3.69076C3.82092 12.0263 3.99884 12.2023 4.20933 12.3277C4.46103 12.4769 4.74906 12.5484 5.03911 12.5337L8.35364 12.5247C8.58912 12.5337 9.21294 12.5352 9.69004 12.5352V15.7523H10.6887V12.5352C11.1674 12.5352 11.7896 12.5337 12.0253 12.5245L15.3396 12.5335C15.6296 12.5483 15.9177 12.4769 16.1694 12.3277C16.3807 12.2027 16.5592 12.0266 16.6895 11.8145C16.8524 11.5465 16.9334 11.2343 16.922 10.9183ZM8.61899 11.3656C8.59471 11.4084 8.55909 11.4432 8.5163 11.466C8.47351 11.4887 8.42532 11.4984 8.37737 11.494L5.00519 11.503C4.90184 11.5126 4.79817 11.4886 4.70874 11.4344C4.62541 11.3848 4.55747 11.3119 4.51288 11.224C4.46829 11.1361 4.44889 11.037 4.45693 10.9382C4.55762 10.3229 4.75021 9.76553 5.04508 9.23877C5.33244 8.72587 5.70447 8.2686 6.14442 7.88754L6.16076 7.87378C6.2405 7.81131 6.33642 7.77463 6.4364 7.76837C6.53637 7.76212 6.6359 7.78658 6.72238 7.83865C6.81727 7.89514 6.88827 7.97917 6.93114 8.07532L8.61003 11.0909C8.66187 11.1702 8.66784 11.277 8.61899 11.3656ZM10.1894 11.5061C10.1304 11.506 10.0725 11.4886 10.0227 11.4559C9.9728 11.4232 9.93302 11.3765 9.90794 11.3214L7.82471 7.62642C7.75252 7.51811 7.71375 7.38986 7.71348 7.25846C7.71348 7.00042 7.86021 6.77914 8.07196 6.67538C8.76994 6.40811 9.46493 6.27682 10.1894 6.27682C10.917 6.27682 11.6163 6.40955 12.2623 6.65075L12.286 6.66162C12.3994 6.71081 12.4962 6.79343 12.5642 6.8991C12.6322 7.00477 12.6684 7.12878 12.6682 7.25557C12.6687 7.39036 12.6278 7.52184 12.5512 7.63113L10.468 11.3275C10.4421 11.3809 10.4023 11.4258 10.3532 11.4573C10.304 11.4889 10.2473 11.5057 10.1894 11.5061ZM15.6702 11.4344C15.5808 11.4887 15.4771 11.5128 15.3737 11.5032L12.0015 11.494C11.9066 11.503 11.8103 11.4557 11.7599 11.3657C11.7365 11.3236 11.7249 11.2755 11.7265 11.227C11.7281 11.1784 11.7428 11.1313 11.7689 11.0909L13.4476 8.07532C13.4906 7.97917 13.5618 7.89514 13.6565 7.83865C13.743 7.78653 13.8425 7.76205 13.9425 7.7683C14.0425 7.77455 14.1384 7.81127 14.2181 7.87378L14.2343 7.88754C14.6747 8.26817 15.0469 8.72552 15.3338 9.23877C15.6273 9.76572 15.8213 10.3229 15.922 10.9382C15.93 11.037 15.9106 11.1361 15.866 11.224C15.8214 11.3119 15.7535 11.3848 15.6702 11.4344Z" fill="white"/>
</svg>
