<svg width="39" height="43" viewBox="0 0 39 43" fill="none" xmlns="http://www.w3.org/2000/svg">
<path d="M38.2231 13.7699C38.2231 21.932 32.3126 24.2153 27.5626 26.0468C25.8884 26.6918 24.3078 27.301 23.1412 28.0933C20.8737 29.6302 19.4404 32.4292 18.0549 35.1366C16.0761 39.0026 14.0276 43 9.46082 43C6.89077 43 4.5616 40.6828 2.72215 36.2992C0.882706 31.9155 -0.126601 26.1464 0.0127514 20.8809C0.227752 12.7885 2.91525 8.40288 5.12896 6.14936C8.10512 3.12343 12.1443 1.11278 16.8106 0.33639C21.1485 -0.384259 25.5978 0.0616673 29.3384 1.59056C34.9841 3.90181 38.2231 8.34117 38.2231 13.7699Z" fill="white"/>
</svg>
