<svg width="75" height="43" viewBox="0 0 75 43" fill="none" xmlns="http://www.w3.org/2000/svg">
<path d="M74.0556 29.8611C74.0516 33.3445 72.6661 36.6842 70.2029 39.1473C67.7397 41.6105 64.4001 42.996 60.9167 43H55.7119C52.3038 42.9927 48.968 42.0166 46.0934 40.1857C43.2188 38.3548 40.924 35.7445 39.4764 32.6591L30.4733 13.3718C29.6045 11.5208 28.2277 9.9547 26.5031 8.8561C24.7786 7.7575 22.7773 7.1716 20.7326 7.16667H17.9167C15.0656 7.16667 12.3313 8.29925 10.3153 10.3153C8.29925 12.3313 7.16667 15.0656 7.16667 17.9167V25.0833C7.16667 27.9344 8.29925 30.6687 10.3153 32.6847C12.3313 34.7007 15.0656 35.8333 17.9167 35.8333H20.3056C21.9333 35.8344 23.526 35.3602 24.8882 34.4691C26.2504 33.5779 27.3228 32.3085 27.9739 30.8167C28.1621 30.3853 28.4335 29.9953 28.7724 29.6688C29.1114 29.3423 29.5114 29.0857 29.9495 28.9138C30.3876 28.7419 30.8553 28.658 31.3258 28.6668C31.7964 28.6756 32.2606 28.7771 32.6919 28.9653C33.1233 29.1535 33.5134 29.4249 33.8398 29.7638C34.1663 30.1028 34.4229 30.5028 34.5948 30.9409C34.7667 31.379 34.8506 31.8467 34.8418 32.3172C34.833 32.7878 34.7316 33.252 34.5433 33.6833C33.3344 36.4534 31.3432 38.8105 28.8142 40.4654C26.2851 42.1204 23.328 43.0012 20.3056 43H17.9167C13.1666 42.9945 8.61261 41.105 5.25378 37.7462C1.89495 34.3874 0.0055321 29.8334 0 25.0833V17.9167C0.0055321 13.1666 1.89495 8.61261 5.25378 5.25378C8.61261 1.89495 13.1666 0.0055321 17.9167 0H20.7326C24.1407 0.00734531 27.4765 0.983366 30.351 2.81426C33.2256 4.64516 35.5205 7.25549 36.9681 10.3409L45.9861 29.6282C46.8537 31.4769 48.2283 33.0415 49.9499 34.1399C51.6716 35.2383 53.6697 35.8256 55.7119 35.8333H60.9167C62.5006 35.8333 64.0197 35.2041 65.1397 34.0841C66.2597 32.9641 66.8889 31.445 66.8889 29.8611C66.8889 28.2772 66.2597 26.7581 65.1397 25.6381C64.0197 24.5181 62.5006 23.8889 60.9167 23.8889H54.9444C51.7766 23.8889 48.7385 22.6305 46.4984 20.3904C44.2584 18.1504 43 15.1123 43 11.9444C43 8.77658 44.2584 5.73846 46.4984 3.49845C48.7385 1.25843 51.7766 0 54.9444 0H60.9167C63.7677 0 66.502 1.13259 68.5181 3.1486C70.5341 5.16462 71.6667 7.89892 71.6667 10.75C71.6667 11.7004 71.2891 12.6118 70.6171 13.2838C69.9451 13.9558 69.0337 14.3333 68.0833 14.3333C67.133 14.3333 66.2215 13.9558 65.5495 13.2838C64.8775 12.6118 64.5 11.7004 64.5 10.75C64.5 9.79964 64.1225 8.88821 63.4505 8.2162C62.7785 7.54419 61.867 7.16667 60.9167 7.16667H54.9444C53.6773 7.16667 52.4621 7.67004 51.566 8.56605C50.67 9.46205 50.1667 10.6773 50.1667 11.9444C50.1667 13.2116 50.67 14.4268 51.566 15.3228C52.4621 16.2188 53.6773 16.7222 54.9444 16.7222H60.9167C64.4001 16.7262 67.7397 18.1117 70.2029 20.5749C72.6661 23.038 74.0516 26.3777 74.0556 29.8611Z" fill="white"/>
</svg>
