<svg width="72" height="43" viewBox="0 0 72 43" fill="none" xmlns="http://www.w3.org/2000/svg">
<path fill-rule="evenodd" clip-rule="evenodd" d="M69.9795 2.98611C70.511 1.30194 69.9795 0.0776384 67.628 0.0776384H59.8088C57.8365 0.0776384 56.9257 1.14965 56.3942 2.29632C56.3942 2.29632 52.3719 12.0908 46.755 18.4407C44.9335 20.2772 44.0989 20.8893 43.112 20.8893C42.5805 20.8893 41.8966 20.2772 41.8966 18.5945V2.90698C41.8966 0.918229 41.2904 0 39.6197 0H27.3229C26.1076 0 25.3491 0.91823 25.3491 1.83646C25.3491 3.74906 28.1575 4.20892 28.4606 9.56451V21.2014C28.4606 23.7261 28.0127 24.1875 27.0183 24.1875C24.3622 24.1875 17.9107 14.3169 14.0407 3.06972C13.2882 0.842083 12.5238 0 10.5499 0H2.65615C0.379236 0 0 1.07052 0 2.21868C0 4.28507 2.65615 14.6902 12.3715 28.4621C18.823 37.8684 28.0067 42.9239 36.2798 42.9239C41.2904 42.9239 41.8966 41.7757 41.8966 39.8631V32.7472C41.8966 30.4524 42.352 30.0701 43.9466 30.0701C45.0843 30.0701 47.1343 30.6808 51.7642 35.1958C57.0765 40.5514 57.9873 43 60.948 43H68.7657C71.0426 43 72.1056 41.8518 71.4979 39.6332C70.8156 37.4145 68.2341 34.2014 64.8942 30.3762C63.0726 28.2352 60.3403 25.8627 59.5057 24.7145C58.368 23.1842 58.6711 22.572 59.5057 21.1954C59.4296 21.1954 68.9941 7.57576 69.9795 2.98014" fill="#1A1B1F"/>
</svg>
