<svg width="39" height="43" viewBox="0 0 39 43" fill="none" xmlns="http://www.w3.org/2000/svg">
<path d="M21.2727 21.5C21.2727 23.8759 22.2066 26.1545 23.8688 27.8345C25.5311 29.5145 27.7856 30.4583 30.1364 30.4583H30.2073C31.9423 30.5255 33.3095 30.1314 34.9139 29.0899C35.3156 28.8317 35.7786 28.6872 36.2545 28.6716C36.7304 28.6559 37.2018 28.7697 37.6193 29.0011C38.0368 29.2324 38.3852 29.5729 38.628 29.9868C38.8709 30.4007 38.9994 30.8729 39 31.3542V39.4167C39 40.367 38.6265 41.2785 37.9616 41.9505C37.2967 42.6225 36.3949 43 35.4545 43H3.54545C2.60514 43 1.70334 42.6225 1.03844 41.9505C0.373538 41.2785 0 40.367 0 39.4167V3.58333C0 2.63297 0.373538 1.72154 1.03844 1.04953C1.70334 0.377529 2.60514 0 3.54545 0H35.4545C36.3949 0 37.2967 0.377529 37.9616 1.04953C38.6265 1.72154 39 2.63297 39 3.58333V11.6458C38.9997 12.1279 38.8712 12.6011 38.6278 13.0157C38.3844 13.4303 38.0352 13.7711 37.6167 14.0024C37.1982 14.2337 36.7258 14.3469 36.2491 14.3303C35.7724 14.3137 35.3089 14.1677 34.9072 13.9078C33.5613 13.0588 32.0156 12.5882 30.4297 12.5446C28.8437 12.501 27.275 12.8859 25.8854 13.6597C24.4958 14.4335 23.3357 15.5681 22.5248 16.9463C21.714 18.3245 21.2817 19.8965 21.2727 21.5Z" fill="#1A1B1F"/>
</svg>
