<svg width="51" height="43" viewBox="0 0 51 43" fill="none" xmlns="http://www.w3.org/2000/svg">
<path d="M46.9091 0H3.90909C2.87234 0 1.87804 0.411849 1.14495 1.14495C0.411849 1.87804 0 2.87234 0 3.90909V39.0909C0 40.1277 0.411849 41.122 1.14495 41.8551C1.87804 42.5882 2.87234 43 3.90909 43H46.9091C47.9458 43 48.9401 42.5882 49.6732 41.8551C50.4063 41.122 50.8182 40.1277 50.8182 39.0909V3.90909C50.8182 2.87234 50.4063 1.87804 49.6732 1.14495C48.9401 0.411849 47.9458 0 46.9091 0ZM43.3005 31.8249C41.925 34.0237 39.7994 35.1818 37.1535 35.1818C32.0888 35.1818 28.6487 28.9981 25.006 22.4504C22.3478 17.6715 19.0397 11.7273 16.274 11.7273C13.2372 11.7273 9.77273 18.7832 9.77273 24.9718C9.77273 26.9898 10.1392 28.6365 10.8331 29.7506C11.483 30.7841 12.382 31.2727 13.6647 31.2727C15.1502 31.2727 16.9679 29.5625 19.2205 26.0174C19.5062 25.5972 19.9444 25.3047 20.4422 25.2021C20.9399 25.0995 21.458 25.1948 21.8867 25.4677C22.3153 25.7407 22.6208 26.1699 22.7384 26.6643C22.8559 27.1587 22.7763 27.6795 22.5164 28.1161C18.5291 34.378 15.6901 35.1818 13.6647 35.1818C11.0187 35.1818 8.89318 34.0213 7.51767 31.8249C6.43534 30.0951 5.86364 27.7252 5.86364 24.984C5.90647 21.1462 6.8257 17.369 8.55114 13.9408C10.5887 9.99261 13.3324 7.81818 16.274 7.81818C21.3387 7.81818 24.7787 14.0019 28.4215 20.5496C31.0797 25.326 34.3878 31.2727 37.1535 31.2727C38.4361 31.2727 39.3352 30.7841 39.9851 29.7506C40.679 28.6439 41.0455 26.9898 41.0455 24.9718C41.0455 18.7832 37.581 11.7273 34.5441 11.7273C33.7135 11.7273 32.7484 12.2916 31.6758 13.4082C31.4979 13.5933 31.2853 13.7416 31.0501 13.8445C30.8149 13.9475 30.5617 14.0031 30.305 14.0082C30.0483 14.0133 29.7931 13.9678 29.554 13.8743C29.3149 13.7808 29.0965 13.6411 28.9114 13.4632C28.7263 13.2852 28.578 13.0726 28.475 12.8374C28.3721 12.6022 28.3165 12.349 28.3114 12.0923C28.3063 11.8356 28.3518 11.5804 28.4453 11.3413C28.5388 11.1022 28.6785 10.8838 28.8564 10.6987C30.7206 8.76125 32.5798 7.81818 34.5441 7.81818C37.476 7.81818 40.2294 9.99261 42.2695 13.9408C43.9931 17.3653 44.9123 21.1382 44.957 24.9718C44.9545 27.7252 44.3828 30.0951 43.3005 31.8249Z" fill="#1A1B1F"/>
</svg>
