<svg width="42" height="43" viewBox="0 0 42 43" fill="none" xmlns="http://www.w3.org/2000/svg">
<path d="M20.7029 16.0194L23.3047 20.7034H18.1011L20.7029 16.0194ZM41.3919 9.76671L38.2068 33.6547C38.1726 33.9124 38.0758 34.1578 37.9248 34.3695C37.7739 34.5811 37.5734 34.7526 37.3409 34.869L21.4156 42.8316C21.1943 42.9424 20.9503 43 20.7029 43C20.4555 43 20.2115 42.9424 19.9903 42.8316L4.06496 34.869C3.83246 34.7526 3.63199 34.5811 3.48105 34.3695C3.3301 34.1578 3.23327 33.9124 3.19902 33.6547L0.0139541 9.76671C-0.0323154 9.41946 0.0372045 9.06665 0.211746 8.76291C0.386288 8.45917 0.656111 8.22146 0.979426 8.08659L20.0898 0.123934C20.2839 0.0421385 20.4923 0 20.7029 0C20.9135 0 21.122 0.0421385 21.3161 0.123934L40.4264 8.08659C40.7497 8.22146 41.0196 8.45917 41.1941 8.76291C41.3687 9.06665 41.4382 9.41946 41.3919 9.76671ZM30.059 26.3012L22.0964 11.9684C21.9587 11.7195 21.7568 11.512 21.5117 11.3675C21.2667 11.223 20.9874 11.1468 20.7029 11.1468C20.4185 11.1468 20.1392 11.223 19.8941 11.3675C19.6491 11.512 19.4472 11.7195 19.3095 11.9684L11.3468 26.3012C11.2454 26.4842 11.181 26.6853 11.1573 26.8932C11.1336 27.1011 11.1511 27.3116 11.2088 27.5127C11.2665 27.7138 11.3632 27.9016 11.4934 28.0654C11.6237 28.2291 11.7849 28.3656 11.9679 28.467C12.1509 28.5684 12.3521 28.6328 12.5599 28.6565C12.7678 28.6802 12.9783 28.6627 13.1794 28.605C13.3806 28.5474 13.5684 28.4506 13.7321 28.3204C13.8958 28.1901 14.0323 28.0289 14.1337 27.8459L16.3235 23.8885H25.0824L27.2721 27.8459C27.3735 28.0289 27.51 28.1901 27.6738 28.3204C27.8375 28.4506 28.0253 28.5474 28.2264 28.605C28.4275 28.6627 28.638 28.6802 28.8459 28.6565C29.0538 28.6328 29.255 28.5684 29.438 28.467C29.621 28.3656 29.7822 28.2291 29.9124 28.0654C30.0427 27.9016 30.1394 27.7138 30.1971 27.5127C30.2547 27.3116 30.2722 27.1011 30.2486 26.8932C30.2249 26.6853 30.1605 26.4842 30.059 26.3012Z" fill="#1A1B1F"/>
</svg>
