<svg width="40" height="40" viewBox="0 0 40 40" fill="none" xmlns="http://www.w3.org/2000/svg">
<rect width="40" height="40" rx="8" fill="#FD6600"/>
<path d="M19.8542 19.875C19.0155 19.875 18.2112 19.5458 17.6182 18.9597C17.0251 18.3737 16.692 17.5788 16.692 16.75C16.692 15.9212 17.0251 15.1263 17.6182 14.5403C18.2112 13.9542 19.0155 13.625 19.8542 13.625C20.6928 13.625 21.4972 13.9542 22.0902 14.5403C22.6832 15.1263 23.0164 15.9212 23.0164 16.75C23.0164 17.1604 22.9346 17.5667 22.7757 17.9459C22.6167 18.325 22.3838 18.6695 22.0902 18.9597C21.7965 19.2499 21.4479 19.4801 21.0643 19.6371C20.6806 19.7942 20.2694 19.875 19.8542 19.875ZM19.8542 8C17.5059 8 15.2538 8.92187 13.5933 10.5628C11.9328 12.2038 11 14.4294 11 16.75C11 23.3125 19.8542 33 19.8542 33C19.8542 33 28.7083 23.3125 28.7083 16.75C28.7083 14.4294 27.7755 12.2038 26.115 10.5628C24.4545 8.92187 22.2024 8 19.8542 8Z" fill="white"/>
</svg>
