<svg width="40" height="40" viewBox="0 0 40 40" fill="none" xmlns="http://www.w3.org/2000/svg">
<rect width="40" height="40" rx="8" fill="#FD6600"/>
<path d="M25.44 23.1471L24.808 23.7763C24.808 23.7763 23.3039 25.2707 19.1997 21.1902C15.0956 17.1096 16.5997 15.6152 16.5997 15.6152L16.997 15.218C17.9789 14.243 18.072 12.6763 17.215 11.5319L15.465 9.19441C14.4039 7.77775 12.3553 7.59025 11.1401 8.79858L8.95952 10.9652C8.35813 11.5652 7.95536 12.3402 8.00397 13.2013C8.12897 15.4055 9.12618 20.1457 14.6873 25.6762C20.5858 31.5401 26.1205 31.7734 28.383 31.5623C29.0997 31.4956 29.7219 31.1318 30.2233 30.6318L32.1955 28.6707C33.5288 27.3471 33.1538 25.0762 31.4483 24.1499L28.7955 22.7068C27.6761 22.0999 26.315 22.2777 25.44 23.1471Z" fill="white"/>
</svg>
