<svg width="79" height="102" viewBox="0 0 79 102" fill="none" xmlns="http://www.w3.org/2000/svg">
<path d="M52.0142 4C59.9102 4 63.8582 4 66.8756 5.598C69.5515 7.0243 71.7081 9.25988 73.0373 11.9853C74.5742 15.1108 74.5742 19.2045 74.5742 27.3966V74.6034C74.5742 82.7955 74.5742 86.8892 73.0373 90.0194C71.7081 92.7448 69.5515 94.9804 66.8756 96.4067C63.8582 98 59.9102 98 52.0142 98H26.6342C18.7382 98 14.7902 98 11.7728 96.402C9.09693 94.9757 6.94032 92.7401 5.61112 90.0147C4.07422 86.8892 4.07422 82.7955 4.07422 74.6034V27.3966C4.07422 19.2045 4.07422 15.1108 5.61112 11.9806C6.94112 9.25692 9.09766 7.02308 11.7728 5.598C14.7902 4 18.7382 4 26.6342 4H52.0142Z" stroke="white" stroke-width="8" stroke-linecap="round" stroke-linejoin="round"/>
<path d="M27.5734 93.2988V67.4488C27.5734 64.9558 28.5638 62.5649 30.3266 60.802C32.0895 59.0392 34.4804 58.0488 36.9734 58.0488H41.6734C44.1665 58.0488 46.5574 59.0392 48.3202 60.802C50.0831 62.5649 51.0734 64.9558 51.0734 67.4488V93.2988M29.9234 22.7988H20.5234M29.9234 41.5988H20.5234M58.1234 22.7988H48.7234M58.1234 41.5988H48.7234" stroke="white" stroke-width="8" stroke-linecap="round" stroke-linejoin="round"/>
</svg>
