<svg width="27" height="25" viewBox="0 0 27 25" fill="none" xmlns="http://www.w3.org/2000/svg">
<path d="M18.4661 16.0383L17.797 16.7045C17.797 16.7045 16.2043 18.2869 11.8587 13.9663C7.51308 9.64564 9.10575 8.06327 9.10575 8.06327L9.52634 7.64268C10.5661 6.61032 10.6646 4.95148 9.75722 3.73971L7.90426 1.26469C6.78073 -0.235326 4.61159 -0.433857 3.32482 0.845565L1.01597 3.1397C0.379203 3.775 -0.047271 4.5956 0.00420003 5.50737C0.136554 7.84121 1.19244 12.8604 7.08073 18.7163C13.3264 24.9252 19.1867 25.1722 21.5823 24.9487C22.3411 24.8781 23 24.4928 23.5309 23.9634L25.6191 21.8869C27.0309 20.4854 26.6338 18.081 24.8279 17.1001L22.0191 15.5722C20.8338 14.9295 19.3926 15.1177 18.4661 16.0383Z" fill="black"/>
</svg>
