<svg width="25" height="25" viewBox="0 0 25 25" fill="none" xmlns="http://www.w3.org/2000/svg">
<path d="M22.5 0H2.5C1.125 0 0.0125 1.125 0.0125 2.5L0 25L5 20H22.5C23.875 20 25 18.875 25 17.5V2.5C25 1.125 23.875 0 22.5 0ZM6.25 8.75H18.75C19.4375 8.75 20 9.3125 20 10C20 10.6875 19.4375 11.25 18.75 11.25H6.25C5.5625 11.25 5 10.6875 5 10C5 9.3125 5.5625 8.75 6.25 8.75ZM13.75 15H6.25C5.5625 15 5 14.4375 5 13.75C5 13.0625 5.5625 12.5 6.25 12.5H13.75C14.4375 12.5 15 13.0625 15 13.75C15 14.4375 14.4375 15 13.75 15ZM18.75 7.5H6.25C5.5625 7.5 5 6.9375 5 6.25C5 5.5625 5.5625 5 6.25 5H18.75C19.4375 5 20 5.5625 20 6.25C20 6.9375 19.4375 7.5 18.75 7.5Z" fill="#1A1B1F"/>
</svg>
