<svg width="32" height="25" viewBox="0 0 32 25" fill="none" xmlns="http://www.w3.org/2000/svg">
<path d="M26.5625 0H4.6875C3.4443 0 2.25201 0.49386 1.37294 1.37294C0.49386 2.25201 0 3.4443 0 4.6875V20.3125C0 21.5557 0.49386 22.748 1.37294 23.6271C2.25201 24.5061 3.4443 25 4.6875 25H26.5625C27.8057 25 28.998 24.5061 29.8771 23.6271C30.7561 22.748 31.25 21.5557 31.25 20.3125V4.6875C31.25 3.4443 30.7561 2.25201 29.8771 1.37294C28.998 0.49386 27.8057 0 26.5625 0ZM26.5625 3.125L16.4062 10.1094C16.1687 10.2465 15.8993 10.3187 15.625 10.3187C15.3507 10.3187 15.0813 10.2465 14.8438 10.1094L4.6875 3.125H26.5625Z" fill="#1A1B1F"/>
</svg>
