<svg width="81" height="98" viewBox="0 0 81 98" fill="none" xmlns="http://www.w3.org/2000/svg">
<path d="M3.49243 20.6997V81.237C3.49243 84.9421 4.96428 88.4955 7.58419 91.1154C10.2041 93.7353 13.7575 95.2071 17.4626 95.2071H64.0297C67.7349 95.2071 71.2882 93.7353 73.9081 91.1154C76.528 88.4955 77.9999 84.9421 77.9999 81.237V34.6698C77.9999 30.9647 76.528 27.4114 73.9081 24.7914C71.2882 22.1715 67.7349 20.6997 64.0297 20.6997H3.49243ZM3.49243 20.6997V16.043" stroke="white" stroke-width="5"/>
<path d="M5.97726 21.1382C5.33546 20.8428 4.75054 20.4357 4.25011 19.9353C3.7502 19.4354 3.34342 18.8511 3.04814 18.2101H5.36534C5.45543 18.3222 5.55169 18.4295 5.65376 18.5316C5.75691 18.6348 5.86544 18.732 5.9788 18.8229L5.97726 21.1382ZM60.4336 2.55471C61.0581 2.61931 61.6771 2.74102 62.2828 2.91927C63.6992 3.33612 65.0095 4.05244 66.125 5.01974C67.2405 5.98705 68.1351 7.18274 68.7483 8.52586C69.0104 9.10005 69.2185 9.69545 69.3709 10.3043H67.309C67.2066 9.97948 67.0841 9.66044 66.9419 9.34914C66.4466 8.26484 65.7242 7.29962 64.8234 6.51881C63.9227 5.738 62.8647 5.15984 61.7211 4.82348C61.3923 4.72677 61.0594 4.6513 60.7244 4.59671L60.5295 3.23059L60.5302 3.2305L60.4336 2.55471ZM55.7209 4.92694L10.3919 11.3965L10.1113 9.43087L55.4399 2.95717L55.7209 4.92694ZM5.30276 11.127L5.56643 12.9739C5.53081 13.0119 5.49592 13.0505 5.46178 13.0899C5.4275 13.1294 5.39406 13.1695 5.36146 13.2101H3.04365C3.27832 12.6983 3.58592 12.2183 3.96047 11.7863C4.33444 11.3549 4.76519 10.9828 5.23774 10.6782L5.30178 11.1271L5.30276 11.127ZM10.9782 19.7003H62.694V20.6928V21.6854H10.9769L10.9782 19.7003ZM0.000287821 15.7101L5.61609e-06 15.7101L0.000287821 15.7101Z" fill="black" stroke="white" stroke-width="5"/>
<path d="M57.6089 52.8044C57.6089 43.5234 50.0855 36 40.8044 36C31.5234 36 24 43.5234 24 52.8044C24 62.0855 31.5234 69.6089 40.8044 69.6089" stroke="white" stroke-width="3" stroke-linecap="round" stroke-linejoin="round"/>
<path d="M42.4848 36.0859C42.4848 36.0859 47.5261 42.7237 47.5261 52.8064M39.1239 69.5268C39.1239 69.5268 34.0826 62.889 34.0826 52.8064C34.0826 42.7237 39.1239 36.0859 39.1239 36.0859M25.0586 58.6879H40.8044M25.0586 46.9248H56.5501" stroke="white" stroke-width="2" stroke-linecap="round" stroke-linejoin="round"/>
<path d="M57.4053 62.7444C58.2355 63.2552 58.1834 64.4971 57.3297 64.5945L53.016 65.0835L51.0818 68.9687C50.6987 69.7401 49.514 69.362 49.3173 68.4075L47.2084 58.1299C47.042 57.3232 47.768 56.8158 48.4687 57.2476L57.4053 62.7444Z" stroke="white" stroke-width="3"/>
</svg>
