<svg width="18" height="18" viewBox="0 0 18 18" fill="none" xmlns="http://www.w3.org/2000/svg">
<g clip-path="url(#clip0_626_21)">
<rect width="18" height="18" rx="9" fill="white"/>
<path fill-rule="evenodd" clip-rule="evenodd" d="M-3 0V18H21V0H-3Z" fill="#2E42A5"/>
<mask id="mask0_626_21" style="mask-type:luminance" maskUnits="userSpaceOnUse" x="-3" y="0" width="24" height="18">
<path fill-rule="evenodd" clip-rule="evenodd" d="M-3 0V18H21V0H-3Z" fill="white"/>
</mask>
<g mask="url(#mask0_626_21)">
<path d="M-5.67578 16.7138L-0.394281 18.9473L21.1157 2.42854L23.902 -0.890957L18.2545 -1.63721L9.48097 5.48104L2.41897 10.2773L-5.67578 16.7138Z" fill="white"/>
<path d="M-4.95238 18.279L-2.26063 19.575L22.9019 -1.19922H19.1234L-4.95312 18.2783L-4.95238 18.279Z" fill="#F50100"/>
<path d="M23.6715 16.7138L18.39 18.9473L-3.12 2.42854L-5.90625 -0.890957L-0.25875 -1.63721L8.51475 5.48104L15.5768 10.2773L23.6715 16.7138Z" fill="white"/>
<path d="M23.4905 17.8366L20.7995 19.1334L10.0842 10.2384L6.90797 9.24461L-6.17578 -0.879639H-2.39728L10.6782 9.00461L14.1515 10.1964L23.4905 17.8374V17.8366Z" fill="#F50100"/>
<path fill-rule="evenodd" clip-rule="evenodd" d="M11.832 -1.5H6.16503V6H-4.48047V12H6.16503V19.5H11.832V12H22.5195V6H11.832V-1.5Z" fill="#F50100"/>
<mask id="mask1_626_21" style="mask-type:luminance" maskUnits="userSpaceOnUse" x="-5" y="-2" width="28" height="22">
<path fill-rule="evenodd" clip-rule="evenodd" d="M11.832 -1.5H6.16503V6H-4.48047V12H6.16503V19.5H11.832V12H22.5195V6H11.832V-1.5Z" fill="white"/>
</mask>
<g mask="url(#mask1_626_21)">
<path d="M6.16503 -1.5V-3H4.66503V-1.5H6.16503ZM11.832 -1.5H13.332V-3H11.832V-1.5ZM6.16503 6V7.5H7.66503V6H6.16503ZM-4.48047 6V4.5H-5.98047V6H-4.48047ZM-4.48047 12H-5.98047V13.5H-4.48047V12ZM6.16503 12H7.66503V10.5H6.16503V12ZM6.16503 19.5H4.66503V21H6.16503V19.5ZM11.832 19.5V21H13.332V19.5H11.832ZM11.832 12V10.5H10.332V12H11.832ZM22.5195 12V13.5H24.0195V12H22.5195ZM22.5195 6H24.0195V4.5H22.5195V6ZM11.832 6H10.332V7.5H11.832V6ZM6.16503 0H11.832V-3H6.16503V0ZM7.66503 6V-1.5H4.66503V6H7.66503ZM-4.48047 7.5H6.16503V4.5H-4.48047V7.5ZM-2.98047 12V6H-5.98047V12H-2.98047ZM6.16503 10.5H-4.48047V13.5H6.16503V10.5ZM7.66503 19.5V12H4.66503V19.5H7.66503ZM11.832 18H6.16503V21H11.832V18ZM10.332 12V19.5H13.332V12H10.332ZM22.5195 10.5H11.832V13.5H22.5195V10.5ZM21.0195 6V12H24.0195V6H21.0195ZM11.832 7.5H22.5195V4.5H11.832V7.5ZM10.332 -1.5V6H13.332V-1.5H10.332Z" fill="white"/>
</g>
</g>
</g>
<defs>
<clipPath id="clip0_626_21">
<rect width="18" height="18" rx="9" fill="white"/>
</clipPath>
</defs>
</svg>
