<svg width="87" height="103" viewBox="0 0 87 103" fill="none" xmlns="http://www.w3.org/2000/svg">
<path d="M4.63281 21.5164V84.4699C4.63281 88.3229 6.16341 92.0181 8.88789 94.7426C11.6124 97.4671 15.3076 98.9977 19.1605 98.9977H67.5863C71.4393 98.9977 75.1345 97.4671 77.859 94.7426C80.5835 92.0181 82.1141 88.3229 82.1141 84.4699V36.0441C82.1141 32.1911 80.5835 28.496 77.859 25.7715C75.1345 23.047 71.4393 21.5164 67.5863 21.5164H4.63281ZM4.63281 21.5164V16.6738" stroke="white" stroke-width="8"/>
<path d="M43.3715 69.9422C51.3949 69.9422 57.8992 63.4379 57.8992 55.4145C57.8992 47.391 51.3949 40.8867 43.3715 40.8867C35.348 40.8867 28.8438 47.391 28.8438 55.4145C28.8438 63.4379 35.348 69.9422 43.3715 69.9422Z" stroke="white" stroke-width="8"/>
<path d="M33.6875 84.4707H53.0578" stroke="white" stroke-width="8" stroke-linecap="round"/>
<path d="M9.13944 8.02545L60.4348 0.699587L61.3201 6.90564L10.0247 14.2268L9.13944 8.02545ZM9.04349 14.4291C8.74463 14.5517 8.47777 14.7442 8.26557 14.9887C8.05216 15.2346 7.90202 15.5258 7.82453 15.8372H1.51444C1.62208 14.0127 2.3287 12.2692 3.532 10.8812C4.73507 9.49352 6.36044 8.5469 8.15084 8.18149L8.59212 11.2747L8.59314 11.2745L9.04349 14.4291ZM9.31384 24.6359C8.39344 24.5809 7.48963 24.3728 6.63417 24.0187C5.62471 23.6009 4.70749 22.9882 3.93497 22.2157C3.16245 21.4432 2.54977 20.526 2.13196 19.5165C1.77794 18.6612 1.56979 17.7575 1.51478 16.8372H7.82541C7.84959 16.9328 7.88075 17.0267 7.91866 17.1186C8.02169 17.3684 8.1731 17.5954 8.36419 17.7865C8.55528 17.9776 8.78227 18.129 9.0321 18.232C9.12519 18.2704 9.22078 18.3018 9.31805 18.326L9.31384 24.6359ZM75.5502 12.8154H69.2769C69.2179 12.0485 69.0244 11.2967 68.7037 10.5947C68.3137 9.74074 67.7447 8.98056 67.0353 8.36563C66.3259 7.75069 65.4927 7.29536 64.592 7.03045C63.8505 6.81235 63.0789 6.73115 62.3127 6.78271L61.8667 3.65649L61.8674 3.65639L61.4262 0.567812C63.0835 0.396643 64.7601 0.550118 66.3615 1.02142C68.123 1.53984 69.7526 2.43071 71.1399 3.6337C72.5272 4.83669 73.6398 6.32372 74.4024 7.99411C75.0956 9.51267 75.4849 11.1506 75.5502 12.8154ZM69.2961 13.8154H75.56V21.0187H72.928V17.8868V17.3868H72.428H69.2961V13.8154ZM10.3138 24.6507L10.318 18.3868H68.2961V21.5187V22.0187H68.7961H71.928V24.6507H10.3138ZM71.928 21.0187H69.2961V18.3868H71.928V21.0187ZM72.928 24.6507V22.0187H75.56V24.6507H72.928Z" fill="white" stroke="white"/>
</svg>
