<svg width="2111" height="603" viewBox="0 0 2111 603" fill="none" xmlns="http://www.w3.org/2000/svg">
<rect width="2111" height="603" fill="white"/>
<path d="M228.555 114.798C188.733 128.612 154.391 154.833 130.573 189.608C106.754 224.383 94.7153 265.879 96.224 308.002C97.7326 350.125 112.709 390.654 138.954 423.636C165.199 456.618 201.329 480.314 242.037 491.245C275.04 499.76 309.618 500.134 342.797 492.334C372.854 485.583 400.643 471.141 423.442 450.424C447.171 428.203 464.394 399.934 473.261 368.658C482.899 334.646 484.614 298.878 478.274 264.1H292.946V340.977H400.276C398.131 353.239 393.534 364.941 386.761 375.385C379.988 385.828 371.177 394.798 360.856 401.757C347.75 410.426 332.976 416.259 317.483 418.882C301.943 421.771 286.005 421.771 270.466 418.882C254.716 415.626 239.817 409.125 226.718 399.795C205.674 384.899 189.873 363.736 181.569 339.327C173.125 314.461 173.125 287.503 181.569 262.636C187.48 245.206 197.251 229.336 210.153 216.211C224.918 200.915 243.611 189.981 264.181 184.609C284.751 179.237 306.403 179.635 326.761 185.759C342.665 190.641 357.209 199.171 369.232 210.669C381.334 198.629 393.415 186.558 405.476 174.456C411.703 167.949 418.491 161.752 424.625 155.089C406.272 138.01 384.729 124.72 361.23 115.981C318.439 100.443 271.617 100.026 228.555 114.798Z" fill="white"/>
<path d="M228.55 114.798C271.609 100.016 318.43 100.422 361.225 115.95C384.728 124.748 406.261 138.102 424.589 155.245C418.362 161.908 411.792 168.135 405.44 174.612C393.359 186.672 381.288 198.691 369.228 210.669C357.204 199.171 342.66 190.641 326.757 185.759C306.405 179.614 284.753 179.193 264.178 184.543C243.603 189.893 224.898 200.806 210.117 216.086C197.215 229.212 187.444 245.082 181.533 262.512L116.986 212.537C140.09 166.721 180.093 131.675 228.55 114.798Z" fill="#E33629"/>
<path d="M99.8609 262.045C103.33 244.851 109.09 228.2 116.986 212.537L181.533 262.637C173.089 287.503 173.089 314.461 181.533 339.327C160.028 355.934 138.512 372.623 116.986 389.396C97.2189 350.048 91.1903 305.217 99.8609 262.045Z" fill="#F8BD00"/>
<path d="M292.944 264.068H478.271C484.611 298.846 482.896 334.615 473.258 368.627C464.391 399.903 447.168 428.171 423.439 450.392C402.608 434.139 381.684 418.01 360.853 401.756C371.181 394.79 379.996 385.811 386.769 375.356C393.543 364.902 398.136 353.187 400.273 340.915H292.944C292.912 315.32 292.944 289.694 292.944 264.068Z" fill="#587DBD"/>
<path d="M116.957 389.395C138.483 372.789 159.999 356.099 181.504 339.327C189.824 363.744 205.648 384.908 226.715 399.795C239.855 409.082 254.786 415.529 270.556 418.726C286.095 421.616 302.034 421.616 317.573 418.726C333.067 416.104 347.841 410.27 360.947 401.601C381.778 417.854 402.702 433.983 423.532 450.237C400.737 470.966 372.948 485.418 342.887 492.178C309.708 499.978 275.131 499.604 242.128 491.089C216.026 484.119 191.645 471.833 170.513 455.001C148.146 437.243 129.878 414.864 116.957 389.395Z" fill="#319F43"/>
<rect width="2111" height="20" fill="#FF5400"/>
<path d="M745.909 186C744.909 182.939 743.591 180.197 741.955 177.773C740.348 175.318 738.424 173.227 736.182 171.5C733.97 169.773 731.455 168.455 728.636 167.545C725.818 166.636 722.727 166.182 719.364 166.182C713.848 166.182 708.833 167.606 704.318 170.455C699.803 173.303 696.212 177.5 693.545 183.045C690.879 188.591 689.545 195.394 689.545 203.455C689.545 211.515 690.894 218.318 693.591 223.864C696.288 229.409 699.939 233.606 704.545 236.455C709.152 239.303 714.333 240.727 720.091 240.727C725.424 240.727 730.121 239.591 734.182 237.318C738.273 235.015 741.455 231.773 743.727 227.591C746.03 223.379 747.182 218.424 747.182 212.727L750.636 213.455H722.636V203.455H758.091V213.455C758.091 221.121 756.455 227.788 753.182 233.455C749.939 239.121 745.455 243.515 739.727 246.636C734.03 249.727 727.485 251.273 720.091 251.273C711.848 251.273 704.606 249.333 698.364 245.455C692.152 241.576 687.303 236.061 683.818 228.909C680.364 221.758 678.636 213.273 678.636 203.455C678.636 196.091 679.621 189.47 681.591 183.591C683.591 177.682 686.409 172.652 690.045 168.5C693.682 164.348 697.985 161.167 702.955 158.955C707.924 156.742 713.394 155.636 719.364 155.636C724.273 155.636 728.848 156.379 733.091 157.864C737.364 159.318 741.167 161.394 744.5 164.091C747.864 166.758 750.667 169.955 752.909 173.682C755.152 177.379 756.697 181.485 757.545 186H745.909ZM804.307 251.455C798.004 251.455 792.473 249.955 787.716 246.955C782.989 243.955 779.292 239.758 776.625 234.364C773.989 228.97 772.67 222.667 772.67 215.455C772.67 208.182 773.989 201.833 776.625 196.409C779.292 190.985 782.989 186.773 787.716 183.773C792.473 180.773 798.004 179.273 804.307 179.273C810.61 179.273 816.125 180.773 820.852 183.773C825.61 186.773 829.307 190.985 831.943 196.409C834.61 201.833 835.943 208.182 835.943 215.455C835.943 222.667 834.61 228.97 831.943 234.364C829.307 239.758 825.61 243.955 820.852 246.955C816.125 249.955 810.61 251.455 804.307 251.455ZM804.307 241.818C809.095 241.818 813.034 240.591 816.125 238.136C819.216 235.682 821.504 232.455 822.989 228.455C824.473 224.455 825.216 220.121 825.216 215.455C825.216 210.788 824.473 206.439 822.989 202.409C821.504 198.379 819.216 195.121 816.125 192.636C813.034 190.152 809.095 188.909 804.307 188.909C799.519 188.909 795.58 190.152 792.489 192.636C789.398 195.121 787.11 198.379 785.625 202.409C784.14 206.439 783.398 210.788 783.398 215.455C783.398 220.121 784.14 224.455 785.625 228.455C787.11 232.455 789.398 235.682 792.489 238.136C795.58 240.591 799.519 241.818 804.307 241.818ZM880.682 251.455C874.379 251.455 868.848 249.955 864.091 246.955C859.364 243.955 855.667 239.758 853 234.364C850.364 228.97 849.045 222.667 849.045 215.455C849.045 208.182 850.364 201.833 853 196.409C855.667 190.985 859.364 186.773 864.091 183.773C868.848 180.773 874.379 179.273 880.682 179.273C886.985 179.273 892.5 180.773 897.227 183.773C901.985 186.773 905.682 190.985 908.318 196.409C910.985 201.833 912.318 208.182 912.318 215.455C912.318 222.667 910.985 228.97 908.318 234.364C905.682 239.758 901.985 243.955 897.227 246.955C892.5 249.955 886.985 251.455 880.682 251.455ZM880.682 241.818C885.47 241.818 889.409 240.591 892.5 238.136C895.591 235.682 897.879 232.455 899.364 228.455C900.848 224.455 901.591 220.121 901.591 215.455C901.591 210.788 900.848 206.439 899.364 202.409C897.879 198.379 895.591 195.121 892.5 192.636C889.409 190.152 885.47 188.909 880.682 188.909C875.894 188.909 871.955 190.152 868.864 192.636C865.773 195.121 863.485 198.379 862 202.409C860.515 206.439 859.773 210.788 859.773 215.455C859.773 220.121 860.515 224.455 862 228.455C863.485 232.455 865.773 235.682 868.864 238.136C871.955 240.591 875.894 241.818 880.682 241.818ZM956.875 277.636C951.693 277.636 947.239 276.97 943.511 275.636C939.784 274.333 936.678 272.606 934.193 270.455C931.739 268.333 929.784 266.061 928.33 263.636L936.875 257.636C937.845 258.909 939.072 260.364 940.557 262C942.042 263.667 944.072 265.106 946.648 266.318C949.254 267.561 952.663 268.182 956.875 268.182C962.511 268.182 967.163 266.818 970.83 264.091C974.496 261.364 976.33 257.091 976.33 251.273V237.091H975.42C974.633 238.364 973.511 239.939 972.057 241.818C970.633 243.667 968.572 245.318 965.875 246.773C963.208 248.197 959.602 248.909 955.057 248.909C949.42 248.909 944.36 247.576 939.875 244.909C935.42 242.242 931.89 238.364 929.284 233.273C926.708 228.182 925.42 222 925.42 214.727C925.42 207.576 926.678 201.348 929.193 196.045C931.708 190.712 935.208 186.591 939.693 183.682C944.178 180.742 949.36 179.273 955.239 179.273C959.784 179.273 963.39 180.03 966.057 181.545C968.754 183.03 970.814 184.727 972.239 186.636C973.693 188.515 974.814 190.061 975.602 191.273H976.693V180.182H987.057V252C987.057 258 985.693 262.879 982.966 266.636C980.269 270.424 976.633 273.197 972.057 274.955C967.511 276.742 962.451 277.636 956.875 277.636ZM956.511 239.273C960.814 239.273 964.451 238.288 967.42 236.318C970.39 234.348 972.648 231.515 974.193 227.818C975.739 224.121 976.511 219.697 976.511 214.545C976.511 209.515 975.754 205.076 974.239 201.227C972.723 197.379 970.481 194.364 967.511 192.182C964.542 190 960.875 188.909 956.511 188.909C951.966 188.909 948.178 190.061 945.148 192.364C942.148 194.667 939.89 197.758 938.375 201.636C936.89 205.515 936.148 209.818 936.148 214.545C936.148 219.394 936.905 223.682 938.42 227.409C939.966 231.106 942.239 234.015 945.239 236.136C948.269 238.227 952.027 239.273 956.511 239.273ZM1017.42 156.909V250H1006.69V156.909H1017.42ZM1066.34 251.455C1059.61 251.455 1053.81 249.97 1048.93 247C1044.08 244 1040.34 239.818 1037.7 234.455C1035.1 229.061 1033.8 222.788 1033.8 215.636C1033.8 208.485 1035.1 202.182 1037.7 196.727C1040.34 191.242 1044.01 186.97 1048.7 183.909C1053.43 180.818 1058.95 179.273 1065.25 179.273C1068.89 179.273 1072.48 179.879 1076.02 181.091C1079.57 182.303 1082.8 184.273 1085.7 187C1088.61 189.697 1090.93 193.273 1092.66 197.727C1094.39 202.182 1095.25 207.667 1095.25 214.182V218.727H1041.43V209.455H1084.34C1084.34 205.515 1083.55 202 1081.98 198.909C1080.43 195.818 1078.22 193.379 1075.34 191.591C1072.49 189.803 1069.13 188.909 1065.25 188.909C1060.98 188.909 1057.28 189.97 1054.16 192.091C1051.07 194.182 1048.69 196.909 1047.02 200.273C1045.36 203.636 1044.52 207.242 1044.52 211.091V217.273C1044.52 222.545 1045.43 227.015 1047.25 230.682C1049.1 234.318 1051.66 237.091 1054.93 239C1058.2 240.879 1062.01 241.818 1066.34 241.818C1069.16 241.818 1071.7 241.424 1073.98 240.636C1076.28 239.818 1078.27 238.606 1079.93 237C1081.6 235.364 1082.89 233.333 1083.8 230.909L1094.16 233.818C1093.07 237.333 1091.23 240.424 1088.66 243.091C1086.08 245.727 1082.9 247.788 1079.11 249.273C1075.33 250.727 1071.07 251.455 1066.34 251.455ZM1149.02 250V156.909H1180.48C1187.75 156.909 1193.72 158.152 1198.39 160.636C1203.05 163.091 1206.51 166.47 1208.75 170.773C1210.99 175.076 1212.11 179.97 1212.11 185.455C1212.11 190.939 1210.99 195.803 1208.75 200.045C1206.51 204.288 1203.07 207.621 1198.43 210.045C1193.8 212.439 1187.87 213.636 1180.66 213.636H1155.2V203.455H1180.3C1185.27 203.455 1189.27 202.727 1192.3 201.273C1195.36 199.818 1197.57 197.758 1198.93 195.091C1200.33 192.394 1201.02 189.182 1201.02 185.455C1201.02 181.727 1200.33 178.47 1198.93 175.682C1197.54 172.894 1195.31 170.742 1192.25 169.227C1189.19 167.682 1185.14 166.909 1180.11 166.909H1160.3V250H1149.02ZM1192.84 208.182L1215.75 250H1202.66L1180.11 208.182H1192.84ZM1249.99 251.636C1245.56 251.636 1241.55 250.803 1237.94 249.136C1234.34 247.439 1231.47 245 1229.35 241.818C1227.23 238.606 1226.17 234.727 1226.17 230.182C1226.17 226.182 1226.96 222.939 1228.53 220.455C1230.11 217.939 1232.22 215.97 1234.85 214.545C1237.49 213.121 1240.4 212.061 1243.58 211.364C1246.79 210.636 1250.02 210.061 1253.26 209.636C1257.5 209.091 1260.94 208.682 1263.58 208.409C1266.25 208.106 1268.19 207.606 1269.4 206.909C1270.64 206.212 1271.26 205 1271.26 203.273V202.909C1271.26 198.424 1270.03 194.939 1267.58 192.455C1265.16 189.97 1261.47 188.727 1256.53 188.727C1251.41 188.727 1247.4 189.848 1244.49 192.091C1241.58 194.333 1239.53 196.727 1238.35 199.273L1228.17 195.636C1229.99 191.394 1232.41 188.091 1235.44 185.727C1238.5 183.333 1241.84 181.667 1245.44 180.727C1249.08 179.758 1252.66 179.273 1256.17 179.273C1258.41 179.273 1260.99 179.545 1263.9 180.091C1266.84 180.606 1269.67 181.682 1272.4 183.318C1275.16 184.955 1277.44 187.424 1279.26 190.727C1281.08 194.03 1281.99 198.455 1281.99 204V250H1271.26V240.545H1270.72C1269.99 242.061 1268.78 243.682 1267.08 245.409C1265.38 247.136 1263.13 248.606 1260.31 249.818C1257.49 251.03 1254.05 251.636 1249.99 251.636ZM1251.62 242C1255.87 242 1259.44 241.167 1262.35 239.5C1265.29 237.833 1267.5 235.682 1268.99 233.045C1270.5 230.409 1271.26 227.636 1271.26 224.727V214.909C1270.81 215.455 1269.81 215.955 1268.26 216.409C1266.75 216.833 1264.99 217.212 1262.99 217.545C1261.02 217.848 1259.09 218.121 1257.22 218.364C1255.37 218.576 1253.87 218.758 1252.72 218.909C1249.93 219.273 1247.32 219.864 1244.9 220.682C1242.5 221.47 1240.56 222.667 1239.08 224.273C1237.63 225.848 1236.9 228 1236.9 230.727C1236.9 234.455 1238.28 237.273 1241.03 239.182C1243.82 241.061 1247.35 242 1251.62 242ZM1301.57 250V180.182H1312.3V250H1301.57ZM1307.02 168.545C1304.93 168.545 1303.13 167.833 1301.61 166.409C1300.13 164.985 1299.39 163.273 1299.39 161.273C1299.39 159.273 1300.13 157.561 1301.61 156.136C1303.13 154.712 1304.93 154 1307.02 154C1309.11 154 1310.9 154.712 1312.39 156.136C1313.9 157.561 1314.66 159.273 1314.66 161.273C1314.66 163.273 1313.9 164.985 1312.39 166.409C1310.9 167.833 1309.11 168.545 1307.02 168.545ZM1362.31 180.182V189.273H1326.12V180.182H1362.31ZM1336.67 163.455H1347.4V230C1347.4 233.03 1347.84 235.303 1348.72 236.818C1349.63 238.303 1350.78 239.303 1352.17 239.818C1353.59 240.303 1355.09 240.545 1356.67 240.545C1357.85 240.545 1358.82 240.485 1359.58 240.364C1360.34 240.212 1360.94 240.091 1361.4 240L1363.58 249.636C1362.85 249.909 1361.84 250.182 1360.53 250.455C1359.23 250.758 1357.58 250.909 1355.58 250.909C1352.55 250.909 1349.58 250.258 1346.67 248.955C1343.79 247.652 1341.4 245.667 1339.49 243C1337.61 240.333 1336.67 236.97 1336.67 232.909V163.455ZM1378.44 250V180.182H1389.17V250H1378.44ZM1383.9 168.545C1381.81 168.545 1380 167.833 1378.49 166.409C1377 164.985 1376.26 163.273 1376.26 161.273C1376.26 159.273 1377 157.561 1378.49 156.136C1380 154.712 1381.81 154 1383.9 154C1385.99 154 1387.78 154.712 1389.26 156.136C1390.78 157.561 1391.53 159.273 1391.53 161.273C1391.53 163.273 1390.78 164.985 1389.26 166.409C1387.78 167.833 1385.99 168.545 1383.9 168.545ZM1419.55 208V250H1408.82V180.182H1419.18V191.091H1420.09C1421.73 187.545 1424.21 184.697 1427.55 182.545C1430.88 180.364 1435.18 179.273 1440.45 179.273C1445.18 179.273 1449.32 180.242 1452.86 182.182C1456.41 184.091 1459.17 187 1461.14 190.909C1463.11 194.788 1464.09 199.697 1464.09 205.636V250H1453.36V206.364C1453.36 200.879 1451.94 196.606 1449.09 193.545C1446.24 190.455 1442.33 188.909 1437.36 188.909C1433.94 188.909 1430.88 189.652 1428.18 191.136C1425.52 192.621 1423.41 194.788 1421.86 197.636C1420.32 200.485 1419.55 203.939 1419.55 208ZM1511.88 277.636C1506.69 277.636 1502.24 276.97 1498.51 275.636C1494.78 274.333 1491.68 272.606 1489.19 270.455C1486.74 268.333 1484.78 266.061 1483.33 263.636L1491.88 257.636C1492.84 258.909 1494.07 260.364 1495.56 262C1497.04 263.667 1499.07 265.106 1501.65 266.318C1504.25 267.561 1507.66 268.182 1511.88 268.182C1517.51 268.182 1522.16 266.818 1525.83 264.091C1529.5 261.364 1531.33 257.091 1531.33 251.273V237.091H1530.42C1529.63 238.364 1528.51 239.939 1527.06 241.818C1525.63 243.667 1523.57 245.318 1520.88 246.773C1518.21 248.197 1514.6 248.909 1510.06 248.909C1504.42 248.909 1499.36 247.576 1494.88 244.909C1490.42 242.242 1486.89 238.364 1484.28 233.273C1481.71 228.182 1480.42 222 1480.42 214.727C1480.42 207.576 1481.68 201.348 1484.19 196.045C1486.71 190.712 1490.21 186.591 1494.69 183.682C1499.18 180.742 1504.36 179.273 1510.24 179.273C1514.78 179.273 1518.39 180.03 1521.06 181.545C1523.75 183.03 1525.81 184.727 1527.24 186.636C1528.69 188.515 1529.81 190.061 1530.6 191.273H1531.69V180.182H1542.06V252C1542.06 258 1540.69 262.879 1537.97 266.636C1535.27 270.424 1531.63 273.197 1527.06 274.955C1522.51 276.742 1517.45 277.636 1511.88 277.636ZM1511.51 239.273C1515.81 239.273 1519.45 238.288 1522.42 236.318C1525.39 234.348 1527.65 231.515 1529.19 227.818C1530.74 224.121 1531.51 219.697 1531.51 214.545C1531.51 209.515 1530.75 205.076 1529.24 201.227C1527.72 197.379 1525.48 194.364 1522.51 192.182C1519.54 190 1515.88 188.909 1511.51 188.909C1506.97 188.909 1503.18 190.061 1500.15 192.364C1497.15 194.667 1494.89 197.758 1493.38 201.636C1491.89 205.515 1491.15 209.818 1491.15 214.545C1491.15 219.394 1491.91 223.682 1493.42 227.409C1494.97 231.106 1497.24 234.015 1500.24 236.136C1503.27 238.227 1507.03 239.273 1511.51 239.273Z" fill="black"/>
<path d="M679.917 457.222V434.698L736.391 345.727H755.81V376.903H744.317L708.715 433.245V434.302H788.967V457.222H679.917ZM744.845 481V450.352L745.374 440.379V345.727H772.19V481H744.845ZM822.191 482.717C817.832 482.717 814.089 481.176 810.962 478.094C807.88 474.967 806.339 471.224 806.339 466.865C806.339 462.55 807.88 458.851 810.962 455.768C814.089 452.686 817.832 451.145 822.191 451.145C826.418 451.145 830.117 452.686 833.288 455.768C836.458 458.851 838.043 462.55 838.043 466.865C838.043 469.771 837.295 472.435 835.798 474.857C834.344 477.235 832.429 479.151 830.051 480.604C827.673 482.013 825.053 482.717 822.191 482.717ZM861.145 481L917.222 370.034V369.109H851.898V345.727H946.813V369.44L890.67 481H861.145Z" fill="#FF5400"/>
<path d="M1096.08 458.872L1144.33 487.909L1131.52 433.183L1174.15 396.361L1118.02 391.612L1096.08 340L1074.15 391.612L1018.02 396.361L1060.64 433.183L1047.84 487.909L1096.08 458.872Z" fill="#FF5400"/>
<path d="M1670.11 458.872L1718.35 487.909L1705.55 433.183L1748.17 396.361L1692.05 391.612L1670.11 340L1648.17 391.612L1592.05 396.361L1634.67 433.183L1621.87 487.909L1670.11 458.872Z" fill="#FF5400"/>
<path d="M1287.42 458.872L1335.67 487.909L1322.87 433.183L1365.49 396.361L1309.36 391.612L1287.42 340L1265.49 391.612L1209.36 396.361L1251.98 433.183L1239.18 487.909L1287.42 458.872Z" fill="#FF5400"/>
<path d="M1861.45 458.872L1909.69 487.909L1896.89 433.183L1939.51 396.361L1883.39 391.612L1861.45 340L1839.52 391.612L1783.39 396.361L1826.01 433.183L1813.21 487.909L1861.45 458.872Z" fill="#FF5400"/>
<path d="M1478.77 458.872L1527.01 487.909L1514.21 433.183L1556.83 396.361L1500.7 391.612L1478.77 340L1456.83 391.612L1400.71 396.361L1443.33 433.183L1430.53 487.909L1478.77 458.872Z" fill="#FF5400"/>
</svg>
