<svg width="387" height="394" viewBox="0 0 387 394" fill="none" xmlns="http://www.w3.org/2000/svg">
<path d="M132.555 10.7976C92.7333 24.6121 58.3911 50.8326 34.5728 85.6075C10.7544 120.383 -1.28466 161.879 0.223959 204.002C1.73258 246.125 16.7093 286.654 42.9544 319.636C69.1995 352.618 105.329 376.314 146.037 387.245C179.04 395.76 213.618 396.134 246.797 388.334C276.854 381.583 304.643 367.141 327.442 346.424C351.171 324.203 368.394 295.934 377.261 264.658C386.899 230.646 388.614 194.878 382.274 160.1H196.946V236.977H304.276C302.131 249.239 297.534 260.941 290.761 271.385C283.988 281.828 275.177 290.798 264.856 297.757C251.75 306.426 236.976 312.259 221.483 314.882C205.943 317.771 190.005 317.771 174.466 314.882C158.716 311.626 143.817 305.125 130.718 295.795C109.674 280.899 93.8728 259.736 85.5693 235.327C77.1254 210.461 77.1254 183.503 85.5693 158.636C91.4799 141.206 101.251 125.336 114.153 112.211C128.918 96.9148 147.611 85.981 168.181 80.6092C188.751 75.2375 210.403 75.6352 230.761 81.7589C246.665 86.641 261.209 95.1708 273.232 106.669C285.334 94.6289 297.415 82.5581 309.476 70.4562C315.703 63.9486 322.491 57.7523 328.625 51.089C310.272 34.0095 288.729 20.7197 265.23 11.9808C222.439 -3.55688 175.617 -3.97444 132.555 10.7976Z" fill="white"/>
<path d="M132.55 10.7976C175.609 -3.98448 222.43 -3.57791 265.225 11.9497C288.728 20.7479 310.261 34.1018 328.589 51.2446C322.362 57.908 315.792 64.1354 309.44 70.6119C297.359 82.6723 285.288 94.6912 273.228 106.669C261.204 95.1708 246.66 86.641 230.757 81.7589C210.405 75.6138 188.753 75.193 168.178 80.5428C147.603 85.8926 128.898 96.8063 114.117 112.086C101.215 125.212 91.4441 141.082 85.5334 158.512L20.9863 108.537C44.0903 62.7206 84.0933 27.6746 132.55 10.7976Z" fill="#E33629"/>
<path d="M3.86091 158.045C7.33023 140.851 13.09 124.2 20.9863 108.537L85.5334 158.637C77.0895 183.503 77.0895 210.461 85.5334 235.327C64.0281 251.934 42.5124 268.623 20.9863 285.396C1.21895 246.048 -4.80975 201.217 3.86091 158.045Z" fill="#F8BD00"/>
<path d="M196.944 160.068H382.271C388.611 194.846 386.896 230.615 377.258 264.627C368.391 295.903 351.168 324.171 327.439 346.392C306.608 330.139 285.684 314.01 264.853 297.756C275.181 290.79 283.996 281.811 290.769 271.356C297.543 260.902 302.136 249.187 304.273 236.915H196.944C196.912 211.32 196.944 185.694 196.944 160.068Z" fill="#587DBD"/>
<path d="M20.957 285.395C42.4831 268.789 63.9988 252.099 85.5041 235.327C93.8242 259.744 109.648 280.908 130.715 295.795C143.855 305.082 158.786 311.529 174.556 314.726C190.095 317.616 206.034 317.616 221.573 314.726C237.067 312.104 251.841 306.27 264.947 297.601C285.778 313.854 306.702 329.983 327.532 346.237C304.737 366.966 276.948 381.418 246.887 388.178C213.708 395.978 179.131 395.604 146.128 387.089C120.026 380.119 95.6447 367.833 74.5128 351.001C52.1458 333.243 33.8775 310.864 20.957 285.395Z" fill="#319F43"/>
</svg>
