<svg width="62" height="62" viewBox="0 0 62 62" fill="none" xmlns="http://www.w3.org/2000/svg">
<rect width="62" height="62" rx="5" fill="#2F2F2F"/>
<path d="M41 11H21C15.4772 11 11 15.4772 11 21V41C11 46.5228 15.4772 51 21 51H41C46.5228 51 51 46.5228 51 41V21C51 15.4772 46.5228 11 41 11Z" stroke="white" stroke-width="3" stroke-linecap="round" stroke-linejoin="round"/>
<path d="M41.9994 20H42.0194M38.9994 29.74C39.2462 31.4045 38.9619 33.1044 38.1869 34.598C37.4119 36.0916 36.1857 37.3028 34.6827 38.0593C33.1796 38.8159 31.4763 39.0792 29.815 38.8119C28.1537 38.5445 26.6189 37.7602 25.4291 36.5703C24.2392 35.3805 23.4549 33.8457 23.1875 32.1844C22.9202 30.5231 23.1835 28.8198 23.9401 27.3167C24.6966 25.8137 25.9078 24.5875 27.4014 23.8125C28.895 23.0375 30.5949 22.7532 32.2594 23C33.9573 23.2518 35.5291 24.0429 36.7428 25.2566C37.9565 26.4703 38.7476 28.0422 38.9994 29.74Z" stroke="white" stroke-width="3" stroke-linecap="round" stroke-linejoin="round"/>
</svg>
