<svg width="69" height="69" viewBox="0 0 69 69" fill="none" xmlns="http://www.w3.org/2000/svg">
<rect width="69" height="69" rx="5" fill="white"/>
<path d="M35 14C29.5725 14 28.89 14.025 26.7575 14.12C24.625 14.22 23.1725 14.555 21.9 15.05C20.5646 15.5508 19.3554 16.3385 18.3575 17.3575C17.3385 18.3554 16.5508 19.5646 16.05 20.9C15.555 22.17 15.2175 23.625 15.12 25.75C15.025 27.8875 15 28.5675 15 34.0025C15 39.4325 15.025 40.1125 15.12 42.245C15.22 44.375 15.555 45.8275 16.05 47.1C16.5625 48.415 17.245 49.53 18.3575 50.6425C19.4675 51.755 20.5825 52.44 21.8975 52.95C23.1725 53.445 24.6225 53.7825 26.7525 53.88C28.8875 53.975 29.5675 54 35 54C40.4325 54 41.11 53.975 43.245 53.88C45.3725 53.78 46.83 53.445 48.1025 52.95C49.437 52.4489 50.6454 51.6612 51.6425 50.6425C52.755 49.53 53.4375 48.415 53.95 47.1C54.4425 45.8275 54.78 44.375 54.88 42.245C54.975 40.1125 55 39.4325 55 34C55 28.5675 54.975 27.8875 54.88 25.7525C54.78 23.625 54.4425 22.17 53.95 20.9C53.4492 19.5646 52.6615 18.3554 51.6425 17.3575C50.6446 16.3385 49.4354 15.5508 48.1 15.05C46.825 14.555 45.37 14.2175 43.2425 14.12C41.1075 14.025 40.43 14 34.995 14H35ZM33.2075 17.605H35.0025C40.3425 17.605 40.975 17.6225 43.0825 17.72C45.0325 17.8075 46.0925 18.135 46.7975 18.4075C47.73 18.77 48.3975 19.205 49.0975 19.905C49.7975 20.605 50.23 21.27 50.5925 22.205C50.8675 22.9075 51.1925 23.9675 51.28 25.9175C51.3775 28.025 51.3975 28.6575 51.3975 33.995C51.3975 39.3325 51.3775 39.9675 51.28 42.075C51.1925 44.025 50.865 45.0825 50.5925 45.7875C50.2696 46.6548 49.7581 47.4395 49.095 48.085C48.395 48.785 47.73 49.2175 46.795 49.58C46.095 49.855 45.035 50.18 43.0825 50.27C40.975 50.365 40.3425 50.3875 35.0025 50.3875C29.6625 50.3875 29.0275 50.365 26.92 50.27C24.97 50.18 23.9125 49.855 23.2075 49.58C22.3396 49.2581 21.554 48.7475 20.9075 48.085C20.2432 47.439 19.7308 46.6534 19.4075 45.785C19.135 45.0825 18.8075 44.0225 18.72 42.0725C18.625 39.965 18.605 39.3325 18.605 33.99C18.605 28.6475 18.625 28.02 18.72 25.9125C18.81 23.9625 19.135 22.9025 19.41 22.1975C19.7725 21.265 20.2075 20.5975 20.9075 19.8975C21.6075 19.1975 22.2725 18.765 23.2075 18.4025C23.9125 18.1275 24.97 17.8025 26.92 17.7125C28.765 17.6275 29.48 17.6025 33.2075 17.6V17.605ZM45.6775 20.925C45.3623 20.925 45.0502 20.9871 44.7591 21.1077C44.4679 21.2283 44.2033 21.4051 43.9804 21.6279C43.7576 21.8508 43.5808 22.1154 43.4602 22.4066C43.3396 22.6977 43.2775 23.0098 43.2775 23.325C43.2775 23.6402 43.3396 23.9523 43.4602 24.2434C43.5808 24.5346 43.7576 24.7992 43.9804 25.0221C44.2033 25.2449 44.4679 25.4217 44.7591 25.5423C45.0502 25.6629 45.3623 25.725 45.6775 25.725C46.314 25.725 46.9245 25.4721 47.3746 25.0221C47.8246 24.572 48.0775 23.9615 48.0775 23.325C48.0775 22.6885 47.8246 22.078 47.3746 21.6279C46.9245 21.1779 46.314 20.925 45.6775 20.925ZM35.0025 23.73C33.6402 23.7087 32.2872 23.9587 31.0224 24.4654C29.7577 24.972 28.6063 25.7252 27.6354 26.6811C26.6645 27.6369 25.8934 28.7764 25.3671 30.0331C24.8408 31.2899 24.5698 32.6388 24.5698 34.0012C24.5698 35.3637 24.8408 36.7126 25.3671 37.9693C25.8934 39.2261 26.6645 40.3656 27.6354 41.3214C28.6063 42.2773 29.7577 43.0305 31.0224 43.5371C32.2872 44.0438 33.6402 44.2938 35.0025 44.2725C37.6989 44.2304 40.2705 43.1298 42.1624 41.2081C44.0544 39.2865 45.1148 36.6979 45.1148 34.0012C45.1148 31.3046 44.0544 28.716 42.1624 26.7944C40.2705 24.8727 37.6989 23.7721 35.0025 23.73ZM35.0025 27.3325C35.8781 27.3325 36.7451 27.505 37.554 27.84C38.363 28.1751 39.098 28.6662 39.7171 29.2854C40.3363 29.9045 40.8274 30.6395 41.1625 31.4485C41.4975 32.2574 41.67 33.1244 41.67 34C41.67 34.8756 41.4975 35.7426 41.1625 36.5515C40.8274 37.3605 40.3363 38.0955 39.7171 38.7146C39.098 39.3338 38.363 39.8249 37.554 40.16C36.7451 40.495 35.8781 40.6675 35.0025 40.6675C33.2342 40.6675 31.5383 39.965 30.2879 38.7146C29.0375 37.4642 28.335 35.7683 28.335 34C28.335 32.2317 29.0375 30.5358 30.2879 29.2854C31.5383 28.035 33.2342 27.3325 35.0025 27.3325Z" fill="#FF5400"/>
</svg>
