<svg width="69" height="69" viewBox="0 0 69 69" fill="none" xmlns="http://www.w3.org/2000/svg">
<rect width="69" height="69" rx="5" fill="white"/>
<path d="M21.8884 18.4464C21.8878 19.6251 21.419 20.7553 20.5851 21.5883C19.7513 22.4213 18.6207 22.889 17.442 22.8884C16.2633 22.8878 15.1331 22.419 14.3001 21.5851C13.4671 20.7513 12.9994 19.6207 13 18.442C13.0006 17.2633 13.4694 16.1331 14.3032 15.3001C15.1371 14.4671 16.2677 13.9994 17.4464 14C18.6251 14.0006 19.7553 14.4694 20.5883 15.3032C21.4213 16.1371 21.889 17.2677 21.8884 18.4464ZM22.0217 26.1793H13.1333V54H22.0217V26.1793ZM36.0654 26.1793H27.2214V54H35.9765V39.4008C35.9765 31.2679 46.5759 30.5124 46.5759 39.4008V54H55.3532V36.3788C55.3532 22.6684 39.6652 23.1795 35.9765 29.9125L36.0654 26.1793Z" fill="#FF5400"/>
</svg>
