<svg width="62" height="62" viewBox="0 0 62 62" fill="none" xmlns="http://www.w3.org/2000/svg">
<rect width="62" height="62" rx="5" fill="#2F2F2F"/>
<path d="M16.4156 11C15.2445 11 14.1214 11.4652 13.2933 12.2933C12.4652 13.1214 12 14.2445 12 15.4156C12 16.5867 12.4652 17.7098 13.2933 18.5379C14.1214 19.366 15.2445 19.8312 16.4156 19.8312C17.5867 19.8312 18.7098 19.366 19.5379 18.5379C20.366 17.7098 20.8312 16.5867 20.8312 15.4156C20.8312 14.2445 20.366 13.1214 19.5379 12.2933C18.7098 11.4652 17.5867 11 16.4156 11ZM12.2597 23.4675C12.1909 23.4675 12.1248 23.4949 12.0761 23.5436C12.0274 23.5923 12 23.6584 12 23.7273V50.7403C12 50.8836 12.1164 51 12.2597 51H20.5714C20.6403 51 20.7064 50.9726 20.7551 50.9239C20.8038 50.8752 20.8312 50.8091 20.8312 50.7403V23.7273C20.8312 23.6584 20.8038 23.5923 20.7551 23.5436C20.7064 23.4949 20.6403 23.4675 20.5714 23.4675H12.2597ZM25.7662 23.4675C25.6973 23.4675 25.6313 23.4949 25.5826 23.5436C25.5339 23.5923 25.5065 23.6584 25.5065 23.7273V50.7403C25.5065 50.8836 25.6229 51 25.7662 51H34.0779C34.1468 51 34.2129 50.9726 34.2616 50.9239C34.3103 50.8752 34.3377 50.8091 34.3377 50.7403V36.1948C34.3377 35.1615 34.7481 34.1705 35.4788 33.4398C36.2095 32.7092 37.2005 32.2987 38.2338 32.2987C39.2671 32.2987 40.2581 32.7092 40.9887 33.4398C41.7194 34.1705 42.1299 35.1615 42.1299 36.1948V50.7403C42.1299 50.8836 42.2462 51 42.3896 51H50.7013C50.7702 51 50.8363 50.9726 50.885 50.9239C50.9337 50.8752 50.961 50.8091 50.961 50.7403V32.8286C50.961 27.7855 46.5766 23.8416 41.5584 24.2966C40.006 24.439 38.4853 24.8232 37.0514 25.4353L34.3377 26.599V23.7273C34.3377 23.6584 34.3103 23.5923 34.2616 23.5436C34.2129 23.4949 34.1468 23.4675 34.0779 23.4675H25.7662Z" fill="white"/>
</svg>
