<svg width="217" height="58" viewBox="0 0 217 58" fill="none" xmlns="http://www.w3.org/2000/svg">
<path d="M27.4737 22.5903C26.7164 24.004 24.6895 24.004 23.9324 22.5903L18.6314 12.6951C17.2869 10.1853 17.3574 7.22837 18.8201 4.78554C20.2826 2.34271 22.8558 0.884186 25.703 0.884186C28.5503 0.884186 31.1234 2.34271 32.5861 4.78554C34.0488 7.22837 34.1192 10.1853 32.7747 12.6951L27.4737 22.5903Z" fill="#FF5400"/>
<path d="M205.349 43.859H200.113V26.859H205.043L205.383 28.627C206.493 27.0857 208.227 26.315 210.585 26.315C212.602 26.315 214.166 26.9383 215.277 28.185C216.41 29.409 216.977 31.1317 216.977 33.353V43.859H211.741V34.611C211.741 33.5457 211.469 32.6957 210.925 32.061C210.381 31.4037 209.655 31.075 208.749 31.075C207.706 31.075 206.879 31.3923 206.267 32.027C205.655 32.639 205.349 33.4777 205.349 34.543V43.859Z" fill="white"/>
<path d="M180.961 41.819C179.216 40.1643 178.343 37.9997 178.343 35.325C178.343 32.6503 179.216 30.4857 180.961 28.831C182.729 27.1763 184.984 26.349 187.727 26.349C190.447 26.349 192.68 27.1763 194.425 28.831C196.193 30.4857 197.077 32.6503 197.077 35.325C197.077 37.977 196.193 40.1303 194.425 41.785C192.68 43.4397 190.447 44.267 187.727 44.267C184.984 44.267 182.729 43.451 180.961 41.819ZM183.613 35.291C183.613 36.583 183.987 37.6257 184.735 38.419C185.506 39.1897 186.503 39.575 187.727 39.575C188.928 39.575 189.903 39.1897 190.651 38.419C191.422 37.6257 191.807 36.583 191.807 35.291C191.807 34.0217 191.422 33.0017 190.651 32.231C189.903 31.4377 188.928 31.041 187.727 31.041C186.503 31.041 185.506 31.4377 184.735 32.231C183.987 33.0017 183.613 34.0217 183.613 35.291Z" fill="white"/>
<path d="M172.681 24.207C171.842 24.207 171.128 23.9237 170.539 23.357C169.972 22.7677 169.689 22.0537 169.689 21.215C169.689 20.3764 169.972 19.6737 170.539 19.107C171.128 18.5404 171.842 18.257 172.681 18.257C173.497 18.257 174.188 18.5404 174.755 19.107C175.344 19.6737 175.639 20.3764 175.639 21.215C175.639 22.0537 175.344 22.7677 174.755 23.357C174.188 23.9237 173.497 24.207 172.681 24.207ZM170.097 43.859V26.859H175.333V43.859H170.097Z" fill="white"/>
<path d="M164.514 43.859H159.278V31.211H156.048V26.859H159.278V21.589H164.514V26.859H167.744V31.211H164.514V43.859Z" fill="white"/>
<path d="M143.754 44.301C141.964 44.301 140.536 43.8137 139.47 42.839C138.428 41.8643 137.906 40.5383 137.906 38.861C137.906 37.297 138.439 36.0503 139.504 35.121C140.592 34.1917 142.156 33.6477 144.196 33.489L148.956 33.115V32.843C148.956 31.143 147.993 30.293 146.066 30.293C143.8 30.293 142.666 31.0863 142.666 32.673H138.314C138.314 30.7463 139.04 29.205 140.49 28.049C141.964 26.893 143.913 26.315 146.338 26.315C148.809 26.315 150.713 26.9837 152.05 28.321C153.388 29.6357 154.056 31.5057 154.056 33.931V43.859H149.432L149.092 41.615C148.82 42.3857 148.174 43.0317 147.154 43.553C146.157 44.0517 145.024 44.301 143.754 44.301ZM145.59 40.425C146.633 40.425 147.46 40.1757 148.072 39.677C148.684 39.1783 148.99 38.453 148.99 37.501V36.583L146.338 36.821C145.205 36.9117 144.4 37.1043 143.924 37.399C143.471 37.671 143.244 38.079 143.244 38.623C143.244 39.8243 144.026 40.425 145.59 40.425Z" fill="white"/>
<path d="M136.637 26.859V31.789H134.971C131.775 31.789 130.177 33.353 130.177 36.481V43.859H124.941V26.893H129.871L130.143 29.409C130.936 27.5503 132.432 26.621 134.631 26.621C135.311 26.621 135.979 26.7003 136.637 26.859Z" fill="white"/>
<path d="M102.575 35.053C102.575 32.469 103.334 30.361 104.853 28.729C106.372 27.097 108.332 26.281 110.735 26.281C113.115 26.281 114.804 27.0403 115.801 28.559L116.073 26.859H121.003V42.771C121.003 45.8083 120.176 48.1883 118.521 49.911C116.866 51.6563 114.588 52.529 111.687 52.529C109.08 52.529 106.95 51.8263 105.295 50.421C103.663 49.0383 102.734 47.1457 102.507 44.743H107.811C107.856 45.695 108.219 46.4317 108.899 46.953C109.579 47.497 110.497 47.769 111.653 47.769C112.922 47.769 113.92 47.4177 114.645 46.715C115.393 46.0123 115.767 45.0603 115.767 43.859V41.649C114.656 42.9863 112.945 43.655 110.633 43.655C108.253 43.655 106.315 42.8617 104.819 41.275C103.323 39.6657 102.575 37.5917 102.575 35.053ZM107.845 34.917C107.845 36.141 108.208 37.1497 108.933 37.943C109.681 38.7137 110.633 39.099 111.789 39.099C112.99 39.099 113.954 38.7137 114.679 37.943C115.404 37.1723 115.767 36.1637 115.767 34.917C115.767 33.6703 115.393 32.6843 114.645 31.959C113.92 31.211 112.956 30.837 111.755 30.837C110.599 30.837 109.658 31.2223 108.933 31.993C108.208 32.741 107.845 33.7157 107.845 34.917Z" fill="white"/>
<path d="M96.845 24.207C96.0064 24.207 95.2924 23.9237 94.703 23.357C94.1364 22.7677 93.853 22.0537 93.853 21.215C93.853 20.3764 94.1364 19.6737 94.703 19.107C95.2924 18.5404 96.0064 18.257 96.845 18.257C97.661 18.257 98.3524 18.5404 98.919 19.107C99.5084 19.6737 99.803 20.3764 99.803 21.215C99.803 22.0537 99.5084 22.7677 98.919 23.357C98.3524 23.9237 97.661 24.207 96.845 24.207ZM94.261 43.859V26.859H99.497V43.859H94.261Z" fill="white"/>
<path d="M68.4853 43.859H63.2493V26.859H68.1453L68.4853 28.627C69.5959 27.0857 71.2506 26.315 73.4493 26.315C75.8066 26.315 77.5293 27.3123 78.6173 29.307C79.0706 28.4003 79.7733 27.675 80.7253 27.131C81.6773 26.587 82.7539 26.315 83.9553 26.315C86.0859 26.315 87.7066 26.893 88.8173 28.049C89.9506 29.1823 90.5173 30.7463 90.5173 32.741V43.859H85.2813V34.203C85.2813 33.1603 85.0319 32.3783 84.5333 31.857C84.0346 31.313 83.3546 31.041 82.4933 31.041C81.6319 31.041 80.9179 31.3243 80.3513 31.891C79.7846 32.4577 79.5013 33.4097 79.5013 34.747V43.859H74.2653V34.203C74.2653 33.183 74.0159 32.4123 73.5173 31.891C73.0413 31.347 72.3726 31.075 71.5113 31.075C70.6499 31.075 69.9246 31.3583 69.3353 31.925C68.7686 32.4917 68.4853 33.4323 68.4853 34.747V43.859Z" fill="white"/>
<path d="M37.4735 43.859H32.2375V26.859H37.1335L37.4735 28.627C38.5842 27.0857 40.2389 26.315 42.4375 26.315C44.7949 26.315 46.5175 27.3123 47.6056 29.307C48.0589 28.4003 48.7616 27.675 49.7136 27.131C50.6656 26.587 51.7422 26.315 52.9436 26.315C55.0742 26.315 56.6949 26.893 57.8055 28.049C58.9389 29.1823 59.5056 30.7463 59.5056 32.741V43.859H54.2696V34.203C54.2696 33.1603 54.0202 32.3783 53.5215 31.857C53.0229 31.313 52.3429 31.041 51.4815 31.041C50.6202 31.041 49.9062 31.3243 49.3396 31.891C48.7729 32.4577 48.4895 33.4097 48.4895 34.747V43.859H43.2535V34.203C43.2535 33.183 43.0042 32.4123 42.5055 31.891C42.0295 31.347 41.3609 31.075 40.4995 31.075C39.6382 31.075 38.9129 31.3583 38.3235 31.925C37.7569 32.4917 37.4735 33.4323 37.4735 34.747V43.859Z" fill="white"/>
<path d="M23.0735 43.859V26.859H28.3095V43.859H23.0735Z" fill="white"/>
<path d="M15.5549 26.8944C-5.93436 30.4173 -4.14488 64.9119 48.3798 52.4786" stroke="#FF5400" stroke-width="4" stroke-linecap="round"/>
</svg>
