<svg width="81" height="98" viewBox="0 0 81 98" fill="none" xmlns="http://www.w3.org/2000/svg">
<path d="M3.49243 20.7036V81.2409C3.49243 84.946 4.96428 88.4994 7.58419 91.1193C10.2041 93.7392 13.7575 95.2111 17.4626 95.2111H64.0297C67.7349 95.2111 71.2882 93.7392 73.9081 91.1193C76.528 88.4994 77.9999 84.946 77.9999 81.2409V34.6737C77.9999 30.9686 76.528 27.4153 73.9081 24.7954C71.2882 22.1754 67.7349 20.7036 64.0297 20.7036H3.49243ZM3.49243 20.7036V16.0469" stroke="white" stroke-width="5"/>
<path d="M68.6866 20.6928V24.1854H72.1791V20.6928H68.6866ZM8.47523 24.1854H68.6866V17.2003H8.47989L8.47523 24.1854ZM72.1791 20.6928V12.8044H65.194V20.6928H72.1791ZM57.5617 0.128768L7.28311 7.30942L8.27033 14.2246L58.5489 7.04865L57.5617 0.128768ZM7.28311 7.30942C5.2605 7.59678 3.40976 8.60504 2.07153 10.1486C0.733298 11.6922 -0.00234505 13.6672 5.61609e-06 15.7101H6.98508C6.98391 15.3496 7.1135 15.0008 7.34983 14.7286C7.58616 14.4563 7.91321 14.2742 8.27033 14.2246L7.28311 7.30942ZM72.1791 12.8044C72.1789 10.9697 71.7844 9.15654 71.0225 7.4876C70.2606 5.81867 69.1489 4.33293 67.7629 3.13098C66.3768 1.92903 64.7486 1.03894 62.9886 0.520972C61.2286 0.00300378 59.3779 -0.13075 57.5617 0.128768L58.5489 7.04865C59.3744 6.93057 60.2156 6.98658 61.0157 7.22188C61.8157 7.45719 62.5558 7.86164 63.1859 8.40786C63.816 8.95407 64.3214 9.6293 64.6679 10.3878C65.0143 11.1463 65.1938 11.9704 65.194 12.8044H72.1791ZM8.47989 17.2003C8.28341 17.2009 8.08876 17.1627 7.90712 17.0878C7.72549 17.0129 7.56046 16.9028 7.42153 16.7638C7.2826 16.6249 7.17252 16.4599 7.09761 16.2782C7.02271 16.0966 6.98447 15.9066 6.98508 15.7101H5.61609e-06C-0.000606512 16.8239 0.218314 17.9222 0.644251 18.9513C1.07019 19.9804 1.69479 20.9155 2.48234 21.703C3.26989 22.4906 4.20495 23.1152 5.23405 23.5411C6.26316 23.9671 7.36146 24.186 8.47523 24.1854L8.47989 17.2003Z" fill="white"/>
<path d="M28.2769 43.0004C25.062 42.9858 22.5087 43.3465 21 44.2404L23.0727 49.8896L29.6671 51.3666C26.8778 57.1469 26.834 63.1507 25.9925 69.0917L31.8319 75C35.7076 73.4212 39.3092 72.8885 43.5109 72.7894C44.4439 71.1197 45.1802 69.2198 47.7638 68.6422C47.6162 65.8534 49.1576 65.2992 50.7461 63.7669C50.3549 60.8781 50.6828 59.1895 52.6547 55.6176L60.3383 50.2138L59.5053 47.8431C49.0307 45.5288 36.4928 43.0381 28.2769 43.0004ZM61.9823 57.4928C61.1152 57.4569 60.9093 57.9688 61.0452 58.5575C61.6216 59.0759 62.2767 59.2365 62.9737 59.2059C63.0713 58.5634 62.9018 58.0022 62.3954 57.5431C62.2436 57.5143 62.1061 57.4978 61.9823 57.4928ZM58.927 58.5147C58.0508 58.5217 57.221 59.3249 56.4053 60.3731C56.5976 60.4703 58.9687 62.1236 58.9687 62.1236L60.3464 59.2383C59.8574 58.7259 59.3858 58.5111 58.927 58.5148V58.5147ZM54.5816 62.0508C53.8501 62.051 53.2122 62.2264 53.1372 63.4529L54.0664 64.1335L54.8995 62.0587C54.7936 62.0538 54.6876 62.0512 54.5816 62.0508Z" fill="white"/>
<path d="M31.7686 62.8262H33.8681V63.8824H31.7686V62.8262ZM45.4576 62.8262H47.5571V63.8824H45.4576V62.8262ZM45.7657 57.1432H45.7618C45.1267 57.1432 44.5768 57.2245 44.2447 57.3473L44.2408 58.2489C44.5671 58.115 45.1202 58.0155 45.7553 57.9934L45.7657 57.9941V59.3266L45.7644 59.3253L45.7631 58.6077C45.5031 58.6473 45.31 58.7104 45.2119 58.7897L45.2028 58.8053C45.2015 58.8079 45.2054 58.8124 45.2047 58.8157C45.2028 58.8215 45.2054 58.8293 45.2054 58.8358L45.1046 59.5469C45.0513 59.6451 45.3276 59.8849 45.7657 60.1436V62.8236H47.2574V60.8021C47.4219 60.8593 47.585 60.9366 47.7209 61.0159C47.655 61.0655 47.6015 61.1297 47.5646 61.2035C47.5277 61.2772 47.5084 61.3585 47.5083 61.441C47.5083 61.6061 47.5844 61.7537 47.7085 61.8525C47.6377 61.768 47.7267 61.5834 47.8756 61.4807C47.9705 61.417 48.0368 61.376 48.0478 61.3195L48.1856 60.5759V60.5752C48.2259 60.4582 47.8242 60.2236 47.2581 60.0149V58.2638C47.3954 58.3132 47.5163 58.367 47.6208 58.425C47.5096 58.4367 47.3848 58.4517 47.2574 58.4517L47.2587 59.1667C47.6728 59.1361 47.9549 59.0263 47.9874 58.8534L47.9822 58.8781L48.3215 58.0955C48.3683 57.8452 47.9217 57.5521 47.2568 57.3558V55.5267H47.5285V54.4002H45.4829V55.5267H45.7657V57.1432ZM36.5266 52.8994L36.797 53.9238C37.5172 54.1402 38.5247 54.2735 39.6511 54.2754C40.7756 54.2741 41.7831 54.1402 42.5033 53.9238L42.7822 52.8825C43.2729 52.7505 43.6961 52.4288 44.0464 51.7443L44.0627 51.7716C44.0627 51.7716 44.7257 50.8909 43.8599 50.1382C43.6168 49.9269 43.1208 49.7852 42.6216 49.7852C42.4247 49.7852 42.2336 49.8067 42.0587 49.8463C42.0854 49.8749 41.7071 49.3159 40.8094 49.3159C40.4922 49.3159 40.2023 49.3939 39.9794 49.5239L39.9742 49.4862C39.9569 49.4236 39.9217 49.3674 39.8728 49.3247C39.8239 49.2819 39.7636 49.2545 39.6992 49.2457C39.7657 49.238 39.8293 49.2138 39.8841 49.1753C39.9389 49.1368 39.9833 49.0853 40.0132 49.0254L40.0164 49.0228L40.0489 48.8733L40.0463 48.8655C40.0428 48.783 40.0128 48.7038 39.9606 48.6397C39.9085 48.5757 39.8371 48.5301 39.7571 48.5099V48.2122H39.9807V48.001H39.7571V47.793H39.5348V48.001H39.3125V48.2122H39.5348V48.508C39.3638 48.5528 39.2351 48.6958 39.2351 48.8733L39.2663 49.0228L39.2689 49.0254H39.2696C39.2992 49.085 39.3432 49.1363 39.3975 49.1747C39.4518 49.2132 39.5148 49.2376 39.5809 49.2457C39.4451 49.2685 39.3287 49.3614 39.2995 49.4869L39.2943 49.5239C39.0411 49.3841 38.756 49.3126 38.4668 49.3166C37.588 49.3166 37.1909 49.8749 37.2175 49.847C37.0322 49.8061 36.843 49.7856 36.6533 49.7859C33.9311 49.7859 35.0043 51.4733 35.1869 51.7352C35.5561 52.4561 36.0046 52.7785 36.5266 52.8994ZM42.6216 49.9386C43.9671 49.9581 44.2057 50.8233 43.9483 51.236C43.5089 50.939 42.8784 50.7225 42.1965 50.5743C42.2626 50.3795 42.2491 50.1664 42.1588 49.9815C42.3038 49.9542 42.4611 49.9367 42.6216 49.9386ZM40.8094 49.468C41.7825 49.468 42.0574 50.0751 41.8975 50.5126C41.2475 50.3904 40.5904 50.3234 40.0541 50.2994C40.0249 50.0225 40.0041 49.7326 40.0002 49.6936C40.203 49.5545 40.4896 49.468 40.8094 49.468ZM38.4675 49.468C38.786 49.468 39.072 49.5545 39.2754 49.6929C39.2715 49.7326 39.2507 50.0212 39.2208 50.2981C38.7041 50.3182 38.0697 50.3813 37.4307 50.497C37.3059 50.0621 37.5321 49.468 38.4675 49.468ZM39.6472 53.5357C40.6632 53.537 41.5855 53.6475 42.2849 53.8289C41.5862 54.0089 40.6638 54.1266 39.6472 54.1279C38.6319 54.1272 37.7141 54.0089 37.0154 53.8289C37.7148 53.6475 38.6326 53.537 39.6472 53.5357ZM36.654 49.9386C36.8158 49.9386 36.9718 49.9536 37.1168 49.9822C37.0554 50.0672 37.0152 50.1656 36.9992 50.2692C36.9833 50.3728 36.9922 50.4787 37.0251 50.5782C36.3797 50.7206 35.7778 50.9227 35.3442 51.1977C34.8736 50.4125 35.456 49.9386 36.654 49.9386ZM43.2502 54.85C43.1059 55.539 43.0253 55.9921 43.1813 56.6986C43.2729 57.1081 42.9031 57.4513 42.5651 57.0698C42.3662 56.8468 42.3116 56.3652 42.203 56.3268C42.7783 56.5283 42.7796 55.5858 42.6164 55.2004V55.2017C42.3402 54.8721 41.9079 54.6745 41.5524 54.9995C41.4074 55.138 41.8507 55.2413 41.8644 55.2875C41.9599 55.6079 41.5647 55.4116 41.5238 55.5553C41.4789 55.7152 41.6973 55.9063 41.1676 55.8419C40.7594 55.7925 40.5936 55.4896 40.6482 55.1744C40.6482 55.1744 40.3024 55.3577 40.2725 55.4805C40.1614 55.9355 40.9056 56.2319 41.059 56.3944C40.8432 56.6382 40.6664 56.633 40.4311 56.5283C40.2179 56.4321 40.4337 57.1179 40.4337 57.1179C41.1156 57.0639 41.3613 56.7571 41.4672 56.6759C41.5673 56.9632 41.8059 57.2472 42.1036 57.2492C41.2937 57.244 41.6206 57.762 41.6206 57.762C41.5868 58.2086 41.4087 57.8875 41.2124 57.7939C41.0077 57.6977 40.5949 58.3678 41.2963 58.425C41.3002 58.425 41.5647 58.3145 41.6668 58.3145C42.2739 58.3145 41.5517 57.6834 42.1913 57.7165C42.1361 57.8452 42.7841 57.9206 42.5547 58.6577C42.5547 58.6577 42.3766 59.0913 42.9174 58.8969C42.816 58.934 43.0415 58.1124 43.0467 58.1189C42.8387 57.9193 42.5365 57.5241 43.0363 57.4091C43.7903 57.2362 43.1215 56.3717 43.1676 55.9277C43.1884 55.7217 43.5407 55.4136 43.6532 55.2283C43.581 55.2212 43.5953 54.9651 43.6818 54.7811C43.5693 54.9261 43.2612 54.9423 43.2502 54.85ZM39.551 64.2224L39.6992 64.563L39.8487 64.2224L39.7005 63.8818L39.551 64.2224ZM41.867 61.9487L40.63 63.185L41.867 63.7498V61.9487ZM42.0841 61.9487V63.7498L43.3217 63.185L42.0841 61.9487ZM43.4081 62.9633V60.4062L42.1302 61.6841L43.4081 62.9633ZM42.0841 60.3094V61.4202L43.1962 60.3094H42.0841Z" fill="#FF5400"/>
<path d="M31.1405 60.5713L31.279 61.3156C31.2907 61.3721 31.355 61.4131 31.4506 61.4768C31.5994 61.5795 31.6885 61.7641 31.6189 61.8486C31.6823 61.7983 31.7333 61.7341 31.768 61.661C31.8027 61.5878 31.82 61.5077 31.8188 61.4268C31.8175 61.3459 31.7977 61.2663 31.7607 61.1943C31.7238 61.1222 31.6709 61.0597 31.6059 61.0114C31.7538 60.9263 31.9091 60.8549 32.07 60.7982V62.8197H33.5618V60.1397C33.9992 59.881 34.2748 59.6412 34.2228 59.543L34.1214 58.8313C34.1214 58.8215 34.1266 58.8105 34.1227 58.8014L34.1143 58.7858C34.0168 58.7065 33.8231 58.6428 33.5644 58.6038L33.5618 59.3214V57.9895L33.5722 57.9889C34.1929 58.0097 34.7298 58.1065 35.06 58.2359V59.4137H35.0587V59.4481H35.58V63.8434C35.7211 64.0085 35.8803 64.1593 36.0662 64.2796V59.4221H36.607L36.62 64.5331C36.7717 64.5821 36.9296 64.6159 37.0939 64.6345V59.4221H37.6334V64.6358C37.7942 64.6187 37.953 64.5853 38.1072 64.5363L38.1209 59.4221H38.1872C38.1891 59.8664 38.3583 60.2936 38.661 60.6188V64.2828C38.8534 64.158 39.0172 64.0001 39.1622 63.8278L39.1531 60.962C39.313 61.0296 39.4846 61.0705 39.6646 61.0725V62.4745C39.6646 63.6822 40.7001 64.6611 41.9747 64.6611C43.2507 64.6611 44.2855 63.6822 44.2855 62.4745V59.4137H41.1661L41.1681 59.3948C41.1681 58.4679 40.5005 57.7165 39.6763 57.7165L39.6633 57.7178V54.3047H35.0594V57.3376C34.7253 57.218 34.1858 57.14 33.565 57.14H33.5611V55.5228H33.8426V54.3963H31.797V55.5228H32.0694V57.3512C31.4044 57.5482 30.9566 57.8413 31.0034 58.0916L31.342 58.8742L31.3375 58.8495C31.3713 59.023 31.6527 59.1329 32.0661 59.1628L32.0694 58.4471C31.9413 58.4471 31.8159 58.4322 31.706 58.4205C31.8094 58.3626 31.9322 58.3087 32.0694 58.2586V60.0097C31.5013 60.2197 31.1009 60.4543 31.1405 60.5713ZM41.8207 61.6796L40.7222 60.5817C40.7703 60.5271 40.8149 60.4686 40.8561 60.4062L41.8675 61.4163L41.8662 60.3055H40.9224C40.964 60.2357 41.0008 60.1627 41.0329 60.0864H43.627V63.2779L42.0846 63.9877V63.989H41.8675V63.9877L40.3244 63.2779V60.9002C40.4011 60.8582 40.4739 60.8095 40.5428 60.754V62.9594L41.8207 61.6796ZM40.156 58.5433L40.431 59.244L40.2451 59.3084L40.3309 59.5515H39.9831L40.0709 59.3084L39.8843 59.244L40.156 58.5433ZM39.6679 59.3825L39.9428 60.0832L39.7569 60.1482L39.8447 60.3906H39.4963L39.5821 60.1482L39.3968 60.0832L39.6679 59.3825ZM39.1797 58.5433L39.4547 59.244L39.2688 59.3084L39.3552 59.5515H39.0081L39.0946 59.3084L38.9093 59.244L39.1797 58.5433ZM36.0662 58.009H36.4055V56.6518H36.2359V55.9732H36.5537V55.7399H36.4049V55.4006H37.0406V55.7399H36.8917V55.9732H37.2102V55.2309H37.0399V54.8916H37.6984V55.2309H37.5294V55.9732H37.8479V55.7399H37.699V55.4006H38.3347V55.7399H38.1859V55.9732H38.5037V56.6518H38.3354V58.009H38.6747V58.1579C38.5203 58.3164 38.3987 58.5037 38.3165 58.7091H36.0662V58.009Z" fill="#FF5400"/>
</svg>
