<svg width="18" height="18" viewBox="0 0 18 18" fill="none" xmlns="http://www.w3.org/2000/svg">
<g clip-path="url(#clip0_626_22)">
<rect width="18" height="18" rx="9" fill="white"/>
<path fill-rule="evenodd" clip-rule="evenodd" d="M-3 0V18H21V0H-3Z" fill="#FFB400"/>
<mask id="mask0_626_22" style="mask-type:luminance" maskUnits="userSpaceOnUse" x="-3" y="0" width="24" height="18">
<path fill-rule="evenodd" clip-rule="evenodd" d="M-3 0V18H21V0H-3Z" fill="white"/>
</mask>
<g mask="url(#mask0_626_22)">
<path fill-rule="evenodd" clip-rule="evenodd" d="M-3 0V4.5H21V0H-3ZM-3 13.5V18H21V13.5H-3Z" fill="#C51918"/>
<path d="M0.757812 7.7041H1.59781V12.0721H0.757812V7.7041Z" fill="#F1F9FF"/>
<path fill-rule="evenodd" clip-rule="evenodd" d="M1.93388 6.948H0.421875V7.368H0.673875V7.704H1.68187V7.368H1.93388V6.948ZM1.68187 12.324H1.93388V12.744H0.421875V12.324H0.673875V11.988H1.68187V12.324Z" fill="#C88A02"/>
<path fill-rule="evenodd" clip-rule="evenodd" d="M1.17784 7.03191C1.36009 7.03191 1.37884 6.96291 1.48684 6.86016C1.57084 6.78066 1.76584 6.68166 1.76584 6.56991C1.76584 6.31491 1.50259 6.10791 1.17784 6.10791C0.853094 6.10791 0.589844 6.31491 0.589844 6.56991C0.589844 6.69441 0.724094 6.77766 0.825344 6.86016C0.932594 6.94791 1.01134 7.03191 1.17784 7.03191Z" fill="#AD1619"/>
<path fill-rule="evenodd" clip-rule="evenodd" d="M0.421875 12.7439H1.93388V13.4159C1.93388 13.4159 1.74488 13.3319 1.55588 13.3319C1.36688 13.3319 1.17787 13.4159 1.17787 13.4159C1.17787 13.4159 0.988875 13.3319 0.799875 13.3319C0.610875 13.3319 0.421875 13.4159 0.421875 13.4159V12.7439Z" fill="#005BBF"/>
<mask id="mask1_626_22" style="mask-type:luminance" maskUnits="userSpaceOnUse" x="0" y="12" width="2" height="2">
<path fill-rule="evenodd" clip-rule="evenodd" d="M0.421875 12.7439H1.93388V13.4159C1.93388 13.4159 1.74488 13.3319 1.55588 13.3319C1.36688 13.3319 1.17787 13.4159 1.17787 13.4159C1.17787 13.4159 0.988875 13.3319 0.799875 13.3319C0.610875 13.3319 0.421875 13.4159 0.421875 13.4159V12.7439Z" fill="white"/>
</mask>
<g mask="url(#mask1_626_22)">
<path d="M0.408 13.2838L0.375 13.2035C0.51075 13.1428 0.64725 13.112 0.7845 13.112C0.873 13.112 0.9195 13.1248 0.9975 13.1593C1.05308 13.1879 1.11503 13.2018 1.1775 13.1998C1.23997 13.2018 1.30192 13.1879 1.3575 13.1593C1.42348 13.1261 1.49668 13.1099 1.5705 13.112C1.70775 13.112 1.84425 13.142 1.98075 13.2035L1.94775 13.2838C1.82936 13.2294 1.70078 13.2008 1.5705 13.1998C1.50803 13.1978 1.44608 13.2117 1.3905 13.2403C1.32452 13.2735 1.25132 13.2897 1.1775 13.2875C1.10368 13.2897 1.03048 13.2735 0.9645 13.2403C0.90892 13.2117 0.846968 13.1978 0.7845 13.1998C0.65925 13.1998 0.534 13.2275 0.408 13.2838ZM0.408 13.0318L0.375 12.9515C0.51075 12.8908 0.64725 12.8608 0.7845 12.8608C0.873 12.8608 0.9195 12.8728 0.9975 12.908C1.05315 12.9364 1.1151 12.95 1.1775 12.9478C1.2399 12.95 1.30185 12.9364 1.3575 12.908C1.42348 12.8748 1.49668 12.8586 1.5705 12.8608C1.70775 12.8608 1.84425 12.8908 1.98075 12.9508L1.94775 13.0318C1.82936 12.9774 1.70078 12.9488 1.5705 12.9478C1.50803 12.9458 1.44608 12.9597 1.3905 12.9883C1.32452 13.0215 1.25132 13.0377 1.1775 13.0355C1.10368 13.0377 1.03048 13.0215 0.9645 12.9883C0.90892 12.9597 0.846968 12.9458 0.7845 12.9478C0.65925 12.9478 0.534 12.9755 0.408 13.0318Z" fill="white"/>
</g>
<path d="M8.98828 7.7041H9.82828V12.0721H8.98828V7.7041Z" fill="#F1F9FF"/>
<path fill-rule="evenodd" clip-rule="evenodd" d="M10.1643 6.948H8.65234V7.368H8.90434V7.704H9.91234V7.368H10.1643V6.948ZM9.91234 12.324H10.1643V12.744H8.65234V12.324H8.90434V11.988H9.91234V12.324Z" fill="#C88A02"/>
<path fill-rule="evenodd" clip-rule="evenodd" d="M9.40831 7.03191C9.59131 7.03191 9.60931 6.96291 9.71731 6.86016C9.80131 6.78066 9.99631 6.68166 9.99631 6.56991C9.99631 6.31491 9.73306 6.10791 9.40831 6.10791C9.08356 6.10791 8.82031 6.31491 8.82031 6.56991C8.82031 6.69441 8.95456 6.77766 9.05581 6.86016C9.16306 6.94791 9.24181 7.03191 9.40831 7.03191Z" fill="#AD1619"/>
<path fill-rule="evenodd" clip-rule="evenodd" d="M8.65234 12.7439H10.1643V13.4159C10.1643 13.4159 9.97534 13.3319 9.78634 13.3319C9.59734 13.3319 9.40834 13.4159 9.40834 13.4159C9.40834 13.4159 9.21934 13.3319 9.03034 13.3319C8.84134 13.3319 8.65234 13.4159 8.65234 13.4159V12.7439Z" fill="#005BBF"/>
<mask id="mask2_626_22" style="mask-type:luminance" maskUnits="userSpaceOnUse" x="8" y="12" width="3" height="2">
<path fill-rule="evenodd" clip-rule="evenodd" d="M8.65234 12.7439H10.1643V13.4159C10.1643 13.4159 9.97534 13.3319 9.78634 13.3319C9.59734 13.3319 9.40834 13.4159 9.40834 13.4159C9.40834 13.4159 9.21934 13.3319 9.03034 13.3319C8.84134 13.3319 8.65234 13.4159 8.65234 13.4159V12.7439Z" fill="white"/>
</mask>
<g mask="url(#mask2_626_22)">
<path d="M8.63847 13.2838L8.60547 13.2036C8.74122 13.1428 8.87772 13.1121 9.01497 13.1121C9.10347 13.1121 9.14997 13.1248 9.22797 13.1593C9.28355 13.1879 9.3455 13.2018 9.40797 13.1998C9.47044 13.2018 9.53239 13.1879 9.58797 13.1593C9.65417 13.126 9.72765 13.1098 9.80172 13.1121C9.93822 13.1121 10.0747 13.1421 10.2112 13.2036L10.1782 13.2838C10.0598 13.2294 9.93125 13.2008 9.80097 13.1998C9.7385 13.1978 9.67655 13.2117 9.62097 13.2403C9.55499 13.2735 9.48179 13.2897 9.40797 13.2876C9.33415 13.2897 9.26094 13.2735 9.19497 13.2403C9.13939 13.2117 9.07744 13.1978 9.01497 13.1998C8.88972 13.1998 8.76447 13.2276 8.63847 13.2838ZM8.63847 13.0318L8.60547 12.9516C8.74122 12.8908 8.87772 12.8608 9.01497 12.8608C9.10347 12.8608 9.14997 12.8728 9.22797 12.9081C9.28362 12.9364 9.34557 12.9501 9.40797 12.9478C9.47037 12.9501 9.53232 12.9364 9.58797 12.9081C9.65417 12.8747 9.72765 12.8585 9.80172 12.8608C9.93822 12.8608 10.0747 12.8908 10.2112 12.9508L10.1782 13.0318C10.0598 12.9774 9.93125 12.9488 9.80097 12.9478C9.7385 12.9458 9.67655 12.9597 9.62097 12.9883C9.55499 13.0215 9.48179 13.0377 9.40797 13.0356C9.33415 13.0377 9.26094 13.0215 9.19497 12.9883C9.13938 12.9598 9.07743 12.9458 9.01497 12.9478C8.88972 12.9478 8.76447 12.9756 8.63847 13.0318Z" fill="white"/>
</g>
<path fill-rule="evenodd" clip-rule="evenodd" d="M9.52768 11.232C9.52768 11.409 9.61243 11.577 9.76393 11.76L10.2792 11.3347L10.3287 11.3197L10.3564 11.1045C10.4067 10.707 10.2364 10.4872 9.88768 10.3282L9.86368 10.3177C9.81568 10.2967 9.71068 10.2502 9.67618 10.2337C9.60886 10.2025 9.54458 10.1651 9.48418 10.122C9.42334 10.0782 9.36025 10.0376 9.29518 10.0005C9.72793 9.93147 9.96193 9.88047 10.1412 9.80247C10.5709 9.61722 10.6257 9.18747 10.2132 8.90397C9.65068 8.51622 8.14468 8.48172 7.48318 8.82297L7.79218 9.41997C8.11618 9.25272 8.85343 9.22122 9.37018 9.30747C9.19814 9.33777 9.02562 9.36528 8.85268 9.38997L8.80993 9.39597C8.60368 9.42822 8.46268 9.46872 8.35843 9.53997C8.30988 9.57059 8.26847 9.61128 8.237 9.65928C8.20552 9.70728 8.1847 9.76147 8.17596 9.8182C8.16722 9.87493 8.17074 9.93288 8.18631 9.98813C8.20187 10.0434 8.22911 10.0946 8.26618 10.1385C8.32993 10.2202 8.41393 10.281 8.54068 10.3545C8.58193 10.3777 8.62543 10.4017 8.68468 10.4332L8.71468 10.4497L8.82868 10.5097C8.95018 10.575 9.02968 10.6222 9.08893 10.6657C9.18118 10.7332 9.27643 10.788 9.38518 10.8397C9.44293 10.8675 9.61018 10.9402 9.60943 10.9402L9.61918 10.9447C9.55823 11.028 9.52611 11.1288 9.52768 11.232ZM0.739181 11.76C0.890681 11.5762 0.975431 11.409 0.975431 11.232C0.976732 11.1287 0.944346 11.0279 0.883181 10.9447L0.893681 10.9402C0.892181 10.9402 1.05943 10.8675 1.11793 10.8397C1.22186 10.791 1.32103 10.7328 1.41418 10.6657C1.47343 10.6222 1.55293 10.5757 1.67368 10.5105L1.78768 10.4505L1.81768 10.4332C1.86619 10.4079 1.9142 10.3817 1.96168 10.3545C2.08918 10.281 2.17168 10.2195 2.23618 10.1385C2.27325 10.0946 2.30049 10.0434 2.31605 9.98813C2.33162 9.93288 2.33515 9.87493 2.3264 9.8182C2.31766 9.76147 2.29684 9.70728 2.26537 9.65928C2.23389 9.61128 2.19248 9.57059 2.14393 9.53997C2.03968 9.46872 1.89868 9.42822 1.69243 9.39597L1.64968 9.38997L1.39768 9.35022C1.30906 9.33646 1.22056 9.32196 1.13218 9.30672C1.64893 9.22122 2.38618 9.25272 2.71093 9.41997L3.01843 8.82297C2.35843 8.48172 0.851681 8.51622 0.289181 8.90397C-0.123319 9.18822 -0.067819 9.61722 0.361181 9.80247C0.541181 9.87972 0.774431 9.93147 1.20718 10.0005C1.14236 10.0377 1.07953 10.0782 1.01893 10.122C0.958561 10.1653 0.894283 10.203 0.826931 10.2345C0.764709 10.2626 0.702206 10.2901 0.639431 10.317L0.615431 10.3282C0.265181 10.4872 0.0956809 10.707 0.146681 11.1045L0.173681 11.3197L0.223181 11.3347L0.739181 11.76Z" fill="#AD1619"/>
<path d="M1.44406 9.30005L1.69156 9.35105V9.7208C1.42831 9.93155 0.757812 10.287 0.757812 10.287V9.30005H1.44406ZM9.23806 9.30005L8.98981 9.35105V9.7208C9.25381 9.93155 9.92431 10.287 9.92431 10.287V9.30005H9.23806Z" fill="#F1F9FF"/>
<path fill-rule="evenodd" clip-rule="evenodd" d="M8.08359 5.40454V5.28154C7.65159 4.97179 7.19859 4.81654 6.72609 4.81654C6.29536 4.61981 5.82059 4.53938 5.34909 4.58329V4.58104C4.65159 4.51279 3.94734 4.81654 3.94734 4.81654C3.23859 4.81654 2.58984 5.28154 2.58984 5.28154V5.40454L3.43734 6.25579C3.43734 6.25579 3.67584 7.07479 5.34609 6.88204V6.88429C5.34609 6.88429 6.45159 6.85429 6.52959 6.82804L6.62484 6.79879C6.84234 6.73579 7.08909 6.66379 7.23609 6.25579L8.08359 5.40454ZM5.34609 4.62079C5.32209 4.90429 5.18409 6.61204 5.34609 6.87679V4.62004V4.62079Z" fill="#AD1619"/>
<path fill-rule="evenodd" clip-rule="evenodd" d="M3.23537 6.1126L3.23613 6.1096L2.64062 5.5486L2.69763 5.48785L3.25713 6.0136L3.27213 5.94835C3.33626 5.96496 3.4024 5.97254 3.46862 5.97085V5.85685L3.59312 5.92435C3.65312 5.95735 3.74088 5.96635 3.85563 5.94685C3.94038 5.93335 3.99813 5.8351 4.01613 5.6266L4.05363 5.20435L4.18037 5.60935C4.23737 5.7916 4.32438 5.8726 4.44813 5.8726C4.56963 5.8726 4.61837 5.8276 4.62362 5.71585L4.63863 5.3986L4.78263 5.6821C4.83438 5.7841 4.90562 5.8306 5.00762 5.8306C5.15237 5.8306 5.24913 5.70985 5.24913 5.5201H5.42012C5.42012 5.70985 5.51688 5.8306 5.66163 5.8306C5.76288 5.8306 5.83412 5.78485 5.88662 5.6821L6.02987 5.3986L6.04488 5.71585C6.05088 5.82835 6.09888 5.8726 6.22038 5.8726C6.34413 5.8726 6.43188 5.7916 6.48888 5.6086L6.61488 5.20435L6.65238 5.6266C6.67113 5.8351 6.72813 5.9341 6.81288 5.9476C6.92763 5.96635 7.01537 5.95735 7.07537 5.92435L7.19987 5.85685V5.97085C7.26635 5.97261 7.33275 5.96503 7.39713 5.94835L7.42412 6.0706L8.04287 5.48785L8.10063 5.54935L7.33037 6.27385C7.21787 6.48085 7.16087 6.61735 7.16087 6.67435C7.16087 6.7606 6.93588 6.81235 6.49638 6.86485C6.15138 6.9061 5.74487 6.93385 5.41262 6.93835H5.32863C4.96637 6.93195 4.60467 6.90742 4.24488 6.86485C3.80538 6.81235 3.57963 6.7606 3.57963 6.67435C3.5792 6.66066 3.57718 6.64707 3.57362 6.63385C3.52702 6.56322 3.49442 6.48428 3.47762 6.40135C3.45585 6.35846 3.43335 6.31596 3.41012 6.27385L3.23988 6.11335L3.23537 6.1126ZM7.36488 6.1261C7.22688 6.1501 7.12787 6.14785 7.07537 6.1051C6.98063 6.12905 6.88174 6.13161 6.78587 6.1126C6.66737 6.09385 6.58562 6.0151 6.53612 5.88535C6.47719 5.96483 6.38989 6.01855 6.29237 6.03535C6.83012 6.11035 7.20662 6.21835 7.20662 6.21835C7.20662 6.21835 7.19687 6.29785 7.17437 6.39085C7.19837 6.3421 7.22687 6.2881 7.25987 6.2281L7.26738 6.2176L7.36488 6.1261ZM6.03887 6.0031C5.99314 5.98073 5.95466 5.94589 5.92787 5.9026C5.88834 5.9377 5.84182 5.96403 5.79137 5.97985C5.87612 5.98585 5.95862 5.99485 6.03887 6.0031ZM5.49513 5.96335C5.42936 5.93247 5.37371 5.88358 5.33463 5.82235C5.29581 5.88306 5.24071 5.93166 5.17562 5.9626L5.29112 5.96035H5.35863C5.40363 5.96035 5.44938 5.96185 5.49513 5.96335ZM3.46712 6.21085L3.38912 6.1381C3.48287 6.1471 3.55263 6.1381 3.59388 6.1051C3.67638 6.1291 3.77238 6.13135 3.88338 6.1126C4.00113 6.09385 4.08287 6.0151 4.13237 5.88535C4.18977 5.96217 4.27373 6.01485 4.36787 6.0331C3.90438 6.09835 3.55862 6.1861 3.46712 6.21085ZM4.87413 5.97835C4.79426 5.98455 4.7145 5.99205 4.63487 6.00085C4.67871 5.97847 4.71555 5.94449 4.74138 5.9026C4.77969 5.93706 4.82496 5.96289 4.87413 5.97835ZM6.94038 6.67585C6.99888 6.7036 7.04612 6.67585 7.08287 6.62335C7.08015 6.63645 7.07839 6.64973 7.07762 6.6631C7.07048 6.66751 7.06295 6.67128 7.05513 6.67435C7.0144 6.68965 6.97251 6.70169 6.92988 6.71035C6.78315 6.74146 6.63497 6.76524 6.48588 6.7816C6.13038 6.82435 5.70662 6.85285 5.37062 6.8551C4.99759 6.8502 4.62508 6.82566 4.25462 6.7816C4.10556 6.76507 3.95738 6.74129 3.81062 6.71035C3.77331 6.70256 3.73649 6.69255 3.70037 6.68035C3.70343 6.67896 3.70644 6.67746 3.70937 6.67585C3.89312 6.59035 5.10588 6.50935 5.32487 6.49585C5.54313 6.50935 6.75738 6.59035 6.94038 6.67585Z" fill="#C88A02"/>
<path fill-rule="evenodd" clip-rule="evenodd" d="M5.33403 4.01035C5.40087 4.01035 5.46496 3.9838 5.51222 3.93654C5.55948 3.88928 5.58603 3.82518 5.58603 3.75835C5.58603 3.69151 5.55948 3.62742 5.51222 3.58016C5.46496 3.5329 5.40087 3.50635 5.33403 3.50635C5.2672 3.50635 5.2031 3.5329 5.15584 3.58016C5.10858 3.62742 5.08203 3.69151 5.08203 3.75835C5.08203 3.82518 5.10858 3.88928 5.15584 3.93654C5.2031 3.9838 5.2672 4.01035 5.33403 4.01035Z" fill="#005BBF"/>
<path fill-rule="evenodd" clip-rule="evenodd" d="M5.17058 5.24786C5.17551 5.27422 5.18357 5.29991 5.19458 5.32436C5.15861 5.31087 5.1205 5.30401 5.08208 5.30411C4.96658 5.30411 4.87208 5.36111 4.87208 5.43011C4.87208 5.49986 4.96658 5.55611 5.08208 5.55611C5.19833 5.55611 5.29208 5.49986 5.29208 5.43011C5.29208 5.49986 5.38658 5.55611 5.50208 5.55611C5.61833 5.55611 5.71208 5.49986 5.71208 5.43011C5.71208 5.36111 5.61833 5.30411 5.50208 5.30411C5.47425 5.30416 5.44654 5.30769 5.41958 5.31461C5.42604 5.27659 5.42553 5.2377 5.41808 5.19986C5.39558 5.08586 5.32283 5.00486 5.25383 5.01761C5.18633 5.03111 5.14883 5.13386 5.17058 5.24786ZM3.93458 5.40761C3.9236 5.3834 3.91554 5.35798 3.91058 5.33186C3.88808 5.21786 3.92558 5.11436 3.99458 5.10161C4.06208 5.08811 4.13558 5.16911 4.15808 5.28386C4.16558 5.32436 4.16558 5.36411 4.16033 5.39861C4.18728 5.39169 4.215 5.38816 4.24283 5.38811C4.35833 5.38811 4.45283 5.44511 4.45283 5.51411C4.45283 5.58386 4.35833 5.64011 4.24283 5.64011C4.12658 5.64011 4.03283 5.58386 4.03283 5.51411C4.03283 5.58386 3.93833 5.64011 3.82283 5.64011C3.70658 5.64011 3.61283 5.58386 3.61283 5.51411C3.61283 5.44511 3.70658 5.38811 3.82283 5.38811C3.86408 5.38811 3.90233 5.39561 3.93533 5.40836L3.93458 5.40761ZM6.56558 5.48486C6.55583 5.55386 6.45533 5.59661 6.34058 5.58011C6.22583 5.56436 6.14033 5.49536 6.15008 5.42636C6.15983 5.35736 6.26033 5.31461 6.37508 5.33111C6.41337 5.33587 6.45048 5.34756 6.48458 5.36561C6.4767 5.34003 6.47191 5.31359 6.47033 5.28686C6.46433 5.17136 6.51533 5.07461 6.58583 5.07086C6.65483 5.06711 6.71633 5.15786 6.72233 5.27336C6.72486 5.31211 6.72028 5.351 6.70883 5.38811C6.73629 5.38517 6.764 5.38568 6.79133 5.38961C6.90608 5.40536 6.99158 5.47436 6.98183 5.54336C6.97208 5.61236 6.87083 5.65511 6.75683 5.63861C6.64133 5.62286 6.55583 5.55386 6.56558 5.48486ZM7.36583 5.81786C7.46783 5.87261 7.57733 5.86661 7.61033 5.80511L7.61183 5.80211C7.62166 5.81262 7.63407 5.82038 7.64783 5.82461C7.71383 5.84486 7.79558 5.77211 7.82933 5.66036C7.86308 5.54936 7.83683 5.44286 7.77008 5.42261C7.70408 5.40236 7.62233 5.47586 7.58858 5.58686C7.58044 5.61242 7.57541 5.63886 7.57358 5.66561C7.548 5.63716 7.51751 5.61354 7.48358 5.59586C7.38158 5.54111 7.27208 5.54636 7.23908 5.60786C7.20683 5.66936 7.26308 5.76386 7.36583 5.81786ZM3.24383 5.84336C3.14183 5.89811 3.03233 5.89286 2.99933 5.83136L2.99783 5.82761C2.98802 5.83815 2.9756 5.84591 2.96183 5.85011C2.89583 5.87036 2.81408 5.79761 2.78033 5.68661C2.74658 5.57561 2.77283 5.46911 2.83958 5.44886C2.90558 5.42861 2.98733 5.50136 3.02108 5.61236C3.02921 5.63792 3.03425 5.66436 3.03608 5.69111C3.06164 5.66264 3.09213 5.63901 3.12608 5.62136C3.22808 5.56661 3.33758 5.57261 3.37058 5.63411C3.40283 5.69561 3.34658 5.78861 3.24383 5.84336ZM5.24033 3.05786H5.41583V3.16811H5.52983V3.34286H5.41583V3.69311H5.52983V3.86786H5.12483V3.69311H5.24033V3.34286H5.12408V3.16811H5.24033V3.05786Z" fill="#C88A02"/>
<path d="M5.20703 4.00806H5.54303V5.10006H5.20703V4.00806Z" fill="#C88A02"/>
<path d="M3.85452 4.19101L3.85302 4.275C3.10827 4.2615 2.68077 4.37026 2.57277 4.58701C2.46027 4.81126 2.48127 5.0835 2.63877 5.40675L2.56302 5.44425C2.39502 5.0985 2.37252 4.79925 2.49777 4.5495C2.62602 4.29225 3.07752 4.17751 3.85452 4.19101Z" fill="white"/>
<path d="M3.99744 4.93497L3.95469 5.00772C3.79194 4.91097 3.71094 4.74522 3.71094 4.51797C3.71094 4.19022 3.87969 3.99822 4.25244 3.86697C4.49094 3.78372 4.81569 3.81747 5.22894 3.96747L5.20044 4.04622C4.80369 3.90297 4.49694 3.86997 4.28094 3.94647C3.93819 4.06647 3.79494 4.22997 3.79494 4.51797C3.79494 4.71747 3.86244 4.85547 3.99744 4.93572V4.93497Z" fill="white"/>
<path d="M2.74558 5.27774L2.58658 5.33399C2.42233 4.86524 2.46958 4.54724 2.75083 4.40999C2.99833 4.28999 3.35833 4.24049 3.83458 4.25999L3.82783 4.42724C3.37783 4.40924 3.04258 4.45499 2.82433 4.56149C2.63983 4.65149 2.60533 4.88024 2.74558 5.27774Z" fill="#C88A02"/>
<path d="M4.5953 4.07913C4.2113 4.07913 4.05305 4.17288 3.96305 4.44888C3.90605 4.62513 3.96155 4.77513 4.1423 4.91538L4.0388 5.04813C3.80555 4.86663 3.72305 4.64388 3.8033 4.39638C3.91805 4.04463 4.1438 3.91113 4.5953 3.91113C4.89155 3.91113 5.1218 3.98913 5.2823 4.14663L5.30705 4.17138V4.98138H5.13905V4.24338C5.0138 4.13463 4.8338 4.07838 4.5953 4.07838V4.07913Z" fill="#C88A02"/>
<path d="M6.78591 4.27499L6.78741 4.35899C7.53216 4.34549 7.95966 4.45424 8.06766 4.67099C8.18016 4.89524 8.15916 5.16749 8.00166 5.49074L8.07741 5.52749C8.24541 5.18249 8.26791 4.88324 8.14266 4.63349C8.01441 4.37624 7.56291 4.26149 6.78591 4.27499Z" fill="white"/>
<path d="M6.52447 4.95288L6.56797 5.02563C6.72997 4.92813 6.81097 4.76313 6.81097 4.53513C6.81097 4.20813 6.64222 4.01613 6.26947 3.88488C6.03097 3.80088 5.70622 3.83538 5.29297 3.98538L5.32147 4.06413C5.71822 3.92013 6.02497 3.88788 6.24172 3.96363C6.58372 4.08438 6.72697 4.24788 6.72697 4.53513C6.72697 4.73538 6.65947 4.87263 6.52447 4.95288Z" fill="white"/>
<path d="M7.94912 5.36249L8.10738 5.41724C8.27238 4.94924 8.22512 4.63124 7.94387 4.49474C7.69637 4.37324 7.33562 4.32374 6.85938 4.34324L6.86688 4.51124C7.31688 4.49324 7.65213 4.53899 7.87038 4.64474C8.05488 4.73474 8.08862 4.96499 7.94912 5.36249Z" fill="#C88A02"/>
<path d="M6.0875 4.09207C6.4715 4.09207 6.629 4.18582 6.719 4.46182C6.77675 4.63807 6.72125 4.78807 6.5405 4.92832L6.64325 5.06107C6.87725 4.87957 6.95975 4.65682 6.87875 4.40932C6.764 4.05757 6.539 3.92407 6.0875 3.92407C5.79125 3.92407 5.561 4.00207 5.4005 4.16032L5.375 4.18432V4.99432H5.543V4.25632C5.669 4.14757 5.849 4.09132 6.0875 4.09132V4.09207Z" fill="#C88A02"/>
<path opacity="0.3" fill-rule="evenodd" clip-rule="evenodd" d="M2.60547 6.948H8.06547V11.8537C8.06547 11.8537 7.65897 13.5 5.33547 13.5C3.01047 13.5 2.60547 11.8102 2.60547 11.8102V6.948Z" fill="#E1E5E8"/>
<mask id="mask3_626_22" style="mask-type:luminance" maskUnits="userSpaceOnUse" x="2" y="6" width="7" height="8">
<path fill-rule="evenodd" clip-rule="evenodd" d="M2.60547 6.948H8.06547V11.8537C8.06547 11.8537 7.65897 13.5 5.33547 13.5C3.01047 13.5 2.60547 11.8102 2.60547 11.8102V6.948Z" fill="white"/>
</mask>
<g mask="url(#mask3_626_22)">
<path d="M2.60547 9.97192H5.37747V13.2479H2.60547V9.97192Z" fill="#FFC034"/>
<path d="M2.94147 10.14H3.27747V13.248H2.94147V10.14ZM4.11747 10.14H4.45347V13.248H4.11747V10.14ZM3.52947 10.14H3.86547V13.248H3.52947V10.14ZM4.70472 10.14H5.04072V13.248H4.70472V10.14ZM2.60547 6.86401H5.37747V10.056H2.60547V6.86401Z" fill="#AD1619"/>
<path d="M5.29297 9.88794H8.06497V13.0799H5.29297V9.88794Z" fill="#AD1619"/>
<path d="M5.29297 6.948H8.23297V10.056H5.29297V6.948Z" fill="#F1F9FF"/>
<path fill-rule="evenodd" clip-rule="evenodd" d="M3.78331 7.19995H4.03531V7.89745H4.20331V7.5487H4.45531V7.8967H4.70731V8.33245H4.45531V9.1162H4.70731V9.55195H3.19531V9.11695H3.44731V8.33245H3.19531V7.89745H3.36331V7.5487H3.61531V7.8967H3.78331V7.19995Z" fill="#C88A02"/>
<path d="M6.73513 7.34635L6.90688 7.1626L7.26763 7.5001L7.09588 7.68385L6.73438 7.34635H6.73513Z" fill="#C88A02"/>
<path fill-rule="evenodd" clip-rule="evenodd" d="M7.77187 12.1051V10.2661H5.67188V12.0894L5.67487 12.1044C5.78137 12.5566 6.14287 12.7861 6.72187 12.7861C7.29937 12.7861 7.66162 12.5626 7.76812 12.1201L7.77187 12.1051ZM6.72187 12.5341C6.25687 12.5341 6.00412 12.3781 5.92387 12.0601V10.5181H7.51987V12.0744C7.43887 12.3819 7.18612 12.5341 6.72187 12.5341Z" fill="#FFC034"/>
<path fill-rule="evenodd" clip-rule="evenodd" d="M6.80881 10.4197H6.63406V11.2537L5.94406 10.5037L5.82031 10.6162L6.44431 11.2957H5.87881V11.5477H6.45856L5.82106 12.2407L5.94406 12.3547L6.63406 11.6047V12.5789H6.80881V11.6924L7.41856 12.3547L7.54231 12.2407L6.90481 11.5477H7.61581V11.2957H6.91831L7.54231 10.6169L7.41856 10.5029L6.80881 11.1659V10.4197Z" fill="#FFC034"/>
<path fill-rule="evenodd" clip-rule="evenodd" d="M7.11103 13.0822C7.11103 13.0822 5.33203 13.2225 5.33203 12.075C5.33203 12.075 5.31478 13.0822 3.45703 13.0822V13.9882H7.11103V13.0822Z" fill="#F1F9FF"/>
<path fill-rule="evenodd" clip-rule="evenodd" d="M5.33313 10.644C5.68113 10.644 5.96313 10.344 5.96313 9.97205C5.96313 9.60155 5.68113 9.30005 5.33313 9.30005C4.98588 9.30005 4.70312 9.60155 4.70312 9.97205C4.70312 10.3433 4.98588 10.644 5.33313 10.644Z" fill="#005BBF" stroke="#AD1619" stroke-width="0.87525"/>
</g>
</g>
</g>
<defs>
<clipPath id="clip0_626_22">
<rect width="18" height="18" rx="9" fill="white"/>
</clipPath>
</defs>
</svg>
