<svg width="922" height="148" viewBox="0 0 922 148" fill="none" xmlns="http://www.w3.org/2000/svg">
<path d="M78.0826 118.872L126.326 147.909L113.523 93.1827L156.146 56.3611L100.018 51.6125L78.0826 0L56.1469 51.6125L0.0195312 56.3611L42.642 93.1827L29.8396 147.909L78.0826 118.872Z" fill="#FF5400"/>
<path d="M652.11 118.872L700.353 147.909L687.551 93.1827L730.173 56.3611L674.046 51.6125L652.11 0L630.174 51.6125L574.047 56.3611L616.669 93.1827L603.867 147.909L652.11 118.872Z" fill="#FF5400"/>
<path d="M269.424 118.872L317.667 147.909L304.865 93.1827L347.488 56.3611L291.36 51.6125L269.424 0L247.489 51.6125L191.361 56.3611L233.984 93.1827L221.181 147.909L269.424 118.872Z" fill="#FF5400"/>
<path d="M843.452 118.872L891.695 147.909L878.892 93.1827L921.515 56.3611L865.388 51.6125L843.452 0L821.516 51.6125L765.389 56.3611L808.011 93.1827L795.209 147.909L843.452 118.872Z" fill="#FF5400"/>
<path d="M460.768 118.872L509.011 147.909L496.209 93.1827L538.831 56.3611L482.704 51.6125L460.768 0L438.832 51.6125L382.705 56.3611L425.328 93.1827L412.525 147.909L460.768 118.872Z" fill="#FF5400"/>
</svg>
