<svg width="40" height="40" viewBox="0 0 40 40" fill="none" xmlns="http://www.w3.org/2000/svg">
<path d="M20 0C31.046 0 40 8.954 40 20C40 31.046 31.046 40 20 40C8.954 40 0 31.046 0 20C0 8.954 8.954 0 20 0ZM20 4C15.7565 4 11.6869 5.68571 8.68629 8.68629C5.68571 11.6869 4 15.7565 4 20C4 24.2435 5.68571 28.3131 8.68629 31.3137C11.6869 34.3143 15.7565 36 20 36C24.2435 36 28.3131 34.3143 31.3137 31.3137C34.3143 28.3131 36 24.2435 36 20C36 15.7565 34.3143 11.6869 31.3137 8.68629C28.3131 5.68571 24.2435 4 20 4ZM20 8C20.4899 8.00006 20.9627 8.17991 21.3287 8.50543C21.6948 8.83095 21.9287 9.2795 21.986 9.766L22 10V19.172L27.414 24.586C27.7727 24.9459 27.9809 25.4289 27.9965 25.9368C28.012 26.4447 27.8336 26.9394 27.4975 27.3206C27.1614 27.7017 26.6929 27.9406 26.1871 27.9888C25.6812 28.037 25.176 27.8908 24.774 27.58L24.586 27.414L18.586 21.414C18.2752 21.1029 18.0755 20.698 18.018 20.262L18 20V10C18 9.46957 18.2107 8.96086 18.5858 8.58579C18.9609 8.21071 19.4696 8 20 8Z" fill="#F9F9FA"/>
</svg>
