<svg width="81" height="98" viewBox="0 0 81 98" fill="none" xmlns="http://www.w3.org/2000/svg">
<path d="M3.49243 20.7036V81.2409C3.49243 84.946 4.96428 88.4994 7.58419 91.1193C10.2041 93.7392 13.7575 95.2111 17.4626 95.2111H64.0297C67.7349 95.2111 71.2882 93.7392 73.9081 91.1193C76.528 88.4994 77.9999 84.946 77.9999 81.2409V34.6737C77.9999 30.9686 76.528 27.4153 73.9081 24.7954C71.2882 22.1754 67.7349 20.7036 64.0297 20.7036H3.49243ZM3.49243 20.7036V16.0469" stroke="white" stroke-width="5"/>
<path d="M68.6866 20.6928V24.1854H72.1791V20.6928H68.6866ZM8.47523 24.1854H68.6866V17.2003H8.47989L8.47523 24.1854ZM72.1791 20.6928V12.8044H65.194V20.6928H72.1791ZM57.5617 0.128768L7.28311 7.30942L8.27033 14.2246L58.5489 7.04865L57.5617 0.128768ZM7.28311 7.30942C5.2605 7.59678 3.40976 8.60504 2.07153 10.1486C0.733298 11.6922 -0.00234505 13.6672 5.61609e-06 15.7101H6.98508C6.98391 15.3496 7.1135 15.0008 7.34983 14.7286C7.58616 14.4563 7.91321 14.2742 8.27033 14.2246L7.28311 7.30942ZM72.1791 12.8044C72.1789 10.9697 71.7844 9.15654 71.0225 7.4876C70.2606 5.81867 69.1489 4.33293 67.7629 3.13098C66.3768 1.92903 64.7486 1.03894 62.9886 0.520972C61.2286 0.00300378 59.3779 -0.13075 57.5617 0.128768L58.5489 7.04865C59.3744 6.93057 60.2156 6.98658 61.0157 7.22188C61.8157 7.45719 62.5558 7.86164 63.1859 8.40786C63.816 8.95407 64.3214 9.6293 64.6679 10.3878C65.0143 11.1463 65.1938 11.9704 65.194 12.8044H72.1791ZM8.47989 17.2003C8.28341 17.2009 8.08876 17.1627 7.90712 17.0878C7.72549 17.0129 7.56046 16.9028 7.42153 16.7638C7.2826 16.6249 7.17252 16.4599 7.09761 16.2782C7.02271 16.0966 6.98447 15.9066 6.98508 15.7101H5.61609e-06C-0.000606512 16.8239 0.218314 17.9222 0.644251 18.9513C1.07019 19.9804 1.69479 20.9155 2.48234 21.703C3.26989 22.4906 4.20495 23.1152 5.23405 23.5411C6.26316 23.9671 7.36146 24.186 8.47523 24.1854L8.47989 17.2003Z" fill="white"/>
<path d="M59.1446 42.7266L41.2178 36.6367C40.9112 36.5325 40.5796 36.5325 40.273 36.6367L22.3462 42.7266C22.0487 42.8277 21.79 43.0216 21.6066 43.2808C21.4233 43.54 21.3247 43.8515 21.3247 44.1711V59.3958C21.3247 59.7995 21.4821 60.1868 21.7623 60.4723C22.0424 60.7578 22.4224 60.9182 22.8186 60.9182C23.2148 60.9182 23.5948 60.7578 23.875 60.4723C24.1551 60.1868 24.3125 59.7995 24.3125 59.3958V46.2835L30.585 48.413C28.9185 51.1569 28.3885 54.4627 29.1115 57.6044C29.8345 60.7461 31.7514 63.4671 34.4411 65.1697C31.0799 66.5133 28.1742 68.9436 26.0492 72.2663C25.9386 72.4337 25.8619 72.6219 25.8233 72.8198C25.7848 73.0177 25.7852 73.2214 25.8246 73.4192C25.864 73.6169 25.9415 73.8047 26.0528 73.9716C26.164 74.1385 26.3067 74.2812 26.4725 74.3914C26.6383 74.5017 26.824 74.5772 27.0187 74.6137C27.2134 74.6501 27.4133 74.6468 27.6068 74.6038C27.8002 74.5608 27.9833 74.4791 28.1455 74.3634C28.3077 74.2476 28.4457 74.1002 28.5514 73.9296C31.3656 69.5297 35.8099 67.0081 40.7454 67.0081C45.6809 67.0081 50.1252 69.5297 52.9394 73.9296C53.1585 74.2615 53.4969 74.4922 53.8816 74.5718C54.2663 74.6514 54.6662 74.5735 54.9949 74.3549C55.3237 74.1364 55.5549 73.7948 55.6384 73.404C55.722 73.0131 55.6513 72.6045 55.4416 72.2663C53.3166 68.9436 50.3997 66.5133 47.0497 65.1697C49.7369 63.4671 51.6519 60.748 52.3747 57.6085C53.0976 54.4691 52.5694 51.1656 50.9058 48.4226L59.1446 45.625C59.4422 45.524 59.701 45.3302 59.8843 45.0709C60.0677 44.8117 60.1664 44.5002 60.1664 44.1806C60.1664 43.861 60.0677 43.5495 59.8843 43.2902C59.701 43.031 59.4422 42.8371 59.1446 42.7361V42.7266ZM49.7088 54.8284C49.7092 56.2725 49.3736 57.6962 48.7296 58.9826C48.0855 60.269 47.1514 61.3815 46.0038 62.2287C44.8562 63.0759 43.5278 63.6338 42.1277 63.8565C40.7276 64.0792 39.2956 63.9604 37.9493 63.5099C36.6029 63.0594 35.3806 62.29 34.3825 61.2648C33.3844 60.2396 32.6391 58.9879 32.2076 57.6123C31.7761 56.2367 31.6708 54.7765 31.9004 53.3514C32.1299 51.9263 32.6877 50.5769 33.528 49.4141L40.273 51.6978C40.5796 51.802 40.9112 51.802 41.2178 51.6978L47.9628 49.4141C49.0976 50.9823 49.7096 52.8798 49.7088 54.8284ZM40.7454 48.6566L27.5431 44.1711L40.7454 39.6855L53.9477 44.1711L40.7454 48.6566Z" fill="white"/>
</svg>
