<svg width="62" height="62" viewBox="0 0 62 62" fill="none" xmlns="http://www.w3.org/2000/svg">
<rect width="62" height="62" rx="5" fill="#2F2F2F"/>
<path d="M44.9999 16.8201C43.166 14.9683 40.982 13.5 38.5749 12.5008C36.1679 11.5016 33.5861 10.9915 30.9799 11.0001C20.06 11.0001 11.16 19.9001 11.16 30.8201C11.16 34.32 12.08 37.72 13.8 40.72L11 51L21.5 48.24C24.4 49.82 27.66 50.66 30.9799 50.66C41.8999 50.66 50.7999 41.76 50.7999 30.8401C50.7999 25.5401 48.7399 20.5601 44.9999 16.8201ZM30.9799 47.3C28.02 47.3 25.12 46.5 22.58 45L21.98 44.64L15.74 46.28L17.4 40.2L17 39.58C15.3551 36.9542 14.4818 33.9186 14.48 30.8201C14.48 21.7401 21.88 14.3401 30.9599 14.3401C35.3599 14.3401 39.4999 16.0601 42.5999 19.1801C44.1351 20.7078 45.3517 22.5252 46.1792 24.5267C47.0066 26.5283 47.4283 28.6742 47.4199 30.8401C47.4599 39.92 40.0599 47.3 30.9799 47.3ZM40.0199 34.98C39.5199 34.74 37.0799 33.54 36.6399 33.3601C36.1799 33.2001 35.8599 33.1201 35.5199 33.6C35.1799 34.1 34.2399 35.22 33.9599 35.54C33.6799 35.88 33.3799 35.92 32.8799 35.66C32.3799 35.42 30.7799 34.88 28.9 33.2001C27.42 31.8801 26.44 30.2601 26.14 29.7601C25.86 29.2601 26.1 29.0001 26.36 28.7401C26.58 28.5201 26.86 28.1601 27.1 27.8801C27.34 27.6001 27.44 27.3801 27.6 27.0601C27.76 26.7201 27.68 26.4401 27.56 26.2001C27.44 25.9601 26.44 23.5201 26.04 22.5201C25.64 21.5601 25.22 21.6801 24.92 21.6601H23.96C23.62 21.6601 23.1 21.7801 22.64 22.2801C22.2 22.7801 20.92 23.9801 20.92 26.4201C20.92 28.8601 22.7 31.2201 22.94 31.5401C23.18 31.8801 26.44 36.88 31.3999 39.02C32.5799 39.54 33.4999 39.84 34.2199 40.06C35.3999 40.44 36.4799 40.38 37.3399 40.26C38.2999 40.12 40.2799 39.06 40.6799 37.9C41.0999 36.74 41.0999 35.76 40.9599 35.54C40.8199 35.32 40.5199 35.22 40.0199 34.98Z" fill="white"/>
</svg>
