<svg width="69" height="69" viewBox="0 0 69 69" fill="none" xmlns="http://www.w3.org/2000/svg">
<rect width="69" height="69" rx="5" fill="white"/>
<path d="M48.9999 19.8201C47.166 17.9683 44.982 16.5 42.5749 15.5008C40.1679 14.5016 37.5861 13.9915 34.9799 14.0001C24.06 14.0001 15.16 22.9001 15.16 33.8201C15.16 37.32 16.08 40.72 17.8 43.72L15 54L25.5 51.24C28.4 52.82 31.66 53.66 34.9799 53.66C45.8999 53.66 54.7999 44.76 54.7999 33.8401C54.7999 28.5401 52.7399 23.5601 48.9999 19.8201ZM34.9799 50.3C32.02 50.3 29.12 49.5 26.58 48L25.98 47.64L19.74 49.28L21.4 43.2L21 42.58C19.3551 39.9542 18.4818 36.9186 18.48 33.8201C18.48 24.7401 25.88 17.3401 34.9599 17.3401C39.3599 17.3401 43.4999 19.0601 46.5999 22.1801C48.1351 23.7078 49.3517 25.5252 50.1792 27.5267C51.0066 29.5283 51.4283 31.6742 51.4199 33.8401C51.4599 42.92 44.0599 50.3 34.9799 50.3ZM44.0199 37.98C43.5199 37.74 41.0799 36.54 40.6399 36.36C40.1799 36.2 39.8599 36.12 39.5199 36.6C39.1799 37.1 38.2399 38.22 37.9599 38.54C37.6799 38.88 37.3799 38.92 36.8799 38.66C36.3799 38.42 34.7799 37.88 32.9 36.2C31.42 34.8801 30.44 33.2601 30.14 32.7601C29.86 32.2601 30.1 32.0001 30.36 31.7401C30.58 31.5201 30.86 31.1601 31.1 30.8801C31.34 30.6001 31.44 30.3801 31.6 30.0601C31.76 29.7201 31.68 29.4401 31.56 29.2001C31.44 28.9601 30.44 26.5201 30.04 25.5201C29.64 24.5601 29.22 24.6801 28.92 24.6601H27.96C27.62 24.6601 27.1 24.7801 26.64 25.2801C26.2 25.7801 24.92 26.9801 24.92 29.4201C24.92 31.8601 26.7 34.2201 26.94 34.5401C27.18 34.8801 30.44 39.88 35.3999 42.02C36.5799 42.54 37.4999 42.84 38.2199 43.06C39.3999 43.44 40.4799 43.38 41.3399 43.26C42.2999 43.12 44.2799 42.06 44.6799 40.9C45.0999 39.74 45.0999 38.76 44.9599 38.54C44.8199 38.32 44.5199 38.22 44.0199 37.98Z" fill="#FF5400"/>
</svg>
