<svg width="2491" height="1699" viewBox="0 0 2491 1699" fill="none" xmlns="http://www.w3.org/2000/svg">
<mask id="mask0_721_10" style="mask-type:luminance" maskUnits="userSpaceOnUse" x="0" y="0" width="2491" height="1699">
<path d="M265.219 1620.95C336.605 1643.81 423.556 1650.01 492.617 1645.24C492.617 1645.24 1762.33 1767.55 2221.29 1642.15C2560.97 1549.34 2519.96 1218.94 2416.01 1007.46C2310.87 793.568 2586.86 380.125 2143.21 140.382C1888.03 2.48549 1659.16 223.156 1218.02 60.2475C819.739 -86.8315 305.983 44.7235 180.35 353.192C93.9253 565.393 202.877 794.137 93.9255 905.01C-82.7775 1084.83 -1.5235 1535.53 265.219 1620.95Z" fill="white"/>
</mask>
<g mask="url(#mask0_721_10)">
<path d="M265.219 1620.95C336.605 1643.81 423.556 1650.01 492.617 1645.24C492.617 1645.24 1762.33 1767.55 2221.29 1642.15C2560.97 1549.34 2519.96 1218.94 2416.01 1007.46C2310.87 793.568 2586.86 380.125 2143.21 140.382C1888.03 2.48549 1659.16 223.156 1218.02 60.2475C819.739 -86.8315 305.983 44.7235 180.35 353.192C93.9253 565.393 202.877 794.137 93.9255 905.01C-82.7775 1084.83 -1.5235 1535.53 265.219 1620.95Z" fill="#DAE6FF"/>
</g>
<mask id="mask1_721_10" style="mask-type:luminance" maskUnits="userSpaceOnUse" x="0" y="0" width="2491" height="1699">
<path d="M265.219 1620.95C336.605 1643.81 423.556 1650.01 492.617 1645.24C492.617 1645.24 1762.33 1767.55 2221.29 1642.15C2560.97 1549.34 2519.96 1218.94 2416.01 1007.46C2310.87 793.568 2586.86 380.125 2143.21 140.382C1888.03 2.48549 1659.16 223.156 1218.02 60.2475C819.739 -86.8315 305.983 44.7235 180.35 353.192C93.9253 565.393 202.877 794.137 93.9255 905.01C-82.7775 1084.83 -1.5235 1535.53 265.219 1620.95Z" fill="white"/>
</mask>
<g mask="url(#mask1_721_10)">
<path d="M299.569 1751.13C299.32 1751.09 299.072 1751.02 298.825 1750.93C296.847 1750.19 295.844 1747.98 296.589 1746C490.877 1229.04 660.385 866.248 773.884 724.454C776.405 721.306 778.225 719.034 778.938 717.868C780.047 716.064 782.407 715.507 784.204 716.605C786.007 717.713 786.571 720.069 785.465 721.871C784.5 723.443 782.753 725.625 779.86 729.238C666.853 870.417 497.766 1232.47 303.753 1748.69C303.104 1750.43 301.33 1751.41 299.569 1751.13Z" fill="#1A1B1F"/>
<path d="M847.858 702.186C834.477 718.056 770.73 744.541 766.201 740.72C761.669 736.9 777.007 669.597 790.39 653.728C803.77 637.857 827.483 635.841 843.353 649.222C859.222 662.602 861.24 686.316 847.858 702.186Z" fill="#1A1B1F"/>
<path d="M725.341 744.909C730.066 765.613 712.449 834 706.537 835.348C700.628 836.699 655.088 782.724 650.363 762.017C645.636 741.312 658.592 720.697 679.297 715.973C700.001 711.251 720.616 724.204 725.341 744.909Z" fill="#1A1B1F"/>
<path d="M790.696 871C769.46 870.942 706.796 838.377 706.813 832.314C706.83 826.251 769.673 794.036 790.909 794.094C812.147 794.153 829.315 811.418 829.258 832.654C829.197 853.892 811.934 871.059 790.696 871Z" fill="#1A1B1F"/>
<path d="M520.528 1082.41C532.16 1116.11 515.129 1233.42 505.512 1236.74C495.894 1240.06 410.133 1158.23 398.503 1124.53C386.873 1090.83 404.761 1054.09 438.459 1042.46C472.153 1030.83 508.898 1048.72 520.528 1082.41Z" fill="#1A1B1F"/>
<path d="M652.398 1281C616.949 1284.75 506.49 1241.74 505.422 1231.62C504.352 1221.5 603.395 1156.37 638.844 1152.63C674.295 1148.88 706.068 1174.59 709.81 1210.04C713.554 1245.49 687.85 1277.26 652.398 1281Z" fill="#1A1B1F"/>
<path d="M419.155 1208.12C442.113 1245.21 453.383 1389.83 442.796 1396.39C432.208 1402.94 307.794 1328.36 284.834 1291.26C261.874 1254.17 273.331 1205.49 310.424 1182.53C347.514 1159.57 396.196 1171.03 419.155 1208.12Z" fill="#1A1B1F"/>
<path d="M609.283 1469.23C565.661 1469.32 436.618 1403.07 436.593 1390.61C436.566 1378.16 565.324 1311.35 608.946 1311.26C652.568 1311.17 688.008 1346.45 688.101 1390.08C688.193 1433.7 652.904 1469.14 609.283 1469.23Z" fill="#1A1B1F"/>
<path d="M350.306 1376.33C373.266 1413.42 384.535 1558.04 373.95 1564.59C363.362 1571.15 238.945 1496.56 215.987 1459.47C193.026 1422.38 204.485 1373.7 241.576 1350.74C278.666 1327.78 327.347 1339.24 350.306 1376.33Z" fill="#1A1B1F"/>
<path d="M540.437 1637.44C496.814 1637.53 367.772 1571.27 367.746 1558.82C367.719 1546.37 496.476 1479.56 540.1 1479.47C583.722 1479.37 619.16 1514.66 619.254 1558.28C619.346 1601.91 584.06 1637.34 540.437 1637.44Z" fill="#1A1B1F"/>
<path d="M210.243 1584.08C245.6 1609.63 311.106 1739.06 303.813 1749.15C296.521 1759.24 153.073 1737.67 117.718 1712.12C82.3614 1686.57 74.4113 1637.19 99.9603 1601.84C125.511 1566.48 174.886 1558.53 210.243 1584.08Z" fill="#1A1B1F"/>
<path d="M478.327 1804.21C435.057 1809.76 298.744 1760.15 297.161 1747.8C295.578 1735.45 414.973 1653.07 458.241 1647.52C501.51 1641.98 541.082 1672.56 546.628 1715.83C552.174 1759.1 521.596 1798.67 478.327 1804.21Z" fill="#1A1B1F"/>
<path d="M662.106 850.03C666.907 871.066 649.006 940.549 643.002 941.92C636.997 943.289 590.726 888.45 585.927 867.414C581.126 846.378 594.288 825.432 615.324 820.632C636.359 815.832 657.304 828.993 662.106 850.03Z" fill="#1A1B1F"/>
<path d="M725.627 979.264C704.052 979.202 640.384 946.116 640.4 939.957C640.418 933.799 704.267 901.064 725.845 901.125C747.421 901.184 764.865 918.726 764.805 940.303C764.745 961.88 747.205 979.323 725.627 979.264Z" fill="#1A1B1F"/>
<path d="M591.484 946.85C600.733 976.076 583.483 1076.54 575.142 1079.18C566.8 1081.82 494.895 1009.57 485.646 980.342C476.399 951.114 492.592 919.923 521.821 910.676C551.046 901.426 582.236 917.623 591.484 946.85Z" fill="#1A1B1F"/>
<path d="M695.562 1131.52C664.908 1131.43 574.457 1084.42 574.48 1075.67C574.502 1066.92 665.217 1020.42 695.871 1020.5C726.526 1020.59 751.307 1045.51 751.222 1076.16C751.137 1106.82 726.217 1131.6 695.562 1131.52Z" fill="#1A1B1F"/>
<path d="M2025.74 1772.69C2025.86 1772.68 2025.98 1772.67 2026.11 1772.63C2027.1 1772.38 2027.7 1771.36 2027.44 1770.37C1960.43 1510.94 1897.4 1327.16 1849.98 1252.89C1848.92 1251.24 1848.16 1250.05 1847.88 1249.45C1847.44 1248.52 1846.33 1248.13 1845.41 1248.57C1844.48 1249.01 1844.08 1250.12 1844.52 1251.04C1844.91 1251.85 1845.64 1252.99 1846.85 1254.89C1894.07 1328.83 1956.93 1512.23 2023.84 1771.3C2024.07 1772.17 2024.87 1772.74 2025.74 1772.69Z" fill="#1A1B1F"/>
<path d="M1815.44 1238.32C1821.07 1246.67 1850.46 1262.74 1852.84 1261.13C1855.22 1259.52 1851.3 1226.26 1845.67 1217.92C1840.03 1209.57 1828.7 1207.37 1820.35 1213C1812 1218.64 1809.8 1229.97 1815.44 1238.32Z" fill="#1A1B1F"/>
<path d="M1872.34 1265.27C1868.99 1275.01 1873.95 1308.91 1876.74 1309.87C1879.52 1310.82 1904.28 1287.14 1907.63 1277.39C1910.98 1267.65 1905.79 1257.04 1896.05 1253.69C1886.3 1250.34 1875.69 1255.52 1872.34 1265.27Z" fill="#1A1B1F"/>
<path d="M1834.29 1322.72C1844.54 1323.79 1876.45 1311.31 1876.76 1308.39C1877.06 1305.46 1848.41 1286.67 1838.16 1285.6C1827.92 1284.54 1818.74 1291.98 1817.67 1302.22C1816.6 1312.47 1824.04 1321.65 1834.29 1322.72Z" fill="#1A1B1F"/>
<path d="M1953.7 1438.67C1946.35 1454.32 1948.5 1511.8 1952.97 1513.89C1957.44 1515.99 2003.04 1480.95 2010.39 1465.29C2017.75 1449.64 2011.02 1430.99 1995.36 1423.64C1979.71 1416.28 1961.05 1423.01 1953.7 1438.67Z" fill="#1A1B1F"/>
<path d="M1879.82 1527.66C1896.73 1531.3 1952.24 1516.26 1953.28 1511.43C1954.32 1506.61 1909.9 1470.07 1893 1466.43C1876.09 1462.79 1859.43 1473.55 1855.79 1490.46C1852.15 1507.37 1862.91 1524.02 1879.82 1527.66Z" fill="#1A1B1F"/>
<path d="M1996.11 1504.55C1983.11 1521.26 1970.2 1590.45 1974.97 1594.16C1979.74 1597.86 2043.62 1568.31 2056.61 1551.61C2069.6 1534.9 2066.59 1510.82 2049.88 1497.83C2033.18 1484.84 2009.1 1487.85 1996.11 1504.55Z" fill="#1A1B1F"/>
<path d="M1890.89 1620.69C1911.93 1622.99 1977.61 1597.7 1978.26 1591.69C1978.92 1585.69 1920.26 1546.8 1899.22 1544.5C1878.18 1542.2 1859.26 1557.39 1856.96 1578.43C1854.66 1599.47 1869.85 1618.39 1890.89 1620.69Z" fill="#1A1B1F"/>
<path d="M2020.63 1589.26C2007.63 1605.96 1994.72 1675.15 1999.49 1678.86C2004.26 1682.57 2068.14 1653.02 2081.13 1636.31C2094.12 1619.6 2091.11 1595.53 2074.4 1582.53C2057.7 1569.54 2033.62 1572.55 2020.63 1589.26Z" fill="#1A1B1F"/>
<path d="M1915.41 1705.4C1936.45 1707.7 2002.13 1682.4 2002.78 1676.39C2003.44 1670.39 1944.78 1631.5 1923.74 1629.2C1902.7 1626.91 1883.78 1642.1 1881.48 1663.14C1879.18 1684.18 1894.37 1703.1 1915.41 1705.4Z" fill="#1A1B1F"/>
<path d="M2077.46 1696.72C2059.08 1707.22 2020.79 1766.27 2023.79 1771.52C2026.79 1776.76 2097.1 1773.77 2115.48 1763.27C2133.86 1752.77 2140.25 1729.36 2129.75 1710.99C2119.25 1692.61 2095.84 1686.22 2077.46 1696.72Z" fill="#1A1B1F"/>
<path d="M1897.41 1319.24C1894.01 1329.14 1899.05 1363.59 1901.88 1364.56C1904.7 1365.53 1929.86 1341.47 1933.26 1331.57C1936.67 1321.67 1931.4 1310.88 1921.5 1307.48C1911.6 1304.08 1900.81 1309.34 1897.41 1319.24Z" fill="#1A1B1F"/>
<path d="M1860.09 1378.31C1870.5 1379.39 1902.92 1366.72 1903.24 1363.75C1903.55 1360.78 1874.43 1341.69 1864.02 1340.6C1853.61 1339.51 1844.29 1347.07 1843.2 1357.49C1842.12 1367.9 1849.68 1377.22 1860.09 1378.31Z" fill="#1A1B1F"/>
<path d="M1926.48 1369.6C1920.51 1383.22 1923.63 1432.58 1927.52 1434.29C1931.41 1435.99 1969.83 1404.85 1975.81 1391.23C1981.78 1377.61 1975.58 1361.72 1961.95 1355.75C1948.33 1349.78 1932.45 1355.98 1926.48 1369.6Z" fill="#1A1B1F"/>
<path d="M1866.72 1453.31C1881.51 1454.85 1927.58 1436.85 1928.02 1432.63C1928.46 1428.41 1887.1 1401.28 1872.31 1399.74C1857.52 1398.2 1844.27 1408.94 1842.73 1423.73C1841.19 1438.52 1851.93 1451.77 1866.72 1453.31Z" fill="#1A1B1F"/>
<path d="M2297.63 1643.03C2297.81 1643.05 2297.99 1643.04 2298.17 1643.02C2299.67 1642.84 2300.73 1641.48 2300.55 1639.98C2252.77 1249.45 2196.29 969.826 2141.5 852.608C2140.28 850.005 2139.4 848.127 2139.1 847.2C2138.64 845.765 2137.1 844.983 2135.67 845.442C2134.23 845.907 2133.45 847.443 2133.91 848.876C2134.31 850.126 2135.16 851.93 2136.55 854.917C2191.11 971.627 2247.43 1250.67 2295.14 1640.65C2295.3 1641.95 2296.36 1642.93 2297.63 1643.03Z" fill="#1A1B1F"/>
<path d="M2094.01 824.775C2100.62 838.008 2140.31 867.042 2144.08 865.156C2147.86 863.272 2148.54 814.1 2141.93 800.866C2135.33 787.632 2119.25 782.258 2106.02 788.859C2092.79 795.462 2087.41 811.542 2094.01 824.775Z" fill="#1A1B1F"/>
<path d="M2171.67 874.913C2164.93 888.455 2165.65 938.761 2169.52 940.686C2173.38 942.613 2213.97 912.883 2220.71 899.34C2227.46 885.798 2221.95 869.351 2208.41 862.606C2194.86 855.861 2178.42 861.37 2171.67 874.913Z" fill="#1A1B1F"/>
<path d="M2105.27 951.249C2119.98 954.772 2168.83 942.74 2169.84 938.539C2170.84 934.338 2132.74 901.489 2118.02 897.966C2103.31 894.443 2088.52 903.516 2085 918.229C2081.48 932.944 2090.55 947.726 2105.27 951.249Z" fill="#1A1B1F"/>
<path d="M2256.85 1142.96C2243.14 1164.34 2235.25 1248.41 2241.35 1252.33C2247.45 1256.24 2320.56 1213.97 2334.27 1192.59C2347.97 1171.21 2341.75 1142.77 2320.37 1129.07C2299 1115.36 2270.55 1121.58 2256.85 1142.96Z" fill="#1A1B1F"/>
<path d="M2132.22 1258.33C2156.14 1266.87 2239.83 1255.63 2242.27 1248.8C2244.71 1241.98 2187.06 1180.26 2163.15 1171.72C2139.23 1163.18 2112.92 1175.65 2104.38 1199.56C2095.84 1223.48 2108.3 1249.79 2132.22 1258.33Z" fill="#1A1B1F"/>
<path d="M2305.94 1247.01C2283.82 1268.83 2251.75 1367.07 2257.98 1373.39C2264.21 1379.7 2362.87 1348.94 2384.99 1327.11C2407.11 1305.28 2407.35 1269.65 2385.52 1247.53C2363.69 1225.41 2328.06 1225.18 2305.94 1247.01Z" fill="#1A1B1F"/>
<path d="M2130.49 1395.89C2160.67 1403.27 2261.14 1379.05 2263.24 1370.43C2265.35 1361.82 2187.41 1293.95 2157.23 1286.57C2127.04 1279.19 2096.58 1297.67 2089.2 1327.86C2081.81 1358.04 2100.3 1388.5 2130.49 1395.89Z" fill="#1A1B1F"/>
<path d="M2325.38 1375.02C2303.26 1396.85 2271.19 1495.09 2277.42 1501.4C2283.65 1507.71 2382.31 1476.95 2404.43 1455.12C2426.55 1433.29 2426.79 1397.67 2404.96 1375.55C2383.13 1353.43 2347.5 1353.19 2325.38 1375.02Z" fill="#1A1B1F"/>
<path d="M2149.93 1523.9C2180.12 1531.28 2280.58 1507.06 2282.69 1498.44C2284.8 1489.83 2206.86 1421.97 2176.67 1414.58C2146.48 1407.2 2116.03 1425.68 2108.64 1455.87C2101.26 1486.06 2119.74 1516.51 2149.93 1523.9Z" fill="#1A1B1F"/>
<path d="M2387.5 1542.36C2358.73 1554.12 2291.66 1632.74 2295.02 1640.95C2298.37 1649.16 2401.31 1658.3 2430.08 1646.54C2458.85 1634.78 2472.63 1601.93 2460.88 1573.16C2449.12 1544.39 2416.27 1530.6 2387.5 1542.36Z" fill="#1A1B1F"/>
<path d="M2164.95 1649.79C2193.98 1660.89 2296.68 1649.42 2299.85 1641.14C2303.02 1632.85 2234.18 1555.78 2205.15 1544.68C2176.12 1533.58 2143.59 1548.11 2132.49 1577.14C2121.39 1606.17 2135.93 1638.69 2164.95 1649.79Z" fill="#1A1B1F"/>
<path d="M2197.82 958.307C2190.96 972.066 2191.7 1023.18 2195.63 1025.13C2199.55 1027.09 2240.79 996.885 2247.64 983.125C2254.5 969.366 2248.9 952.655 2235.14 945.802C2221.38 938.949 2204.67 944.547 2197.82 958.307Z" fill="#1A1B1F"/>
<path d="M2132.15 1037.13C2147.1 1040.7 2196.73 1028.48 2197.75 1024.21C2198.77 1019.95 2160.06 986.567 2145.11 982.988C2130.16 979.409 2115.14 988.627 2111.56 1003.58C2107.98 1018.53 2117.2 1033.55 2132.15 1037.13Z" fill="#1A1B1F"/>
<path d="M2230.46 1037.19C2219.16 1055.88 2214.24 1128.33 2219.57 1131.56C2224.91 1134.79 2286.82 1096.82 2298.12 1078.14C2309.43 1059.46 2303.45 1035.14 2284.77 1023.84C2266.08 1012.53 2241.77 1018.51 2230.46 1037.19Z" fill="#1A1B1F"/>
<path d="M2127.42 1147.58C2148.66 1152.67 2219.17 1135.3 2220.62 1129.24C2222.07 1123.17 2167.07 1075.76 2145.83 1070.67C2124.59 1065.59 2103.25 1078.68 2098.17 1099.92C2093.08 1121.16 2106.18 1142.5 2127.42 1147.58Z" fill="#1A1B1F"/>
<path d="M1543.76 1370.69C1543.76 1370.69 1508.99 1302.78 1512.91 1276.93C1516.84 1251.09 1538 1177.64 1532.47 1150.25C1530.75 1141.72 1512.77 1076.41 1496.5 1067.51C1485.49 1061.49 1461.23 1086.21 1469.75 1119.59C1484.54 1177.62 1466.91 1211.81 1457.33 1236.46C1441 1278.51 1434.71 1303.57 1434.2 1283.15C1434.2 1283.15 1441.83 1220.26 1438.83 1192.85C1438.03 1185.44 1421.68 1128.62 1405.98 1123.4C1397.49 1120.57 1370.85 1134.72 1381.34 1186.95C1388.23 1221.27 1368.99 1243.79 1354.88 1267.52C1342.67 1288.05 1283.1 1340.12 1283.1 1340.12L1363.67 1401.47L1543.76 1370.69Z" fill="#E96F5F"/>
<path d="M1595.59 1259.84C1595.59 1259.84 1633.5 1152.38 1636.36 1108.24C1637.5 1090.54 1635.78 1032.15 1621.31 1022.01C1597.41 1005.28 1570.02 1047.2 1572.56 1100.78C1575.07 1153.94 1523.21 1195.61 1498.24 1230.7C1436.15 1317.94 1398.73 1370.44 1398.73 1370.44L1595.59 1259.84Z" fill="#F78978"/>
<path d="M665.367 1417.1C692.506 1409.62 717.937 1402.46 740.097 1396.03C752.447 1392.4 763.794 1389.02 773.829 1385.93C790.033 1380.91 802.84 1376.65 811.079 1373.4C832.149 1365.1 865.298 1356.98 892.434 1340.88L892.45 1340.86C910.827 1329.98 926.428 1315.43 933.684 1294.69C951.668 1243.31 1047.76 1152.34 1134.66 1092.94C1182.04 1060.53 1230.44 1007.54 1247.96 986.111C1261.74 969.254 1309.68 896.759 1328.01 890.954C1338.8 887.552 1364.84 917.324 1368.08 934.359C1375.05 970.857 1349.63 1016.96 1298.8 1087.02C1250.37 1153.77 1244.42 1192.42 1246.51 1228.57C1247.89 1252.06 1252.72 1275.6 1281.24 1296.7C1284.61 1299.18 1294.67 1307.8 1309.24 1316.38C1339.73 1334.35 1389.91 1352.12 1439.05 1312.74C1439.62 1312.27 1440.2 1311.83 1440.8 1311.38L1440.81 1311.36C1440.81 1311.36 1440.81 1311.36 1440.83 1311.34C1462.09 1294.93 1489.11 1284.66 1513.53 1273.37C1539.09 1261.54 1561.82 1248.57 1572.1 1226.22C1584.6 1199.05 1606.68 1174.82 1629.5 1147.5L1629.52 1147.48C1646.06 1127.73 1663 1106.35 1676.97 1081.05C1711.07 1019.39 1750.42 1023.29 1764.03 1049.02C1771.4 1062.98 1737.1 1160.51 1730.35 1174.23C1721.36 1192.55 1648.01 1314.81 1632.22 1334.36C1593.38 1382.51 1426.1 1526.48 1394.23 1551.11C1340.25 1592.85 1192.04 1602.47 1069.43 1622.97C1061.22 1624.34 1053.04 1625.83 1044.87 1627.42L1044.84 1627.42C1000.02 1636.2 955.91 1648.24 912.911 1663.52C899.278 1668.33 885.785 1673.48 872.39 1678.96C866.359 1681.43 860.332 1683.96 854.355 1686.57C768.304 1592.42 707.988 1502.62 665.367 1417.1Z" fill="#FFA089"/>
<path d="M883.728 1703.21L1045.62 1627.07L892.605 1340.81L734.769 1384.65L883.728 1703.21Z" fill="#89B4FD"/>
<path d="M125.784 1533.8L765.599 1369.5L768.512 1375.28L773.835 1385.93L912.917 1663.52L923.447 1684.54L933.043 1703.67L456.08 1972.93C347.467 1872.25 245.101 1644.22 125.784 1533.8Z" fill="#FF5400"/>
<path d="M851.035 1392.92C846.004 1397.66 838.082 1397.43 833.34 1392.4C828.596 1387.37 828.83 1379.44 833.861 1374.7C838.89 1369.96 846.813 1370.19 851.556 1375.22C856.298 1380.25 856.064 1388.18 851.035 1392.92Z" fill="#100259"/>
<path d="M1305.48 888.905C1297.46 880.893 1313.51 879.451 1313.51 862.637V847.742C1313.51 799.639 1324.39 759.741 1346.16 728.048C1367.92 696.355 1403.24 665.227 1452.12 634.678C1479.6 618.654 1499.66 605.661 1512.26 595.731C1524.87 585.801 1533.83 575.5 1539.18 564.796C1544.52 554.108 1547.19 540.357 1547.19 523.56C1547.19 495.301 1536.68 473.538 1515.7 458.256C1494.69 442.99 1464.34 435.349 1424.63 435.349C1362 435.349 1305.87 451.776 1256.24 484.613C1247.07 489.965 1240.96 492.625 1237.91 492.625C1231.03 492.625 1206.43 481.707 1201.86 473.293L1176.04 403.27C1172.98 397.934 1171.46 393.356 1171.46 389.519C1171.46 382.652 1175.65 376.542 1184.07 371.19C1255.08 323.087 1343.29 299.035 1448.68 299.035C1534.22 299.035 1603.33 318.702 1656.02 358.036C1708.72 397.37 1735.08 452.163 1735.08 522.416C1735.08 568.23 1724.38 606.033 1703 635.823C1681.61 665.614 1647.24 693.873 1599.89 720.6C1562.46 741.976 1536.88 761.836 1523.14 780.165C1509.39 798.494 1502.53 821.788 1502.53 850.047V862.637C1502.53 879.451 1498.71 891.863 1491.06 899.875C1483.42 907.903 1470.06 911.901 1450.97 911.901H1365.05C1346.72 911.902 1313.5 896.933 1305.48 888.905ZM1305.48 1070.64C1293.65 1061.1 1305.48 1058.53 1305.48 1042.49V1018.44C1305.48 1001.64 1311.4 988.457 1323.23 978.914C1335.07 969.371 1352.07 964.599 1374.22 964.599H1440.67C1463.56 964.599 1480.94 969.371 1492.77 978.914C1504.6 988.457 1510.54 1001.64 1510.54 1018.44V1042.49C1510.54 1059.29 1504.6 1072.28 1492.77 1081.44C1480.94 1090.61 1463.56 1095.19 1440.67 1095.19H1374.22C1352.07 1095.19 1317.32 1080.18 1305.48 1070.64Z" fill="#AD3900"/>
<path d="M1299.7 884.289C1291.68 876.277 1287.68 863.864 1287.68 847.051V832.156C1287.68 784.053 1298.56 744.155 1320.32 712.462C1342.08 680.769 1377.4 649.641 1426.28 619.092C1453.77 603.068 1473.82 590.075 1486.43 580.145C1499.03 570.215 1508 559.914 1513.35 549.21C1518.68 538.522 1521.36 524.771 1521.36 507.974C1521.36 479.715 1510.85 457.952 1489.86 442.67C1468.85 427.404 1438.5 419.763 1398.8 419.763C1336.17 419.763 1280.04 436.19 1230.4 469.027C1221.23 474.379 1215.12 477.039 1212.07 477.039C1205.19 477.039 1199.47 472.848 1194.89 464.433L1150.2 387.684C1147.14 382.348 1145.62 377.77 1145.62 373.933C1145.62 367.066 1149.82 360.956 1158.23 355.604C1229.24 307.501 1317.45 283.449 1422.85 283.449C1508.38 283.449 1577.49 303.116 1630.19 342.45C1682.89 381.784 1709.24 436.577 1709.24 506.83C1709.24 552.644 1698.54 590.447 1677.16 620.237C1655.77 650.028 1621.4 678.287 1574.06 705.014C1536.63 726.39 1511.04 746.25 1497.31 764.579C1483.56 782.908 1476.69 806.202 1476.69 834.461V847.051C1476.69 863.865 1472.87 876.277 1465.23 884.289C1457.59 892.317 1444.22 896.315 1425.14 896.315H1339.21C1320.88 896.315 1307.72 892.317 1299.7 884.289ZM1297.4 1065.29C1285.57 1055.75 1279.65 1042.95 1279.65 1026.91V1002.86C1279.65 986.058 1285.57 972.871 1297.4 963.328C1309.23 953.785 1326.24 949.013 1348.39 949.013H1414.83C1437.73 949.013 1455.1 953.785 1466.94 963.328C1478.77 972.871 1484.7 986.058 1484.7 1002.86V1026.91C1484.7 1043.71 1478.77 1056.7 1466.94 1065.85C1455.1 1075.03 1437.73 1079.61 1414.83 1079.61H1348.39C1326.24 1079.61 1309.23 1074.83 1297.4 1065.29Z" fill="#FF5400"/>
<path d="M943.93 1273.7C975.555 1221.05 1058.64 1144.91 1134.65 1092.93C1182.02 1060.54 1230.45 1007.55 1247.97 986.114C1261.73 969.258 1309.68 896.749 1328.01 890.943C1338.81 887.558 1364.85 917.332 1368.08 934.36C1375.04 970.859 1349.64 1016.98 1298.82 1087.02C1250.37 1153.76 1244.42 1192.41 1246.52 1228.57C1246.57 1229.4 1246.62 1230.21 1246.67 1231.05L943.93 1273.7Z" fill="#FFA089"/>
</g>
<mask id="mask2_721_10" style="mask-type:luminance" maskUnits="userSpaceOnUse" x="0" y="0" width="2491" height="1699">
<path d="M265.219 1620.95C336.605 1643.81 423.556 1650.01 492.617 1645.24C492.617 1645.24 1762.33 1767.55 2221.29 1642.15C2560.97 1549.34 2519.96 1218.94 2416.01 1007.46C2310.87 793.568 2586.86 380.125 2143.21 140.382C1888.03 2.48549 1659.16 223.156 1218.02 60.2475C819.739 -86.8315 305.983 44.7235 180.35 353.192C93.9253 565.393 202.877 794.137 93.9255 905.01C-82.7775 1084.83 -1.5235 1535.53 265.219 1620.95Z" fill="white"/>
</mask>
<g mask="url(#mask2_721_10)">
<path d="M1957.46 339.772L1794.18 395.22C1786.03 397.989 1777.17 393.624 1774.4 385.47C1771.63 377.316 1776 368.461 1784.15 365.692L1947.43 310.244C1955.58 307.475 1964.44 311.84 1967.21 319.994C1969.98 328.148 1965.61 337.003 1957.46 339.772Z" fill="#1A1B1F"/>
<path d="M1788.33 212.408L1735.1 308.996C1731.71 315.154 1723.97 317.395 1717.81 314.002L1712.8 311.24C1706.64 307.847 1704.4 300.103 1707.79 293.945L1761.02 197.357C1764.41 191.199 1772.15 188.958 1778.31 192.351L1783.32 195.113C1789.48 198.507 1791.72 206.25 1788.33 212.408Z" fill="#1A1B1F"/>
<path d="M1631.12 174.527L1625.92 248.492C1625.51 254.26 1620.5 258.607 1614.74 258.201L1605.59 257.557C1599.82 257.151 1595.48 252.146 1595.88 246.378L1601.09 172.413C1601.5 166.645 1606.5 162.298 1612.27 162.704L1621.41 163.348C1627.18 163.754 1631.53 168.759 1631.12 174.527Z" fill="#1A1B1F"/>
</g>
</svg>
