<svg width="9" height="16" viewBox="0 0 9 16" fill="none" xmlns="http://www.w3.org/2000/svg">
<path d="M0.34416 0.352184C0.123795 0.577756 9.15048e-07 0.883656 9.01106e-07 1.20261C8.87164e-07 1.52157 0.123795 1.82747 0.34416 2.05305L6.16269 8.00726L0.344159 13.9615C0.130041 14.1883 0.0115608 14.4922 0.0142387 14.8076C0.0169166 15.123 0.140538 15.4247 0.358479 15.6477C0.576418 15.8707 0.871239 15.9972 1.17944 16C1.48764 16.0027 1.78457 15.8815 2.00626 15.6623L8.65584 8.85769C8.87621 8.63212 9 8.32622 9 8.00726C9 7.6883 8.87621 7.3824 8.65584 7.15683L2.00626 0.352184C1.78583 0.126681 1.4869 -3.28408e-07 1.17521 -3.42032e-07C0.863521 -3.55657e-07 0.564591 0.126681 0.34416 0.352184Z" fill="white"/>
</svg>
