<svg width="47" height="47" viewBox="0 0 47 47" fill="none" xmlns="http://www.w3.org/2000/svg">
<path d="M38.6796 11.8748V11.4856H37.5927V11.9813L37.5486 12.0107L37.5927 12.1245V12.3375L30.7924 32.5291L31.5304 33.3222L37.5927 15.2309V34.78H38.6796V15.2493L44.8593 33.179L45.8214 32.5658L38.6796 11.8748ZM9.20909 11.4856H8.11855V11.8491L1.18237 32.5805L2.15542 33.1974L8.11855 15.2309V34.78H9.20909V15.2493L15.2677 33.2304L16.2297 32.6136L9.20909 11.8748V11.4856Z" fill="#1C1C1B"/>
<path d="M31.6955 41.2572C31.6478 41.0846 31.5082 41.0002 31.4385 40.9634C31.2806 40.8312 31.0933 40.7431 30.8914 40.7027C29.2574 39.928 27.4104 39.0504 26.643 37.5559C26.5329 35.7751 26.0518 33.2892 25.0457 32.0261V14.9886C25.9197 14.5884 26.3272 13.6373 26.3272 12.018C26.3272 10.2519 25.8168 7.85781 24.8658 6.7232C25.2 6.41109 25.3872 5.98516 25.3872 5.51883C25.3872 4.60086 24.6418 3.85547 23.7239 3.85547C22.8059 3.85547 22.0605 4.60086 22.0605 5.51883C22.0605 5.98516 22.2478 6.41477 22.5782 6.7232C21.6272 7.85781 21.1168 10.2519 21.1168 12.018C21.1168 13.6373 21.5244 14.5884 22.3983 14.9886V32.0261C21.3996 33.2819 20.9149 35.753 20.8047 37.5266C20.0336 39.01 18.2197 39.8619 16.2957 40.7578L16.0313 40.8827C15.7816 41.0002 15.7339 41.1801 15.7302 41.2866C15.6171 41.4751 15.5574 41.6909 15.5576 41.9108C15.5576 42.5901 16.1121 43.1445 16.7914 43.1445H30.6454C31.3246 43.1445 31.8791 42.5901 31.8791 41.9108C31.8864 41.6795 31.8204 41.4555 31.6955 41.2572Z" fill="#1E1E1E"/>
<path d="M38.1177 8.92994C37.8457 8.9303 37.5772 8.99111 37.3315 9.10799C37.0859 9.22487 36.8694 9.39488 36.6975 9.60574C36.5257 9.81659 36.4028 10.063 36.3379 10.3272C36.273 10.5913 36.2676 10.8666 36.3221 11.1331C35.3454 11.6141 34.3026 11.8381 33.0505 11.8381C32.3418 11.8381 31.6368 11.7646 30.9832 11.6214C28.5635 10.7622 26.6468 10.2959 23.4706 10.2959C20.2026 10.2959 18.4548 10.8026 16.1819 11.57C15.4953 11.7132 14.6654 11.7977 13.9127 11.7977C12.6532 11.7977 11.6068 11.5663 10.6264 11.0706C10.6447 10.9642 10.6557 10.8613 10.6557 10.7585C10.6557 9.74877 9.83324 8.92627 8.82348 8.92627C7.81371 8.92627 6.99121 9.74877 6.99121 10.7585C6.99121 11.5517 7.49793 12.2493 8.25801 12.4953C9.91035 13.4831 11.761 13.9604 13.9164 13.9604C15.4843 13.9604 17.0264 13.7034 18.385 13.2187L18.8404 13.0535C20.254 12.6459 21.44 12.4256 23.4779 12.4256C25.7325 12.4256 26.7753 12.6936 28.2807 13.1269L28.6075 13.2407C29.9588 13.7144 31.4973 13.9641 33.0615 13.9641C35.2757 13.9641 37.1667 13.4684 38.8117 12.4623C39.5093 12.1796 39.961 11.5149 39.961 10.7622C39.95 9.75244 39.1275 8.92994 38.1177 8.92994Z" fill="#1E1E1E"/>
<path fill-rule="evenodd" clip-rule="evenodd" d="M1.09412 32.4851H16.292C17.0154 32.4851 17.3275 33.3994 16.7583 33.8437L15.7229 34.6515C11.5076 37.9378 5.58115 37.8754 1.43561 34.5046L0.613106 33.8364C0.0623249 33.381 0.378106 32.4851 1.09412 32.4851ZM30.7078 32.4851H45.9057C46.629 32.4851 46.9412 33.3994 46.372 33.8437L45.3365 34.6515C41.1212 37.9378 35.1948 37.8754 31.0493 34.5046L30.2268 33.8364C29.6723 33.381 29.9918 32.4851 30.7078 32.4851Z" fill="#FD6600"/>
</svg>
