<svg width="24" height="22" viewBox="0 0 24 22" fill="none" xmlns="http://www.w3.org/2000/svg">
<path d="M2.49304 3.91662C2.49304 4.24493 2.55771 4.57002 2.68334 4.87333C2.80898 5.17664 2.99313 5.45224 3.22527 5.68439C3.45742 5.91653 3.73302 6.10068 4.03633 6.22632C4.33965 6.35196 4.66474 6.41662 4.99304 6.41662C5.32134 6.41662 5.64643 6.35196 5.94975 6.22632C6.25306 6.10068 6.52866 5.91653 6.7608 5.68439C6.99295 5.45224 7.1771 5.17664 7.30274 4.87333C7.42837 4.57002 7.49304 4.24493 7.49304 3.91662C7.49304 3.25358 7.22965 2.6177 6.7608 2.14886C6.29196 1.68002 5.65608 1.41663 4.99304 1.41663C4.33 1.41663 3.69411 1.68002 3.22527 2.14886C2.75643 2.6177 2.49304 3.25358 2.49304 3.91662Z" stroke="black" stroke-linecap="round" stroke-linejoin="round"/>
<path d="M15.493 12.4167H22.972C23.0401 12.4158 23.1076 12.4288 23.1705 12.4549C23.2333 12.4811 23.2902 12.5197 23.3375 12.5686C23.3849 12.6175 23.4218 12.6755 23.446 12.7391C23.4701 12.8028 23.481 12.8707 23.478 12.9387C23.3448 15.2314 22.3402 17.3865 20.6698 18.9626C18.9994 20.5388 16.7896 21.4167 14.493 21.4167H9.49304C7.19644 21.4167 4.9867 20.5388 3.31631 18.9626C1.64591 17.3865 0.641258 15.2314 0.508054 12.9387C0.505054 12.8707 0.515968 12.8028 0.540127 12.7391C0.564286 12.6755 0.601183 12.6175 0.648556 12.5686C0.695928 12.5197 0.75278 12.4811 0.815628 12.4549C0.878476 12.4288 0.945997 12.4158 1.01405 12.4167H5.99305" stroke="black" stroke-linecap="round" stroke-linejoin="round"/>
<path d="M3.4931 12.4166V9.91664C3.49312 9.64515 3.56682 9.37876 3.70634 9.14587C3.84586 8.91298 4.04597 8.72232 4.28534 8.59423C4.5247 8.46613 4.79434 8.40539 5.06551 8.4185C5.33668 8.4316 5.59921 8.51806 5.8251 8.66864L8.6021 10.5166C8.85536 10.6835 9.15302 10.7702 9.45626 10.7653C9.75951 10.7605 10.0543 10.6645 10.3021 10.4896L11.4161 9.68964C11.5764 9.57513 11.7578 9.49332 11.9497 9.44888C12.1417 9.40445 12.3405 9.39826 12.5349 9.43066C12.7292 9.46307 12.9153 9.53344 13.0825 9.63776C13.2496 9.74208 13.3946 9.87829 13.5091 10.0386C13.6236 10.199 13.7054 10.3803 13.7499 10.5723C13.7943 10.7642 13.8005 10.9631 13.7681 11.1574C13.7357 11.3518 13.6653 11.5378 13.561 11.705C13.4567 11.8722 13.3204 12.0171 13.1601 12.1316L12.0451 12.9316C11.3005 13.4585 10.4143 13.7482 9.50228 13.7628C8.5903 13.7774 7.69516 13.5163 6.9341 13.0136L5.9931 12.4166" stroke="black" stroke-linecap="round" stroke-linejoin="round"/>
</svg>
