<svg width="22" height="22" viewBox="0 0 22 22" fill="none" xmlns="http://www.w3.org/2000/svg">
<path d="M15.7 4.9574H18.0009L21.4791 15.3922H1.47916L4.95741 4.9574H7.27567" stroke="black" stroke-linecap="round" stroke-linejoin="round"/>
<path d="M21.4791 15.3922V19.3053C21.4791 19.6512 21.3417 19.983 21.0971 20.2276C20.8525 20.4722 20.5207 20.6096 20.1748 20.6096H2.7835C2.43757 20.6096 2.1058 20.4722 1.86119 20.2276C1.61658 19.983 1.47916 19.6512 1.47916 19.3053V15.3922" stroke="black" stroke-linecap="round" stroke-linejoin="round"/>
<path d="M3.79742 8.43567H19.16" stroke="black" stroke-linecap="round" stroke-linejoin="round"/>
<path d="M16.0713 6.12429C16.0931 6.18969 16.099 6.25932 16.0886 6.32746C16.0782 6.3956 16.0517 6.46027 16.0114 6.51616C15.971 6.57205 15.918 6.61755 15.8566 6.64889C15.7952 6.68024 15.7272 6.69655 15.6583 6.69646H7.30526C7.23633 6.69655 7.16837 6.68024 7.10698 6.64889C7.04559 6.61755 6.99254 6.57205 6.95219 6.51616C6.91185 6.46027 6.88537 6.3956 6.87494 6.32746C6.86451 6.25932 6.87043 6.18969 6.89221 6.12429L7.56613 4.08777H15.0792C15.1704 4.08784 15.2593 4.11659 15.3332 4.16996C15.4072 4.22334 15.4625 4.29862 15.4913 4.38516L16.0713 6.12429Z" stroke="black" stroke-linecap="round" stroke-linejoin="round"/>
<path d="M4.95743 4.95738V2.78347C4.95743 2.43754 5.09485 2.10577 5.33946 1.86116C5.58407 1.61655 5.91584 1.47913 6.26177 1.47913H16.6965C17.0425 1.47913 17.3742 1.61655 17.6189 1.86116C17.8635 2.10577 18.0009 2.43754 18.0009 2.78347V4.95738" stroke="black" stroke-linecap="round" stroke-linejoin="round"/>
<path d="M4.08786 20.6096V21.4792" stroke="black" stroke-linecap="round" stroke-linejoin="round"/>
<path d="M18.8705 20.6096V21.4792" stroke="black" stroke-linecap="round" stroke-linejoin="round"/>
</svg>
