<svg width="64" height="64" viewBox="0 0 64 64" fill="none" xmlns="http://www.w3.org/2000/svg">
<g clip-path="url(#clip0_19_5)">
<path d="M63.792 56.921C63.7925 57.8242 63.6151 58.7188 63.2697 59.5534C62.9244 60.388 62.418 61.1464 61.7794 61.7853C61.1409 62.4241 60.3827 62.9309 59.5482 63.2766C58.7137 63.6223 57.8193 63.8001 56.916 63.8H6.87601C5.05238 63.7989 3.3038 63.0737 2.01477 61.7837C0.725727 60.4937 0.00174878 58.7446 0.00201423 56.921V6.88098C0.00254424 5.05795 0.726906 3.30973 2.01589 2.02056C3.30487 0.731392 5.05299 0.00677664 6.87601 0.00598145H56.916C60.716 0.00598145 63.792 3.08598 63.792 6.88098V56.921Z" fill="#FF5B00"/>
<path d="M32.3891 13.3848C34.9254 13.3848 36.9814 11.3288 36.9814 8.79251C36.9814 6.25624 34.9254 4.2002 32.3891 4.2002C29.8529 4.2002 27.7968 6.25624 27.7968 8.79251C27.7968 11.3288 29.8529 13.3848 32.3891 13.3848Z" fill="white"/>
<path d="M42.9113 20.1889C42.8835 17.6077 40.9366 15.2425 38.6501 14.8472C38.1948 14.7701 37.7339 14.7313 37.2722 14.7311C35.8127 14.7272 33.911 14.7311 32.3891 14.7311C30.8673 14.7311 28.9627 14.7272 27.5051 14.7311C27.0446 14.733 26.5792 14.7685 26.1272 14.8472C23.8407 15.2425 21.8957 17.6077 21.866 20.1889C21.866 20.1889 18.1929 28.9983 18.5211 29.6806C18.8463 30.3628 26.6099 35.0952 26.6099 35.0952L26.869 31.1861C26.869 31.1861 23.1949 28.0225 23.2515 27.275C23.312 26.5266 25.517 20.9104 25.517 20.9104C25.8336 20.946 26.1599 20.9421 26.4765 20.9104C26.9361 20.8654 27.0839 21.1091 27.0609 21.5735C27.0494 21.7721 27.0609 21.9707 27.0609 22.1674V57.6547C27.0609 58.0088 27.0628 58.3667 27.0829 58.7226C27.1328 59.7033 27.7066 60.5419 28.5357 60.8595C29.9922 61.4218 31.467 60.2358 31.4709 58.4828C31.4785 51.7661 31.4747 45.0493 31.4747 38.3326C31.4747 37.1879 31.8403 36.7907 32.3872 36.6707H32.3911C32.9342 36.7907 33.3017 37.1879 33.3017 38.3326C33.3017 45.0493 33.2988 51.7661 33.3055 58.4828C33.3112 60.2339 34.7851 61.4218 36.2417 60.8595C37.0697 60.5419 37.6454 59.7052 37.6963 58.7226C37.7126 58.3669 37.7193 58.0108 37.7165 57.6547V22.1674C37.7165 21.9707 37.726 21.7721 37.7165 21.5735C37.6963 21.1091 37.8441 20.8654 38.2998 20.9104C38.6175 20.9421 38.9447 20.946 39.2575 20.9104C39.2575 20.9104 41.5152 26.4728 41.5219 27.275C41.5363 28.0753 37.9084 31.1861 37.9084 31.1861L38.1674 35.0952C38.1674 35.0952 46.0308 30.5144 46.2572 29.6806C46.477 28.8506 42.9113 20.1889 42.9113 20.1889Z" fill="white"/>
</g>
<defs>
<clipPath id="clip0_19_5">
<rect width="64" height="64" fill="white"/>
</clipPath>
</defs>
</svg>
