<svg width="22" height="22" viewBox="0 0 22 22" fill="none" xmlns="http://www.w3.org/2000/svg">
<path d="M5.80615 1.47913V5.82694" stroke="black" stroke-linecap="round" stroke-linejoin="round"/>
<path d="M11.0235 1.47913V5.82694" stroke="black" stroke-linecap="round" stroke-linejoin="round"/>
<path d="M16.2409 1.47913V5.82694" stroke="black" stroke-linecap="round" stroke-linejoin="round"/>
<path d="M17.9801 3.21826H19.7192C19.9498 3.21826 20.171 3.30988 20.3341 3.47295C20.4971 3.63603 20.5887 3.8572 20.5887 4.08783V20.6095C20.5887 20.8402 20.4971 21.0613 20.3341 21.2244C20.171 21.3875 19.9498 21.4791 19.7192 21.4791H2.32791C2.09728 21.4791 1.87611 21.3875 1.71303 21.2244C1.54996 21.0613 1.45834 20.8402 1.45834 20.6095V4.08783C1.45834 3.8572 1.54996 3.63603 1.71303 3.47295C1.87611 3.30988 2.09728 3.21826 2.32791 3.21826H4.04008" stroke="black" stroke-linecap="round" stroke-linejoin="round"/>
<path d="M4.06705 7.56604V18.4356C4.06705 18.4927 4.07829 18.5492 4.10014 18.602C4.12199 18.6547 4.15402 18.7027 4.19439 18.743C4.23477 18.7834 4.28269 18.8154 4.33545 18.8373C4.3882 18.8591 4.44473 18.8704 4.50183 18.8704H17.5453C17.6606 18.8704 17.7712 18.8246 17.8527 18.743C17.9343 18.6615 17.9801 18.5509 17.9801 18.4356V7.56604" stroke="black" stroke-linecap="round" stroke-linejoin="round"/>
<path d="M7.51834 3.21826H11.0236" stroke="black" stroke-linecap="round" stroke-linejoin="round"/>
<path d="M12.7627 3.21826H16.2409" stroke="black" stroke-linecap="round" stroke-linejoin="round"/>
</svg>
