<?xml version="1.0" encoding="UTF-8"?><svg id="Layer_2" xmlns="http://www.w3.org/2000/svg" viewBox="0 0 17.56 16.97"><defs><style>.cls-1{fill:#a8a8a8;}</style></defs><g id="Layer_1-2"><path class="cls-1" d="m16.42,4.96L10.44.55c-.49-.36-1.08-.55-1.66-.55s-1.17.18-1.66.55L1.14,4.96c-.71.53-1.14,1.36-1.14,2.25v6.96c0,1.54,1.25,2.8,2.8,2.8h11.97c1.54,0,2.8-1.25,2.8-2.8v-6.96c0-.89-.42-1.72-1.14-2.25Zm-.2,9.21c0,.81-.66,1.46-1.46,1.46H2.8c-.81,0-1.46-.66-1.46-1.46v-6.96c0-.46.22-.9.59-1.18L7.91,1.62c.25-.19.55-.29.87-.29s.62.1.87.29l5.98,4.42c.37.27.59.71.59,1.18v6.96Z"/></g></svg>