<svg width="73" height="74" viewBox="0 0 73 74" fill="none" xmlns="http://www.w3.org/2000/svg">
<path d="M61.6411 26.3321C61.6416 24.567 61.1121 22.8424 60.1212 21.3817C59.1303 19.921 57.7235 18.7915 56.0833 18.1395C56.7811 16.5187 56.9765 14.7259 56.6442 12.9929C56.312 11.2599 55.4673 9.66643 54.2196 8.4187C52.9719 7.17096 51.3784 6.32633 49.6454 5.99408C47.9124 5.66183 46.1196 5.85724 44.4989 6.55504C43.8461 4.91578 42.7166 3.51008 41.2563 2.51974C39.796 1.52941 38.0722 1 36.3077 1C34.5433 1 32.8195 1.52941 31.3592 2.51974C29.8989 3.51008 28.7694 4.91578 28.1166 6.55504C26.4955 5.85429 24.7012 5.65658 22.9664 5.98751C21.2316 6.31845 19.6361 7.16278 18.3868 8.41111C17.1374 9.65943 16.2918 11.2542 15.9594 12.9888C15.6271 14.7233 15.8233 16.5177 16.5227 18.1395C14.8822 18.791 13.4751 19.9201 12.4837 21.3805C11.4923 22.8409 10.9623 24.5654 10.9623 26.3306C10.9623 28.0957 11.4923 29.8202 12.4837 31.2806C13.4751 32.7411 14.8822 33.8702 16.5227 34.5217C15.8249 36.1424 15.6295 37.9352 15.9618 39.6682C16.294 41.4013 17.1386 42.9947 18.3864 44.2424C19.6341 45.4902 21.2276 46.3348 22.9606 46.667C24.6936 46.9993 26.4864 46.8039 28.1071 46.1061C28.7586 47.7466 29.8877 49.1537 31.3482 50.1451C32.8086 51.1365 34.5331 51.6665 36.2982 51.6665C38.0634 51.6665 39.7879 51.1365 41.2483 50.1451C42.7088 49.1537 43.8379 47.7466 44.4894 46.1061C46.1101 46.8039 47.9029 46.9993 49.6359 46.667C51.3689 46.3348 52.9624 45.4902 54.2101 44.2424C55.4578 42.9947 56.3025 41.4013 56.6347 39.6682C56.967 37.9352 56.7716 36.1424 56.0738 34.5217C57.7158 33.8721 59.1247 32.7439 60.1175 31.2835C61.1103 29.8231 61.6411 28.098 61.6411 26.3321Z" fill="#FD6600"/>
<path d="M54.2116 8.41716C52.9634 7.16974 51.3696 6.32547 49.6364 5.9935C47.9032 5.66154 46.1102 5.85715 44.4894 6.55504C43.8366 4.91578 42.7071 3.51008 41.2468 2.51974C39.7865 1.52941 38.0627 1 36.2982 1C34.5338 1 32.81 1.52941 31.3497 2.51974C29.8894 3.51008 28.7599 4.91578 28.1071 6.55504C26.4864 5.85724 24.6936 5.66183 22.9606 5.99408C21.2276 6.32633 19.6341 7.17096 18.3864 8.4187C17.1386 9.66643 16.294 11.2599 15.9618 12.9929C15.6295 14.7259 15.8249 16.5187 16.5227 18.1395C14.8822 18.791 13.4751 19.9201 12.4837 21.3805C11.4923 22.8409 10.9623 24.5654 10.9623 26.3306C10.9623 28.0957 11.4923 29.8202 12.4837 31.2806C13.4751 32.7411 14.8822 33.8702 16.5227 34.5217C15.8235 36.1423 15.6272 37.9356 15.9592 39.6691C16.2913 41.4026 17.1363 42.9964 18.3848 44.244L54.2116 8.41716Z" fill="#DFF9FF"/>
<path d="M61.5177 45.7483L71.4236 62.9033C71.8607 63.657 71.5123 64.17 70.6541 64.0117L60.0197 62.2129L56.3335 72.3469C56.0358 73.1639 55.4278 73.2209 54.9844 72.4735L45.4838 56.408" fill="#FD6600"/>
<path d="M61.5177 45.7483L71.4236 62.9033C71.8607 63.657 71.5123 64.17 70.6541 64.0117L60.0197 62.2129L56.3335 72.3469C56.0358 73.1639 55.4278 73.2209 54.9844 72.4735L45.4838 56.408" stroke="black" stroke-width="2" stroke-linecap="round" stroke-linejoin="round"/>
<path d="M11.0948 45.7483L1.18881 62.9033C0.751777 63.657 1.10013 64.17 1.95835 64.0117L12.5927 62.2129L16.2821 72.3469C16.5798 73.1671 17.1878 73.2209 17.6312 72.4735L27.1318 56.427" fill="#FD6600"/>
<path d="M11.0948 45.7483L1.18881 62.9033C0.751777 63.657 1.10013 64.17 1.95835 64.0117L12.5927 62.2129L16.2821 72.3469C16.5798 73.1671 17.1878 73.2209 17.6312 72.4735L27.1318 56.427" stroke="black" stroke-width="2" stroke-linecap="round" stroke-linejoin="round"/>
<path d="M61.6411 26.3321C61.6416 24.567 61.1121 22.8424 60.1212 21.3817C59.1303 19.921 57.7235 18.7915 56.0833 18.1395C56.7811 16.5187 56.9765 14.7259 56.6442 12.9929C56.312 11.2599 55.4673 9.66643 54.2196 8.4187C52.9719 7.17096 51.3784 6.32633 49.6454 5.99408C47.9124 5.66183 46.1196 5.85724 44.4989 6.55504C43.8461 4.91578 42.7166 3.51008 41.2563 2.51974C39.796 1.52941 38.0722 1 36.3077 1C34.5433 1 32.8195 1.52941 31.3592 2.51974C29.8989 3.51008 28.7694 4.91578 28.1166 6.55504C26.4955 5.85429 24.7012 5.65658 22.9664 5.98751C21.2316 6.31845 19.6361 7.16278 18.3868 8.41111C17.1374 9.65943 16.2918 11.2542 15.9594 12.9888C15.6271 14.7233 15.8233 16.5177 16.5227 18.1395C14.8822 18.791 13.4751 19.9201 12.4837 21.3805C11.4923 22.8409 10.9623 24.5654 10.9623 26.3306C10.9623 28.0957 11.4923 29.8202 12.4837 31.2806C13.4751 32.7411 14.8822 33.8702 16.5227 34.5217C15.8249 36.1424 15.6295 37.9352 15.9618 39.6682C16.294 41.4013 17.1386 42.9947 18.3864 44.2424C19.6341 45.4902 21.2276 46.3348 22.9606 46.667C24.6936 46.9993 26.4864 46.8039 28.1071 46.1061C28.7586 47.7466 29.8877 49.1537 31.3482 50.1451C32.8086 51.1365 34.5331 51.6665 36.2982 51.6665C38.0634 51.6665 39.7879 51.1365 41.2483 50.1451C42.7088 49.1537 43.8379 47.7466 44.4894 46.1061C46.1101 46.8039 47.9029 46.9993 49.6359 46.667C51.3689 46.3348 52.9624 45.4902 54.2101 44.2424C55.4578 42.9947 56.3025 41.4013 56.6347 39.6682C56.967 37.9352 56.7716 36.1424 56.0738 34.5217C57.7158 33.8721 59.1247 32.7439 60.1175 31.2835C61.1103 29.8231 61.6411 28.098 61.6411 26.3321Z" stroke="black" stroke-width="2" stroke-linecap="round" stroke-linejoin="round"/>
<path d="M48.9737 18.415L34.0292 33.3626C33.8087 33.5833 33.5468 33.7584 33.2585 33.8779C32.9702 33.9973 32.6612 34.0588 32.3492 34.0588C32.0372 34.0588 31.7282 33.9973 31.4399 33.8779C31.1517 33.7584 30.8898 33.5833 30.6692 33.3626L25.2222 27.9156" stroke="black" stroke-width="2" stroke-linecap="round" stroke-linejoin="round"/>
</svg>
