<svg width="40" height="40" viewBox="0 0 40 40" fill="none" xmlns="http://www.w3.org/2000/svg">
<g clip-path="url(#clip0_126_96)">
<path d="M30.625 0H9.375C4.19733 0 0 4.19733 0 9.375V30.625C0 35.8027 4.19733 40 9.375 40H30.625C35.8027 40 40 35.8027 40 30.625V9.375C40 4.19733 35.8027 0 30.625 0Z" fill="#5865F2"/>
<mask id="mask0_126_96" style="mask-type:luminance" maskUnits="userSpaceOnUse" x="4" y="7" width="32" height="26">
<path d="M4.375 7.96875H35.625V32.1766H4.375V7.96875Z" fill="white"/>
</mask>
<g mask="url(#mask0_126_96)">
<path d="M30.8293 10.1245C28.8033 9.19445 26.6652 8.53126 24.4685 8.15151C24.4485 8.14782 24.4279 8.15051 24.4096 8.15921C24.3912 8.1679 24.3761 8.18216 24.3663 8.19995C24.0916 8.68839 23.7872 9.32589 23.5743 9.82683C21.1722 9.46714 18.7827 9.46714 16.4301 9.82683C16.2169 9.31464 15.9016 8.68839 15.6257 8.19995C15.6155 8.18253 15.6002 8.16858 15.582 8.15994C15.5637 8.1513 15.5433 8.14836 15.5233 8.15151C13.3265 8.53049 11.1883 9.19372 9.16256 10.1245C9.14522 10.1318 9.13059 10.1444 9.12069 10.1604C5.06944 16.2129 3.95975 22.1167 4.50412 27.9473C4.50564 27.9616 4.51002 27.9754 4.517 27.988C4.52398 28.0006 4.53341 28.0116 4.54475 28.0204C7.21756 29.9834 9.80678 31.1751 12.3479 31.965C12.3676 31.9708 12.3887 31.9706 12.4083 31.9641C12.4279 31.9577 12.4451 31.9455 12.4576 31.929C13.0587 31.1081 13.5944 30.2426 14.054 29.3325C14.0603 29.32 14.0639 29.3063 14.0646 29.2924C14.0652 29.2784 14.0629 29.2644 14.0578 29.2514C14.0527 29.2384 14.0449 29.2267 14.0348 29.2169C14.0248 29.2071 14.0129 29.1996 13.9997 29.1948C13.1497 28.8723 12.3405 28.4793 11.5621 28.0329C11.5479 28.0246 11.536 28.0129 11.5274 27.9988C11.5188 27.9848 11.5138 27.9688 11.5129 27.9524C11.5119 27.936 11.515 27.9196 11.5218 27.9046C11.5287 27.8897 11.5392 27.8766 11.5522 27.8667C11.7165 27.7439 11.8779 27.6174 12.0363 27.4873C12.0502 27.4758 12.067 27.4685 12.0848 27.466C12.1027 27.4636 12.1208 27.4662 12.1372 27.4735C17.2516 29.8085 22.7883 29.8085 27.8422 27.4735C27.8587 27.4657 27.8771 27.4628 27.8952 27.465C27.9133 27.4672 27.9305 27.4745 27.9446 27.486C28.1032 27.6169 28.265 27.7438 28.4299 27.8667C28.4431 27.8765 28.4536 27.8895 28.4606 27.9044C28.4675 27.9193 28.4707 27.9357 28.4699 27.9521C28.469 27.9685 28.4642 27.9845 28.4557 27.9986C28.4472 28.0127 28.4354 28.0245 28.4213 28.0329C27.6424 28.4877 26.8266 28.876 25.9824 29.1935C25.9693 29.1986 25.9574 29.2063 25.9475 29.2162C25.9376 29.2261 25.9298 29.238 25.9248 29.2511C25.9198 29.2643 25.9177 29.2783 25.9185 29.2923C25.9192 29.3063 25.923 29.32 25.9294 29.3325C26.3969 30.2354 26.93 31.1028 27.5244 31.9278C27.5365 31.9447 27.5536 31.9573 27.5733 31.964C27.593 31.9707 27.6142 31.971 27.6341 31.965C30.1876 31.1751 32.7768 29.9834 35.4497 28.0204C35.4612 28.012 35.4707 28.0012 35.4777 27.9888C35.4847 27.9764 35.4891 27.9627 35.4904 27.9485C36.1419 21.2078 34.399 15.3523 30.8699 10.1617C30.8613 10.1448 30.8468 10.1316 30.8293 10.1245ZM14.8177 24.3971C13.2779 24.3971 12.0091 22.9835 12.0091 21.2475C12.0091 19.5114 13.2533 18.0978 14.8177 18.0978C16.3943 18.0978 17.6507 19.5239 17.626 21.2475C17.626 22.9835 16.3819 24.3971 14.8177 24.3971ZM25.2015 24.3971C23.6616 24.3971 22.393 22.9835 22.393 21.2475C22.393 19.5114 23.6371 18.0978 25.2015 18.0978C26.778 18.0978 28.0344 19.5239 28.0099 21.2475C28.0099 22.9835 26.778 24.3971 25.2015 24.3971Z" fill="white"/>
</g>
</g>
<defs>
<clipPath id="clip0_126_96">
<rect width="40" height="40" fill="white"/>
</clipPath>
</defs>
</svg>
