<svg width="668" height="501" viewBox="0 0 668 501" fill="none" xmlns="http://www.w3.org/2000/svg">
<path fill-rule="evenodd" clip-rule="evenodd" d="M624.162 70.307L360.595 288.576C353.105 294.781 343.684 298.177 333.958 298.177C324.232 298.177 314.811 294.781 307.322 288.576L43.8792 70.307C42.465 74.5616 41.746 79.0165 41.75 83.5V417.5C41.75 428.573 46.1486 439.192 53.9783 447.022C61.8079 454.851 72.4272 459.25 83.5 459.25H584.5C595.573 459.25 606.192 454.851 614.022 447.022C621.851 439.192 626.25 428.573 626.25 417.5V83.5C626.267 79.0187 625.563 74.564 624.162 70.307ZM83.5 0H584.5C606.646 0 627.884 8.79729 643.543 24.4566C659.203 40.1159 668 61.3544 668 83.5V417.5C668 439.646 659.203 460.884 643.543 476.543C627.884 492.203 606.646 501 584.5 501H83.5C61.3544 501 40.1159 492.203 24.4566 476.543C8.7973 460.884 0 439.646 0 417.5V83.5C0 61.3544 8.7973 40.1159 24.4566 24.4566C40.1159 8.79729 61.3544 0 83.5 0ZM74.7325 41.75L307.531 233.925C314.986 240.084 324.349 243.463 334.019 243.486C343.69 243.508 353.068 240.174 360.553 234.05L595.689 41.75H74.7325Z" fill="#A0A0A0"/>
</svg>
