<svg width="30" height="30" viewBox="0 0 30 30" fill="none" xmlns="http://www.w3.org/2000/svg">
<circle cx="15" cy="15" r="15" fill="#1C1C1B"/>
<path d="M15 19C18.866 19 22 15.866 22 12C22 8.13401 18.866 5 15 5C11.134 5 8 8.13401 8 12C8 15.866 11.134 19 15 19Z" fill="#FD6600"/>
<path d="M10.5461 17.4L10.3511 18L9.7141 20.323C9.0861 22.615 8.7721 23.761 9.1911 24.388C9.3381 24.608 9.5351 24.784 9.7641 24.901C10.4161 25.233 11.4241 24.708 13.4391 23.658C14.1091 23.308 14.4451 23.134 14.8011 23.096C14.9341 23.082 15.0661 23.082 15.1991 23.096C15.5551 23.134 15.8901 23.308 16.5611 23.658C18.5761 24.708 19.5841 25.233 20.2361 24.901C20.4651 24.784 20.6621 24.608 20.8091 24.388C21.2291 23.761 20.9141 22.615 20.2861 20.323L19.6491 18L19.4541 17.4C18.2441 18.4 16.6921 19 15.0001 19C13.3081 19 11.7561 18.4 10.5461 17.4Z" fill="#F8F8F8"/>
</svg>
