<svg width="30" height="30" viewBox="0 0 30 30" fill="none" xmlns="http://www.w3.org/2000/svg">
<circle cx="15" cy="15" r="15" fill="#1C1C1B"/>
<path d="M13.6691 5.00035C13.5546 5.00035 13.4655 5.00036 13.3805 5.00542C12.8543 5.0374 12.3481 5.21805 11.9206 5.52637C11.493 5.8347 11.1618 6.25802 10.9653 6.74715C10.9329 6.82715 10.9046 6.91323 10.8651 7.02867C10.781 7.2555 10.5876 7.51372 10.3162 7.7203C10.2859 7.74359 10.2555 7.76485 10.2251 7.78511H12.1916C12.221 7.72435 12.2483 7.66359 12.2726 7.60081L12.2737 7.59777L12.2777 7.58764L12.2828 7.57549L12.2878 7.56334L12.2919 7.55321L12.2929 7.54815L12.298 7.536L12.301 7.52385L12.304 7.51777L12.3061 7.50967L12.3081 7.50258L12.3101 7.49651C12.3506 7.37904 12.3628 7.34157 12.3739 7.31322C12.4632 7.09072 12.6139 6.89816 12.8085 6.75797C13.003 6.61778 13.2333 6.53572 13.4726 6.52134C13.505 6.51931 13.5445 6.51931 13.6903 6.51931H16.5632C16.709 6.51931 16.7485 6.51931 16.7819 6.52134C17.27 6.55171 17.6973 6.85956 17.8796 7.31322C17.8908 7.34157 17.9029 7.37701 17.9434 7.49651L17.9454 7.50258L17.9475 7.50967L17.9505 7.51777L17.9525 7.52385L17.9556 7.536L17.9606 7.54815L17.9616 7.55321L17.9657 7.56334L17.9708 7.57549L17.9748 7.58764L17.9799 7.59777L17.9809 7.60081C18.0052 7.66359 18.0315 7.72435 18.0619 7.78511H20.0284C19.9981 7.76485 19.9677 7.74359 19.9373 7.7203C19.6659 7.51372 19.4725 7.25448 19.3884 7.02867L19.3854 7.01854C19.349 6.91019 19.3206 6.82513 19.2892 6.74614C19.0925 6.25705 18.7611 5.83384 18.3334 5.52569C17.9056 5.21754 17.3993 5.03713 16.8731 5.00542C16.7769 5.00088 16.6807 4.99919 16.5845 5.00035H13.6691Z" fill="white"/>
<path fill-rule="evenodd" clip-rule="evenodd" d="M20.384 7.78516H9.86876C8.15943 7.78516 7.30577 7.78516 6.65364 8.11933C6.08628 8.40983 5.62468 8.87144 5.33417 9.43879C5 10.0909 5 10.9446 5 12.6539C5 13.0883 5 13.305 5.07392 13.4883C5.13866 13.6484 5.24323 13.7892 5.37771 13.8974C5.53265 14.021 5.74024 14.0827 6.15744 14.2083L11.5821 15.8356V17.0639C11.5821 17.8386 12.048 18.5535 12.7841 18.8533L13.3512 19.0831C14.4894 19.5459 15.7633 19.5459 16.9015 19.0831L17.4686 18.8533C17.8242 18.7084 18.1285 18.4608 18.3427 18.142C18.5568 17.8233 18.671 17.4479 18.6706 17.0639V15.8356L24.0963 14.2083C24.5115 14.0827 24.7201 14.021 24.874 13.8974C25.0085 13.7892 25.1131 13.6484 25.1778 13.4883C25.2527 13.3061 25.2527 13.0883 25.2527 12.6539C25.2527 10.9446 25.2527 10.0909 24.9186 9.43879C24.6281 8.87144 24.1665 8.40983 23.5991 8.11933C22.947 7.78516 22.0933 7.78516 20.384 7.78516ZM16.7466 14.8736H13.5061C13.2834 14.8736 13.1011 15.0579 13.1011 15.2847V17.0639C13.1011 17.232 13.2024 17.3829 13.3553 17.4457L13.9223 17.6766C14.696 17.9905 15.5567 17.9905 16.3294 17.6766L16.8965 17.4457C16.9721 17.4146 17.0367 17.3616 17.0821 17.2937C17.1276 17.2257 17.1518 17.1457 17.1516 17.0639V15.2847C17.152 15.2312 17.1419 15.178 17.1217 15.1283C17.1016 15.0787 17.0719 15.0335 17.0343 14.9953C16.9967 14.9571 16.9519 14.9267 16.9025 14.9058C16.8532 14.885 16.8002 14.874 16.7466 14.8736Z" fill="#FD6600"/>
<path d="M6.0127 14.1648L6.15649 14.2083L11.5822 15.8356V17.064C11.5822 17.8386 12.048 18.5536 12.7842 18.8533L13.3513 19.0832C14.4895 19.546 15.7634 19.546 16.9016 19.0832L17.4687 18.8533C17.8243 18.7085 18.1286 18.4608 18.3427 18.1421C18.5568 17.8233 18.671 17.448 18.6707 17.064V15.8356L24.0964 14.2083L24.2402 14.1648V15.1774C24.2402 18.8989 24.2047 22.6588 22.9055 23.8132C21.5708 25 19.422 25 15.1264 25C10.8298 25 8.68201 25 7.34735 23.8132C6.04814 22.6588 6.01371 18.8989 6.0127 15.1774V14.1648Z" fill="white"/>
</svg>
