<svg width="30" height="30" viewBox="0 0 30 30" fill="none" xmlns="http://www.w3.org/2000/svg">
<circle cx="15" cy="15" r="15" fill="#1C1C1B"/>
<path fill-rule="evenodd" clip-rule="evenodd" d="M12.2031 8.5C12.3331 9.319 12.5261 10.095 12.7781 10.584C12.9761 10.969 13.3641 11.458 13.8961 11.991C14.2611 12.356 14.6481 12.697 15.0001 12.987C15.3521 12.697 15.7401 12.356 16.1041 11.991C16.6361 11.458 17.0241 10.969 17.2221 10.584C17.4741 10.095 17.6661 9.319 17.7971 8.5H12.2031ZM11.5411 6.5C10.6971 6.5 10.0231 7.197 10.1211 8.036C10.2461 9.112 10.4991 10.526 11.0001 11.5C11.6721 12.805 13.2181 14.143 14.1801 14.893C14.6651 15.273 15.3351 15.273 15.8201 14.893C16.7831 14.143 18.3291 12.805 19.0001 11.5C19.5011 10.527 19.7541 9.112 19.8801 8.036C19.9771 7.196 19.3031 6.5 18.4591 6.5H11.5411Z" fill="white"/>
<path fill-rule="evenodd" clip-rule="evenodd" d="M17.7969 20.4999C17.6669 19.6809 17.4739 18.9049 17.2219 18.4159C17.0239 18.0309 16.6359 17.5409 16.1039 17.0089C15.7518 16.6597 15.3834 16.3273 14.9999 16.0129C14.6479 16.3029 14.2599 16.6439 13.8959 17.0089C13.3639 17.5409 12.9759 18.0309 12.7779 18.4159C12.5259 18.9049 12.3339 19.6809 12.2029 20.4999H17.7969ZM18.4589 22.4999C19.3029 22.4999 19.9769 21.8029 19.8789 20.9649C19.7539 19.8879 19.5009 18.4729 18.9999 17.4999C18.3279 16.1949 16.7819 14.8569 15.8199 14.1069C15.5862 13.923 15.2973 13.823 14.9999 13.823C14.7025 13.823 14.4137 13.923 14.1799 14.1069C13.2169 14.8569 11.6719 16.1949 10.9999 17.4999C10.4989 18.4729 10.2459 19.8879 10.1199 20.9649C10.0229 21.8029 10.6969 22.4999 11.5409 22.4999H18.4589Z" fill="white"/>
<path d="M12 20.25C12 20.25 14 18.75 15 18.75C16 18.75 18 20.25 18 20.25V20.75H12V20.25Z" fill="#FD6600"/>
<path fill-rule="evenodd" clip-rule="evenodd" d="M9 7C9 6.73478 9.10536 6.48043 9.29289 6.29289C9.48043 6.10536 9.73478 6 10 6H20C20.2652 6 20.5196 6.10536 20.7071 6.29289C20.8946 6.48043 21 6.73478 21 7C21 7.26522 20.8946 7.51957 20.7071 7.70711C20.5196 7.89464 20.2652 8 20 8H10C9.73478 8 9.48043 7.89464 9.29289 7.70711C9.10536 7.51957 9 7.26522 9 7ZM9 22C9 21.7348 9.10536 21.4804 9.29289 21.2929C9.48043 21.1054 9.73478 21 10 21H20C20.2652 21 20.5196 21.1054 20.7071 21.2929C20.8946 21.4804 21 21.7348 21 22C21 22.2652 20.8946 22.5196 20.7071 22.7071C20.5196 22.8946 20.2652 23 20 23H10C9.73478 23 9.48043 22.8946 9.29289 22.7071C9.10536 22.5196 9 22.2652 9 22Z" fill="white"/>
</svg>
