<svg width="22" height="22" viewBox="0 0 22 22" fill="none" xmlns="http://www.w3.org/2000/svg">
<path d="M18.5596 14.7812H4.33734V2.33676C4.33734 1.80343 4.6929 1.44788 5.22623 1.44788H17.6707C18.204 1.44788 18.5596 1.80343 18.5596 2.33676V14.7812Z" stroke="black" stroke-miterlimit="10" stroke-linecap="round" stroke-linejoin="round"/>
<path d="M20.1151 21.4479H2.7818V15.6701C2.7818 15.1368 3.13735 14.7812 3.67069 14.7812H19.2262C19.7596 14.7812 20.1151 15.1368 20.1151 15.6701V21.4479Z" stroke="black" stroke-miterlimit="10" stroke-linecap="round" stroke-linejoin="round"/>
<path d="M13.2262 21.4479V19.2257C13.2262 18.2479 12.4262 17.4479 11.4485 17.4479C10.4707 17.4479 9.67068 18.2479 9.67068 19.2257V21.4479" stroke="black" stroke-miterlimit="10" stroke-linecap="round" stroke-linejoin="round"/>
<path d="M11.4485 4.1145V5.00339" stroke="black" stroke-miterlimit="10" stroke-linecap="round" stroke-linejoin="round"/>
<path d="M11.4485 7.67017V8.55905" stroke="black" stroke-miterlimit="10" stroke-linecap="round" stroke-linejoin="round"/>
<path d="M11.4485 11.2256V12.1145" stroke="black" stroke-miterlimit="10" stroke-linecap="round" stroke-linejoin="round"/>
<path d="M7.67047 4.1145V5.00339" stroke="black" stroke-miterlimit="10" stroke-linecap="round" stroke-linejoin="round"/>
<path d="M7.67047 7.67017V8.55905" stroke="black" stroke-miterlimit="10" stroke-linecap="round" stroke-linejoin="round"/>
<path d="M7.67047 11.2256V12.1145" stroke="black" stroke-miterlimit="10" stroke-linecap="round" stroke-linejoin="round"/>
<path d="M15.2264 4.1145V5.00339" stroke="black" stroke-miterlimit="10" stroke-linecap="round" stroke-linejoin="round"/>
<path d="M15.2264 7.67017V8.55905" stroke="black" stroke-miterlimit="10" stroke-linecap="round" stroke-linejoin="round"/>
<path d="M15.2264 11.2256V12.1145" stroke="black" stroke-miterlimit="10" stroke-linecap="round" stroke-linejoin="round"/>
<path d="M21.4485 21.4479H1.44846" stroke="black" stroke-miterlimit="10" stroke-linecap="round" stroke-linejoin="round"/>
</svg>
