<svg width="64" height="64" viewBox="0 0 64 64" fill="none" xmlns="http://www.w3.org/2000/svg">
<g clip-path="url(#clip0_19_2)">
<path d="M64 57.1C64 60.911 60.913 64 57.104 64H6.89397C5.06432 63.9994 3.3098 63.2722 2.01623 61.9783C0.722659 60.6843 -0.0040284 58.9296 -0.00402832 57.1V6.89995C-0.00349816 5.07065 0.723424 3.31643 2.01693 2.02292C3.31045 0.729405 5.06467 0.00248328 6.89397 0.00195312H57.104C60.914 0.00195312 64 3.09195 64 6.89995V57.1Z" fill="#FF5B00"/>
<path d="M32.624 4.19995C33.2306 4.19995 33.8313 4.31951 34.3917 4.55178C34.9522 4.78406 35.4613 5.1245 35.8901 5.55365C36.3189 5.98281 36.6589 6.49225 36.8907 7.05287C37.1225 7.6135 37.2415 8.2143 37.241 8.82095C37.2414 9.42752 37.1222 10.0282 36.8904 10.5887C36.6585 11.1492 36.3185 11.6586 35.8897 12.0876C35.461 12.5166 34.9519 12.857 34.3915 13.0892C33.8312 13.3214 33.2305 13.441 32.624 13.441C32.0171 13.4412 31.4161 13.3219 30.8554 13.0898C30.2946 12.8578 29.7851 12.5175 29.3558 12.0885C28.9266 11.6595 28.5861 11.1501 28.3538 10.5894C28.1215 10.0288 28.002 9.42783 28.002 8.82095C28.0018 8.21404 28.1213 7.61305 28.3536 7.05234C28.5858 6.49162 28.9263 5.98218 29.3556 5.55312C29.7848 5.12406 30.2944 4.7838 30.8552 4.55179C31.416 4.31977 32.0171 4.20056 32.624 4.20095M44.22 30.96C43.239 26.915 42.238 22.879 41.24 18.842C40.613 16.282 38.78 14.594 36.612 14.566V14.564H28.684C26.493 14.564 24.639 16.264 24.003 18.842C23.004 22.879 22.005 26.915 21.024 30.959C20.8824 31.5522 20.802 32.1583 20.784 32.768C20.77 33.495 21.124 33.993 21.669 34.267C22.246 34.556 22.779 34.392 23.169 33.842C23.414 33.494 23.592 33.038 23.699 32.591C24.569 29.068 25.398 25.53 26.267 22.006C26.607 20.642 26.329 20.806 27.604 20.796C28.326 20.793 28.338 20.816 28.144 21.666C26.804 27.59 25.462 33.5129 24.127 39.4389C23.94 40.2689 23.755 41.109 23.559 42.014H27.356V58.534C27.356 59.895 28.281 60.998 29.411 60.998C30.547 60.998 31.468 59.895 31.468 58.534V42.0169H33.813V58.535C33.813 59.896 34.735 60.998 35.87 60.998C37.004 60.998 37.924 59.896 37.924 58.535V42.0169H41.686C41.503 41.1567 41.3143 40.2977 41.12 39.4399C39.78 33.5159 38.438 27.592 37.099 21.67C36.908 20.818 36.921 20.794 37.641 20.799C38.915 20.806 38.637 20.644 38.977 22.009C39.846 25.532 40.679 29.071 41.544 32.593C41.653 33.039 41.831 33.496 42.076 33.845C42.467 34.393 42.999 34.557 43.573 34.268C44.12 33.995 44.475 33.499 44.461 32.771C44.4454 32.1602 44.3653 31.5528 44.222 30.959M23.87 14.538C23.577 14.715 23.07 14 22.813 13.013C22.558 12.023 22.955 11.169 23.247 10.993C23.539 10.814 27.388 9.59095 27.646 10.579C27.9 11.569 24.16 14.366 23.868 14.539M41.375 14.554C41.668 14.73 42.175 14.016 42.433 13.028C42.688 12.038 42.289 11.184 41.998 11.009C41.706 10.831 37.858 9.60795 37.599 10.596C37.341 11.585 41.084 14.383 41.377 14.554" fill="white"/>
</g>
<defs>
<clipPath id="clip0_19_2">
<rect width="64" height="64" fill="white"/>
</clipPath>
</defs>
</svg>
