<svg width="427" height="501" viewBox="0 0 427 501" fill="none" xmlns="http://www.w3.org/2000/svg">
<path d="M401.318 313.132C417.709 282.34 426.256 247.982 426.2 213.1C426.2 95.4061 330.794 0 213.1 0C95.4064 0 0.000312601 95.4061 0.000312601 213.1C-0.0859506 263.37 17.6838 312.037 50.1415 350.424L50.3922 350.737C50.4799 350.813 50.5551 350.913 50.6178 350.988H50.1415L176.597 485.241C181.285 490.217 186.941 494.182 193.217 496.892C199.494 499.602 206.258 501 213.094 501C219.93 501 226.694 499.602 232.971 496.892C239.247 494.182 244.903 490.217 249.59 485.241L376.059 350.988H375.583L375.783 350.75L375.808 350.725C376.711 349.647 377.613 348.569 378.503 347.466C387.198 336.779 394.839 325.289 401.318 313.132ZM213.163 294.567C193.216 294.567 174.085 286.643 159.98 272.538C145.875 258.433 137.951 239.302 137.951 219.355C137.951 199.408 145.875 180.277 159.98 166.172C174.085 152.067 193.216 144.143 213.163 144.143C233.11 144.143 252.241 152.067 266.346 166.172C280.451 180.277 288.375 199.408 288.375 219.355C288.375 239.302 280.451 258.433 266.346 272.538C252.241 286.643 233.11 294.567 213.163 294.567Z" fill="#A0A0A0"/>
</svg>
