<svg width="21" height="22" viewBox="0 0 21 22" fill="none" xmlns="http://www.w3.org/2000/svg">
<path d="M2.22379 12.7836H18.7455" stroke="black" stroke-linecap="round" stroke-linejoin="round"/>
<path d="M0.520294 7.56616H20.4838" stroke="black" stroke-linecap="round" stroke-linejoin="round"/>
<path d="M8.31073 3.21826H12.6577" stroke="black" stroke-linecap="round" stroke-linejoin="round"/>
<path d="M1.35422 7.56609L3.40726 3.45826C3.44347 3.386 3.49911 3.32527 3.56792 3.28287C3.63673 3.24048 3.716 3.2181 3.79683 3.21826H5.70204" stroke="black" stroke-linecap="round" stroke-linejoin="round"/>
<path d="M15.2664 3.21826H17.1733C17.2538 3.21834 17.3326 3.24074 17.4011 3.28296C17.4696 3.32517 17.525 3.38556 17.5612 3.45739L19.6325 7.56609" stroke="black" stroke-linecap="round" stroke-linejoin="round"/>
<path d="M15.2664 9.3053H17.0055V11.0444H15.2664V9.3053Z" stroke="black" stroke-linecap="round" stroke-linejoin="round"/>
<path d="M11.7881 9.3053H13.5272V11.0444H11.7881V9.3053Z" stroke="black" stroke-linecap="round" stroke-linejoin="round"/>
<path d="M7.44116 9.3053H9.18029V11.0444H7.44116V9.3053Z" stroke="black" stroke-linecap="round" stroke-linejoin="round"/>
<path d="M3.96292 9.3053H5.70205V11.0444H3.96292V9.3053Z" stroke="black" stroke-linecap="round" stroke-linejoin="round"/>
<path d="M12.6577 21.4791V17.566C12.6577 17.4507 12.6119 17.3401 12.5303 17.2586C12.4488 17.177 12.3382 17.1312 12.2229 17.1312H8.74463C8.68753 17.1312 8.63099 17.1425 8.57824 17.1643C8.52549 17.1862 8.47756 17.2182 8.43719 17.2586C8.39682 17.2989 8.36479 17.3469 8.34294 17.3996C8.32109 17.4524 8.30984 17.5089 8.30984 17.566V21.4791" stroke="black" stroke-linecap="round" stroke-linejoin="round"/>
<path d="M14.3968 14.5227H17.0055V17.1314H14.3968V14.5227Z" stroke="black" stroke-linecap="round" stroke-linejoin="round"/>
<path d="M3.96292 14.5227H6.57162V17.1314H3.96292V14.5227Z" stroke="black" stroke-linecap="round" stroke-linejoin="round"/>
<path d="M15.2664 1.91391C15.2664 1.7986 15.2206 1.68801 15.139 1.60647C15.0575 1.52493 14.9469 1.47913 14.8316 1.47913H13.0925C12.9772 1.47913 12.8666 1.52493 12.785 1.60647C12.7035 1.68801 12.6577 1.7986 12.6577 1.91391V5.82695H15.2664V1.91391Z" stroke="black" stroke-linecap="round" stroke-linejoin="round"/>
<path d="M8.31072 1.91391C8.31072 1.7986 8.26491 1.68801 8.18338 1.60647C8.10184 1.52493 7.99125 1.47913 7.87594 1.47913H6.13681C6.0215 1.47913 5.91091 1.52493 5.82937 1.60647C5.74783 1.68801 5.70203 1.7986 5.70203 1.91391V5.82695H8.31072V1.91391Z" stroke="black" stroke-linecap="round" stroke-linejoin="round"/>
<path d="M18.7446 21.0444C18.7446 21.1597 18.6988 21.2703 18.6173 21.3519C18.5358 21.4334 18.4252 21.4792 18.3099 21.4792H2.65768C2.54237 21.4792 2.43178 21.4334 2.35025 21.3519C2.26871 21.2703 2.2229 21.1597 2.2229 21.0444V7.56616H18.7446V21.0444Z" stroke="black" stroke-linecap="round" stroke-linejoin="round"/>
</svg>
