<?xml version="1.0" encoding="UTF-8"?><svg id="Layer_2" xmlns="http://www.w3.org/2000/svg" viewBox="0 0 103.12 40"><defs><style>.cls-1{fill:#f4f4f4;}.cls-2{fill:#ff6700;}.cls-3{fill:#161616;}</style></defs><g id="Layer_1-2"><path class="cls-1" d="m0,35.4V12.07h9.17v27.93h-4.56c-2.56,0-4.6-2.04-4.6-4.6Z"/><path class="cls-1" d="m103.12,12.07l-10.43,27.93h-10.99l-5.26-15.64-.78-2.39h-.13l-.79,2.39-5.25,15.64h-13.92v-16.77c0-3.06-1.69-4.66-5.12-4.81-.17,0-.35-.01-.53-.01-2,0-3.65.52-4.91,1.57-1.35,1.17-2,2.82-2,4.91v15.12h-9.21v-16.77c0-3.21-1.82-4.82-5.51-4.82-2.04,0-3.69.52-5,1.57-1.35,1.17-2.04,2.82-2.04,4.91v10.51c0,2.57-2.04,4.61-4.61,4.61h-4.56V12.07h9.17v3.76c.9-1.13,2.26-2.14,4.12-2.98,2.18-1,4.56-1.52,7.08-1.52,4.86,0,8.08,1.74,9.64,5.25,1.61-2.09,3.61-3.56,6.03-4.39.11-.05.22-.08.34-.12,1.55-.49,3.27-.74,5.15-.74,3.22,0,5.78.69,7.69,2.13,2.3,1.69,3.44,4.21,3.44,7.6v10.02c.35-1.04,5.1-15.15,5.19-15.31.96-2.18,3.17-3.69,5.69-3.69s4.69,1.52,5.65,3.69c.08.17,5.21,15.38,5.21,15.38h.14l5.47-16.29c.7-1.65,2.3-2.78,4.22-2.78h6.82Z"/><path class="cls-3" d="m49.61,11.33h.39c-.12.04-.23.07-.34.12l-.05-.12Z"/><circle class="cls-2" cx="4.58" cy="4.58" r="4.58"/><path class="cls-1" d="m14.41,5.93c-.21.12-.45.19-.71.19-.42,0-.77-.14-1.05-.42-.28-.28-.41-.63-.41-1.04s.14-.75.41-1.04.62-.42,1.05-.42c.25,0,.48.06.69.18s.38.28.49.49l.14-.09c-.13-.22-.32-.4-.56-.54s-.5-.2-.77-.2c-.47,0-.85.16-1.16.47-.31.31-.46.7-.46,1.15s.15.83.46,1.15c.31.31.7.47,1.16.47.29,0,.55-.07.79-.21.24-.14.42-.32.55-.55l-.15-.08c-.11.21-.27.38-.49.5Z"/><path class="cls-1" d="m17.28,3.93c-.33,0-.6.11-.83.34-.23.23-.34.5-.34.83s.11.61.34.83c.23.23.5.34.83.34s.61-.11.83-.34c.23-.23.34-.5.34-.83s-.11-.61-.34-.83c-.23-.23-.5-.34-.83-.34Zm.72,1.89c-.2.2-.44.29-.72.29s-.52-.1-.72-.29c-.2-.2-.29-.44-.29-.72s.1-.53.29-.72c.2-.2.44-.29.72-.29s.52.1.72.29c.2.2.3.44.3.72s-.1.53-.3.72Z"/><path class="cls-1" d="m20.73,3.93c-.19,0-.36.05-.51.14-.15.09-.26.23-.34.41v-.5h-.16v2.24h.16v-1.19c0-.3.08-.53.23-.69.15-.17.36-.25.6-.25.22,0,.4.07.52.2s.19.31.19.53v1.41h.16v-1.41c0-.27-.08-.48-.24-.64-.16-.16-.36-.24-.62-.24Z"/><path class="cls-1" d="m23.94,5.09c-.14-.03-.28-.07-.41-.1-.14-.03-.25-.08-.35-.15-.1-.07-.15-.16-.15-.28,0-.14.06-.26.17-.34.11-.09.25-.13.43-.13.14,0,.27.03.38.09.11.06.19.15.23.27l.13-.08c-.06-.13-.15-.24-.28-.32s-.28-.12-.46-.12c-.23,0-.41.06-.55.18-.14.12-.21.27-.21.45,0,.15.05.26.15.35s.21.15.35.18c.14.03.28.07.41.1.14.03.25.08.35.15.1.07.15.16.15.29,0,.15-.06.26-.18.35-.12.09-.27.13-.45.13-.38,0-.62-.14-.71-.41l-.13.08c.12.33.4.49.84.49.23,0,.42-.06.57-.18.15-.12.22-.27.22-.45,0-.15-.05-.27-.15-.36-.1-.09-.21-.15-.35-.18Z"/><path class="cls-1" d="m27.32,5.18c0,.3-.08.53-.23.69-.16.17-.36.25-.6.25-.22,0-.4-.07-.52-.2-.13-.13-.19-.31-.19-.53v-1.41h-.16v1.41c0,.27.08.48.24.64.16.16.36.24.62.24.19,0,.36-.05.51-.14s.26-.23.34-.41v.5h.16v-2.24h-.16v1.19Z"/><rect class="cls-1" x="28.91" y="2.95" width=".16" height="3.27"/><path class="cls-1" d="m30.92,3.36l-.16.05v.58h-.51v.15h.51v1.56c0,.23.07.39.2.47s.35.1.64.06v-.14c-.26.03-.44.02-.54-.03-.1-.05-.15-.17-.15-.36v-1.56h.69v-.15h-.69v-.63Z"/><path class="cls-1" d="m32.96,3.09s-.07.01-.1.04c-.03.03-.04.06-.04.1,0,.04.01.07.04.1.03.03.06.04.1.04s.07-.01.1-.04c.03-.03.04-.06.04-.1,0-.04-.01-.07-.04-.1-.03-.03-.06-.04-.1-.04Z"/><rect class="cls-1" x="32.88" y="3.98" width=".16" height="2.24"/><path class="cls-1" d="m35.47,3.93c-.19,0-.36.05-.51.14-.15.09-.26.23-.34.41v-.5h-.16v2.24h.16v-1.19c0-.3.08-.53.23-.69.15-.17.36-.25.6-.25.22,0,.4.07.52.2s.19.31.19.53v1.41h.16v-1.41c0-.27-.08-.48-.24-.64-.16-.16-.36-.24-.62-.24Z"/><path class="cls-1" d="m39.75,4.58c-.09-.2-.23-.35-.41-.47-.18-.12-.38-.17-.61-.17-.32,0-.6.11-.82.34-.23.23-.34.5-.34.83s.11.61.34.83c.23.23.5.34.82.34.23,0,.43-.06.61-.17.18-.12.31-.27.41-.47v.47c0,.28-.08.5-.25.67-.17.16-.4.25-.7.25-.24,0-.44-.04-.59-.13s-.26-.2-.32-.33l-.13.08c.08.16.21.29.39.39.18.1.4.15.66.15.33,0,.6-.1.81-.29s.3-.45.3-.78v-2.12h-.16v.6Zm-.29,1.25c-.2.2-.44.29-.72.29s-.52-.1-.72-.29-.29-.44-.29-.72.1-.53.29-.72.44-.29.72-.29.52.1.72.29c.2.2.29.44.29.72s-.1.53-.29.72Z"/><path class="cls-1" d="m44.28,5.09c-.14-.03-.28-.07-.41-.1-.14-.03-.25-.08-.35-.15-.1-.07-.15-.16-.15-.28,0-.14.06-.26.17-.34.11-.09.25-.13.43-.13.14,0,.27.03.38.09.11.06.19.15.23.27l.13-.08c-.06-.13-.15-.24-.28-.32s-.28-.12-.46-.12c-.23,0-.41.06-.55.18-.14.12-.21.27-.21.45,0,.15.05.26.15.35s.21.15.35.18c.14.03.28.07.41.1.14.03.25.08.35.15.1.07.15.16.15.29,0,.15-.06.26-.18.35-.12.09-.27.13-.45.13-.38,0-.62-.14-.71-.41l-.13.08c.12.33.4.49.84.49.23,0,.42-.06.57-.18.15-.12.22-.27.22-.45,0-.15-.05-.27-.15-.36-.1-.09-.21-.15-.35-.18Z"/><path class="cls-1" d="m46.95,3.93c-.33,0-.6.11-.82.34-.22.22-.32.5-.32.83s.11.62.33.84c.22.22.5.33.84.33.21,0,.41-.05.58-.14.17-.09.3-.21.39-.37l-.14-.08c-.07.13-.18.24-.32.32s-.31.12-.5.12c-.27,0-.51-.09-.69-.26-.19-.17-.29-.4-.31-.67h2.08s0-.04,0-.08c0-.32-.1-.6-.31-.83-.2-.23-.47-.35-.8-.35Zm-.98,1.11c.01-.28.11-.51.3-.69.18-.18.41-.27.69-.27.25,0,.47.09.65.26.18.17.28.4.3.69h-1.93Z"/><path class="cls-1" d="m49.48,4.49v-.51h-.16v2.24h.16v-1.24c0-.28.08-.5.23-.65.15-.15.34-.23.56-.23v-.15c-.17,0-.33.04-.47.13s-.25.22-.31.41Z"/><polygon class="cls-1" points="52.22 6.06 51.31 3.98 51.15 3.98 52.12 6.22 52.3 6.22 53.29 3.98 53.12 3.98 52.22 6.06"/><rect class="cls-1" x="54.41" y="3.98" width=".16" height="2.24"/><path class="cls-1" d="m54.49,3.09s-.07.01-.1.04c-.03.03-.04.06-.04.1,0,.04.01.07.04.1.03.03.06.04.1.04s.07-.01.1-.04c.03-.03.04-.06.04-.1,0-.04-.01-.07-.04-.1-.03-.03-.06-.04-.1-.04Z"/><path class="cls-1" d="m57.52,5.99c-.15.09-.32.13-.51.13-.29,0-.53-.1-.72-.29-.19-.2-.29-.44-.29-.72s.1-.53.29-.72c.19-.2.43-.29.72-.29.19,0,.36.04.52.13.15.09.26.21.34.35l.13-.08c-.08-.17-.21-.31-.39-.41s-.37-.15-.59-.15c-.33,0-.61.11-.83.34s-.34.5-.34.83.11.61.34.83.5.34.83.34c.22,0,.41-.05.59-.15s.31-.24.39-.41l-.13-.08c-.08.15-.19.26-.34.35Z"/><path class="cls-1" d="m60.2,3.93c-.33,0-.6.11-.82.34-.22.22-.32.5-.32.83s.11.62.33.84c.22.22.5.33.84.33.21,0,.41-.05.58-.14.17-.09.3-.21.39-.37l-.14-.08c-.07.13-.18.24-.32.32s-.31.12-.5.12c-.27,0-.51-.09-.69-.26-.19-.17-.29-.4-.31-.67h2.08s0-.04,0-.08c0-.32-.1-.6-.31-.83-.2-.23-.47-.35-.8-.35Zm-.98,1.11c.01-.28.11-.51.3-.69.18-.18.41-.27.69-.27.25,0,.47.09.65.26.18.17.28.4.3.69h-1.93Z"/><path class="cls-1" d="m63.46,5.09c-.14-.03-.28-.07-.41-.1-.14-.03-.25-.08-.35-.15-.1-.07-.15-.16-.15-.28,0-.14.06-.26.17-.34.11-.09.25-.13.43-.13.14,0,.27.03.38.09.11.06.19.15.23.27l.13-.08c-.06-.13-.15-.24-.28-.32s-.28-.12-.46-.12c-.23,0-.41.06-.55.18-.14.12-.21.27-.21.45,0,.15.05.26.15.35s.21.15.35.18c.14.03.28.07.41.1.14.03.25.08.35.15.1.07.15.16.15.29,0,.15-.06.26-.18.35-.12.09-.27.13-.45.13-.38,0-.62-.14-.71-.41l-.13.08c.12.33.4.49.84.49.23,0,.42-.06.57-.18.15-.12.22-.27.22-.45,0-.15-.05-.27-.15-.36-.1-.09-.21-.15-.35-.18Z"/><path class="cls-1" d="m69.2,4.58c-.09-.2-.23-.35-.41-.47-.18-.12-.39-.18-.61-.18-.32,0-.6.11-.82.34-.23.23-.34.5-.34.83s.11.61.34.83c.23.23.5.34.82.34.23,0,.43-.06.61-.18.18-.12.32-.28.41-.47v.6h.16v-2.24h-.16v.6Zm-.3,1.24c-.2.2-.44.29-.72.29s-.52-.1-.72-.29c-.2-.2-.29-.44-.29-.72s.1-.53.29-.72c.2-.2.44-.29.72-.29s.52.1.72.29c.2.2.3.44.3.72s-.1.53-.3.72Z"/><path class="cls-1" d="m71.79,3.93c-.19,0-.36.05-.51.14-.15.09-.26.23-.34.41v-.5h-.16v2.24h.16v-1.19c0-.3.08-.53.23-.69.15-.17.36-.25.6-.25.22,0,.4.07.52.2s.19.31.19.53v1.41h.16v-1.41c0-.27-.08-.48-.24-.64-.16-.16-.36-.24-.62-.24Z"/><path class="cls-1" d="m76.03,4.58c-.09-.2-.23-.35-.41-.47-.18-.12-.38-.17-.61-.17-.32,0-.6.11-.82.34-.23.23-.34.5-.34.83s.11.61.34.83c.23.23.5.34.82.34.23,0,.43-.06.61-.17.18-.12.31-.27.41-.47v.6h.16v-3.13h-.16v1.49Zm-.29,1.25c-.2.2-.44.29-.72.29s-.52-.1-.72-.29c-.2-.2-.29-.44-.29-.72s.1-.53.29-.72c.2-.2.44-.29.72-.29s.52.1.72.29c.2.2.29.44.29.72s-.1.53-.29.72Z"/><path class="cls-1" d="m80.56,5.09c-.14-.03-.28-.07-.41-.1-.14-.03-.25-.08-.35-.15-.1-.07-.15-.16-.15-.28,0-.14.06-.26.17-.34.11-.09.25-.13.43-.13.14,0,.27.03.38.09.11.06.19.15.23.27l.13-.08c-.06-.13-.15-.24-.28-.32s-.28-.12-.46-.12c-.23,0-.41.06-.55.18-.14.12-.21.27-.21.45,0,.15.05.26.15.35s.21.15.35.18c.14.03.28.07.41.1.14.03.25.08.35.15.1.07.15.16.15.29,0,.15-.06.26-.18.35-.12.09-.27.13-.45.13-.38,0-.62-.14-.71-.41l-.13.08c.12.33.4.49.84.49.23,0,.42-.06.57-.18.15-.12.22-.27.22-.45,0-.15-.05-.27-.15-.36-.1-.09-.21-.15-.35-.18Z"/><path class="cls-1" d="m83.26,3.93c-.33,0-.6.11-.83.34-.23.23-.34.5-.34.83s.11.61.34.83c.23.23.5.34.83.34s.61-.11.83-.34c.23-.23.34-.5.34-.83s-.11-.61-.34-.83c-.23-.23-.5-.34-.83-.34Zm.72,1.89c-.2.2-.44.29-.72.29s-.52-.1-.72-.29c-.2-.2-.29-.44-.29-.72s.1-.53.29-.72c.2-.2.44-.29.72-.29s.52.1.72.29c.2.2.3.44.3.72s-.1.53-.3.72Z"/><rect class="cls-1" x="85.71" y="2.95" width=".16" height="3.27"/><path class="cls-1" d="m88.94,5.18c0,.3-.08.53-.23.69-.16.17-.36.25-.6.25-.22,0-.4-.07-.52-.2-.13-.13-.19-.31-.19-.53v-1.41h-.16v1.41c0,.27.08.48.24.64.16.16.36.24.62.24.19,0,.36-.05.51-.14s.26-.23.34-.41v.5h.16v-2.24h-.16v1.19Z"/><path class="cls-1" d="m90.95,3.36l-.16.05v.58h-.51v.15h.51v1.56c0,.23.07.39.2.47s.35.1.64.06v-.14c-.26.03-.44.02-.54-.03-.1-.05-.15-.17-.15-.36v-1.56h.69v-.15h-.69v-.63Z"/><path class="cls-1" d="m92.99,3.09s-.07.01-.1.04c-.03.03-.04.06-.04.1,0,.04.01.07.04.1.03.03.06.04.1.04s.07-.01.1-.04c.03-.03.04-.06.04-.1,0-.04-.01-.07-.04-.1-.03-.03-.06-.04-.1-.04Z"/><rect class="cls-1" x="92.9" y="3.98" width=".16" height="2.24"/><path class="cls-1" d="m95.5,3.93c-.33,0-.6.11-.83.34-.23.23-.34.5-.34.83s.11.61.34.83c.23.23.5.34.83.34s.61-.11.83-.34c.23-.23.34-.5.34-.83s-.11-.61-.34-.83c-.23-.23-.5-.34-.83-.34Zm.72,1.89c-.2.2-.44.29-.72.29s-.52-.1-.72-.29c-.2-.2-.29-.44-.29-.72s.1-.53.29-.72c.2-.2.44-.29.72-.29s.52.1.72.29c.2.2.3.44.3.72s-.1.53-.3.72Z"/><path class="cls-1" d="m98.95,3.93c-.19,0-.36.05-.51.14-.15.09-.26.23-.34.41v-.5h-.16v2.24h.16v-1.19c0-.3.08-.53.23-.69.15-.17.36-.25.6-.25.22,0,.4.07.52.2s.19.31.19.53v1.41h.16v-1.41c0-.27-.08-.48-.24-.64-.16-.16-.36-.24-.62-.24Z"/><path class="cls-1" d="m102.52,5.28c-.1-.09-.21-.15-.35-.18-.14-.03-.28-.07-.41-.1-.14-.03-.25-.08-.35-.15-.1-.07-.15-.16-.15-.28,0-.14.06-.26.17-.34.11-.09.25-.13.43-.13.14,0,.27.03.38.09.11.06.19.15.23.27l.13-.08c-.06-.13-.15-.24-.28-.32s-.28-.12-.46-.12c-.23,0-.41.06-.55.18-.14.12-.21.27-.21.45,0,.15.05.26.15.35s.21.15.35.18c.14.03.28.07.41.1.14.03.25.08.35.15.1.07.15.16.15.29,0,.15-.06.26-.18.35-.12.09-.27.13-.45.13-.38,0-.62-.14-.71-.41l-.13.08c.12.33.4.49.84.49.23,0,.42-.06.57-.18.15-.12.22-.27.22-.45,0-.15-.05-.27-.15-.36Z"/></g></svg>