<?xml version="1.0" encoding="UTF-8"?><svg id="Layer_2" xmlns="http://www.w3.org/2000/svg" viewBox="0 0 215.24 83.49"><defs><style>.cls-1{fill:#ff6700;}.cls-2{fill:#1c1c1c;}</style></defs><g id="Layer_1-2"><path class="cls-2" d="m0,73.88V25.19h19.13v58.3h-9.52c-5.35,0-9.61-4.26-9.61-9.61Z"/><path class="cls-2" d="m215.24,25.2l-21.76,58.3h-22.94l-10.98-32.64-1.63-4.98h-.27l-1.64,4.98-10.97,32.64h-29.06v-35.01c0-6.38-3.54-9.74-10.68-10.03-.35-.01-.72-.03-1.1-.03-4.17,0-7.63,1.09-10.24,3.27-2.82,2.45-4.17,5.89-4.17,10.24v31.56h-19.23v-35.01c0-6.71-3.81-10.06-11.5-10.06-4.26,0-7.71,1.09-10.43,3.27-2.82,2.45-4.26,5.89-4.26,10.24v21.93c0,5.36-4.26,9.62-9.62,9.62h-9.51V25.2h19.13v7.85c1.88-2.36,4.73-4.47,8.6-6.23,4.54-2.08,9.52-3.17,14.79-3.17,10.15,0,16.87,3.62,20.12,10.97,3.35-4.37,7.54-7.43,12.58-9.17.23-.1.47-.17.71-.25,3.23-1.03,6.82-1.54,10.74-1.54,6.72,0,12.07,1.44,16.05,4.44,4.81,3.54,7.17,8.79,7.17,15.86v20.91c.74-2.18,10.66-31.63,10.84-31.97,2-4.54,6.62-7.71,11.89-7.71s9.79,3.17,11.79,7.71c.17.35,10.87,32.09,10.87,32.09h.28l11.42-34c1.46-3.45,4.81-5.8,8.8-5.8h14.24Z"/><path class="cls-2" d="m103.55,23.65h.81c-.24.08-.48.16-.71.25l-.1-.25Z"/><circle class="cls-1" cx="9.57" cy="9.57" r="9.57"/><path class="cls-2" d="m30.08,12.38c-.45.26-.94.39-1.48.39-.88,0-1.61-.29-2.18-.88-.58-.59-.86-1.31-.86-2.16s.29-1.57.86-2.16c.58-.59,1.3-.88,2.18-.88.52,0,1.01.13,1.45.38s.79.59,1.03,1.01l.3-.18c-.27-.47-.66-.84-1.16-1.12s-1.04-.42-1.62-.42c-.97,0-1.78.33-2.43.98-.65.65-.97,1.45-.97,2.39s.32,1.74.97,2.39c.64.65,1.45.98,2.43.98.6,0,1.15-.14,1.65-.43.5-.29.89-.67,1.15-1.15l-.31-.17c-.23.44-.57.78-1.02,1.04Z"/><path class="cls-2" d="m36.07,8.21c-.68,0-1.26.24-1.73.71-.47.47-.71,1.05-.71,1.73s.24,1.26.71,1.73c.47.47,1.05.71,1.73.71s1.27-.23,1.74-.71c.47-.47.71-1.05.71-1.73s-.24-1.26-.71-1.73c-.47-.47-1.05-.71-1.74-.71Zm1.5,3.95c-.41.41-.91.61-1.5.61s-1.09-.2-1.5-.61c-.41-.41-.61-.91-.61-1.51s.2-1.1.61-1.51c.41-.41.91-.61,1.5-.61s1.09.2,1.5.61c.41.41.62.91.62,1.51s-.21,1.1-.62,1.51Z"/><path class="cls-2" d="m43.26,8.21c-.4,0-.75.09-1.06.28-.31.19-.54.48-.71.86v-1.04h-.34v4.67h.34v-2.49c0-.62.16-1.1.49-1.45.32-.35.74-.52,1.25-.52.46,0,.83.14,1.09.42s.4.65.4,1.1v2.93h.33v-2.93c0-.55-.16-1-.49-1.34-.33-.34-.76-.5-1.3-.5Z"/><path class="cls-2" d="m49.97,10.63c-.29-.07-.58-.14-.86-.21-.28-.07-.53-.17-.73-.31-.2-.14-.31-.33-.31-.58,0-.3.12-.54.35-.72.23-.18.53-.27.89-.27.3,0,.56.07.78.2.22.13.39.32.49.56l.27-.16c-.12-.28-.31-.5-.58-.67s-.59-.25-.96-.25c-.47,0-.86.13-1.14.38-.29.25-.43.57-.43.94,0,.31.1.55.3.73s.45.31.74.38c.29.07.58.14.86.21.28.07.53.18.73.32.2.14.3.34.3.6,0,.3-.12.55-.37.73-.25.18-.56.28-.94.28-.8,0-1.29-.29-1.49-.86l-.27.16c.25.68.83,1.02,1.76,1.02.49,0,.88-.13,1.19-.38.31-.25.46-.57.46-.95,0-.31-.1-.56-.3-.75-.2-.19-.45-.31-.74-.38Z"/><path class="cls-2" d="m57.03,10.8c0,.62-.16,1.1-.49,1.45-.32.35-.74.52-1.25.52-.46,0-.83-.14-1.09-.42-.27-.28-.4-.65-.4-1.1v-2.93h-.33v2.93c0,.55.16,1,.49,1.34.33.34.76.5,1.3.5.4,0,.75-.09,1.06-.28s.54-.47.71-.85v1.04h.34v-4.67h-.34v2.49Z"/><rect class="cls-2" x="60.34" y="6.17" width=".34" height="6.82"/><path class="cls-2" d="m64.54,7.01l-.33.1v1.21h-1.07v.31h1.07v3.26c0,.49.14.81.43.99s.73.21,1.34.12v-.29c-.54.06-.91.04-1.12-.07-.21-.11-.32-.36-.32-.75v-3.26h1.44v-.31h-1.44v-1.31Z"/><path class="cls-2" d="m68.79,6.46c-.08,0-.15.03-.21.09-.06.06-.08.13-.08.21,0,.07.03.14.08.2.06.06.12.09.21.09s.15-.03.21-.09c.06-.06.08-.13.08-.2,0-.08-.03-.15-.08-.21-.06-.06-.12-.09-.21-.09Z"/><rect class="cls-2" x="68.62" y="8.32" width=".34" height="4.67"/><path class="cls-2" d="m74.04,8.21c-.4,0-.75.09-1.06.28-.31.19-.54.48-.71.86v-1.04h-.34v4.67h.34v-2.49c0-.62.16-1.1.49-1.45.32-.35.74-.52,1.25-.52.46,0,.83.14,1.09.42s.4.65.4,1.1v2.93h.33v-2.93c0-.55-.16-1-.49-1.34-.33-.34-.76-.5-1.3-.5Z"/><path class="cls-2" d="m82.97,9.56c-.19-.41-.48-.74-.85-.98-.37-.24-.8-.36-1.28-.36-.67,0-1.25.24-1.72.71-.47.47-.71,1.05-.71,1.73s.24,1.26.71,1.73c.47.47,1.05.71,1.72.71.48,0,.91-.12,1.28-.36.37-.24.66-.57.85-.98v.99c0,.59-.17,1.05-.52,1.39-.35.34-.83.51-1.46.51-.5,0-.91-.09-1.23-.27s-.55-.41-.68-.69l-.28.16c.16.34.43.61.81.81.38.21.84.31,1.37.31.7,0,1.26-.2,1.68-.6s.64-.94.64-1.63v-4.42h-.34v1.24Zm-.61,2.6c-.41.41-.91.61-1.5.61s-1.09-.2-1.5-.61-.61-.91-.61-1.51.2-1.1.61-1.51.91-.61,1.5-.61,1.09.2,1.5.61c.41.41.61.91.61,1.51s-.2,1.1-.61,1.51Z"/><path class="cls-2" d="m92.42,10.63c-.29-.07-.58-.14-.86-.21-.28-.07-.53-.17-.73-.31-.2-.14-.31-.33-.31-.58,0-.3.12-.54.35-.72.23-.18.53-.27.89-.27.3,0,.56.07.78.2.22.13.39.32.49.56l.27-.16c-.12-.28-.31-.5-.58-.67s-.59-.25-.96-.25c-.47,0-.86.13-1.14.38-.29.25-.43.57-.43.94,0,.31.1.55.3.73s.45.31.74.38c.29.07.58.14.86.21.28.07.53.18.73.32.2.14.3.34.3.6,0,.3-.12.55-.37.73-.25.18-.56.28-.94.28-.8,0-1.29-.29-1.49-.86l-.27.16c.25.68.83,1.02,1.76,1.02.49,0,.88-.13,1.19-.38.31-.25.46-.57.46-.95,0-.31-.1-.56-.3-.75-.2-.19-.45-.31-.74-.38Z"/><path class="cls-2" d="m98.01,8.21c-.69,0-1.26.23-1.71.7-.45.47-.67,1.05-.67,1.74s.23,1.29.68,1.75c.45.46,1.04.69,1.75.69.45,0,.85-.09,1.2-.28.35-.19.62-.45.81-.77l-.29-.17c-.15.27-.38.49-.68.66s-.65.25-1.04.25c-.57,0-1.06-.18-1.45-.54-.39-.36-.61-.83-.65-1.41h4.35s0-.08,0-.16c0-.67-.21-1.24-.64-1.73-.43-.49-.98-.73-1.67-.73Zm-2.06,2.31c.03-.59.24-1.06.62-1.43.38-.37.86-.56,1.43-.56.53,0,.98.18,1.35.54.37.36.58.84.62,1.45h-4.03Z"/><path class="cls-2" d="m103.28,9.37v-1.06h-.34v4.67h.34v-2.6c0-.59.16-1.04.48-1.35.32-.31.71-.47,1.17-.47v-.32c-.36,0-.69.09-.99.28s-.52.47-.65.85Z"/><polygon class="cls-2" points="108.99 12.65 107.1 8.32 106.75 8.32 108.79 12.99 109.17 12.99 111.22 8.32 110.87 8.32 108.99 12.65"/><rect class="cls-2" x="113.58" y="8.32" width=".34" height="4.67"/><path class="cls-2" d="m113.74,6.46c-.08,0-.15.03-.21.09-.06.06-.08.13-.08.21,0,.07.03.14.08.2.06.06.12.09.21.09s.15-.03.21-.09c.06-.06.08-.13.08-.2,0-.08-.03-.15-.08-.21-.06-.06-.12-.09-.21-.09Z"/><path class="cls-2" d="m120.07,12.5c-.31.18-.67.28-1.07.28-.6,0-1.1-.2-1.5-.61-.41-.41-.61-.91-.61-1.51s.2-1.1.61-1.51c.4-.41.91-.61,1.5-.61.4,0,.76.09,1.08.28.32.18.55.43.7.73l.27-.16c-.17-.36-.45-.64-.81-.85s-.78-.32-1.23-.32c-.69,0-1.27.23-1.74.7s-.7,1.05-.7,1.74.23,1.27.7,1.74,1.05.7,1.74.7c.46,0,.87-.11,1.23-.32s.64-.5.82-.85l-.27-.16c-.16.31-.4.55-.72.73Z"/><path class="cls-2" d="m125.65,8.21c-.69,0-1.26.23-1.71.7-.45.47-.67,1.05-.67,1.74s.23,1.29.68,1.75c.45.46,1.04.69,1.75.69.45,0,.85-.09,1.2-.28.35-.19.62-.45.81-.77l-.29-.17c-.15.27-.38.49-.68.66s-.65.25-1.04.25c-.57,0-1.06-.18-1.45-.54-.39-.36-.61-.83-.65-1.41h4.35s0-.08,0-.16c0-.67-.21-1.24-.64-1.73-.43-.49-.98-.73-1.67-.73Zm-2.06,2.31c.03-.59.24-1.06.62-1.43.38-.37.86-.56,1.43-.56.53,0,.98.18,1.35.54.37.36.58.84.62,1.45h-4.03Z"/><path class="cls-2" d="m132.46,10.63c-.29-.07-.58-.14-.86-.21-.28-.07-.53-.17-.73-.31-.2-.14-.31-.33-.31-.58,0-.3.12-.54.35-.72.23-.18.53-.27.89-.27.3,0,.56.07.78.2.22.13.39.32.49.56l.27-.16c-.12-.28-.31-.5-.58-.67s-.59-.25-.96-.25c-.47,0-.86.13-1.14.38-.29.25-.43.57-.43.94,0,.31.1.55.3.73s.45.31.74.38c.29.07.58.14.86.21.28.07.53.18.73.32.2.14.3.34.3.6,0,.3-.12.55-.37.73-.25.18-.56.28-.94.28-.8,0-1.29-.29-1.49-.86l-.27.16c.25.68.83,1.02,1.76,1.02.49,0,.88-.13,1.19-.38.31-.25.46-.57.46-.95,0-.31-.1-.56-.3-.75-.2-.19-.45-.31-.74-.38Z"/><path class="cls-2" d="m144.43,9.57c-.19-.41-.47-.74-.85-.99-.38-.25-.81-.37-1.28-.37-.67,0-1.25.24-1.72.71-.47.47-.71,1.05-.71,1.73s.24,1.26.71,1.73c.47.47,1.05.71,1.72.71.47,0,.9-.12,1.28-.37.38-.25.66-.57.85-.99v1.25h.33v-4.67h-.33v1.25Zm-.62,2.59c-.41.41-.91.61-1.5.61s-1.09-.2-1.5-.61c-.41-.41-.61-.91-.61-1.51s.2-1.1.61-1.51c.41-.41.91-.61,1.5-.61s1.09.2,1.5.61c.41.41.62.91.62,1.51s-.21,1.1-.62,1.51Z"/><path class="cls-2" d="m149.84,8.21c-.4,0-.75.09-1.06.28-.31.19-.54.48-.71.86v-1.04h-.34v4.67h.34v-2.49c0-.62.16-1.1.49-1.45.32-.35.74-.52,1.25-.52.46,0,.83.14,1.09.42s.4.65.4,1.1v2.93h.33v-2.93c0-.55-.16-1-.49-1.34-.33-.34-.76-.5-1.3-.5Z"/><path class="cls-2" d="m158.7,9.56c-.19-.41-.48-.74-.85-.98-.37-.24-.8-.36-1.28-.36-.67,0-1.25.24-1.72.71-.47.47-.71,1.05-.71,1.73s.24,1.26.71,1.73c.47.47,1.05.71,1.72.71.48,0,.91-.12,1.28-.36.37-.24.66-.57.85-.98v1.24h.34v-6.54h-.34v3.11Zm-.61,2.6c-.41.41-.91.61-1.5.61s-1.09-.2-1.5-.61c-.41-.41-.61-.91-.61-1.51s.2-1.1.61-1.51c.41-.41.91-.61,1.5-.61s1.09.2,1.5.61c.41.41.61.91.61,1.51s-.2,1.1-.61,1.51Z"/><path class="cls-2" d="m168.16,10.63c-.29-.07-.58-.14-.86-.21-.28-.07-.53-.17-.73-.31-.2-.14-.31-.33-.31-.58,0-.3.12-.54.35-.72.23-.18.53-.27.89-.27.3,0,.56.07.78.2.22.13.39.32.49.56l.27-.16c-.12-.28-.31-.5-.58-.67s-.59-.25-.96-.25c-.47,0-.86.13-1.14.38-.29.25-.43.57-.43.94,0,.31.1.55.3.73s.45.31.74.38c.29.07.58.14.86.21.28.07.53.18.73.32.2.14.3.34.3.6,0,.3-.12.55-.37.73-.25.18-.56.28-.94.28-.8,0-1.29-.29-1.49-.86l-.27.16c.25.68.83,1.02,1.76,1.02.49,0,.88-.13,1.19-.38.31-.25.46-.57.46-.95,0-.31-.1-.56-.3-.75-.2-.19-.45-.31-.74-.38Z"/><path class="cls-2" d="m173.8,8.21c-.68,0-1.26.24-1.73.71-.47.47-.71,1.05-.71,1.73s.24,1.26.71,1.73c.47.47,1.05.71,1.73.71s1.27-.23,1.74-.71c.47-.47.71-1.05.71-1.73s-.24-1.26-.71-1.73c-.47-.47-1.05-.71-1.74-.71Zm1.5,3.95c-.41.41-.91.61-1.5.61s-1.09-.2-1.5-.61c-.41-.41-.61-.91-.61-1.51s.2-1.1.61-1.51c.41-.41.91-.61,1.5-.61s1.09.2,1.5.61c.41.41.62.91.62,1.51s-.21,1.1-.62,1.51Z"/><rect class="cls-2" x="178.89" y="6.17" width=".34" height="6.82"/><path class="cls-2" d="m185.64,10.8c0,.62-.16,1.1-.49,1.45-.32.35-.74.52-1.25.52-.46,0-.83-.14-1.09-.42-.27-.28-.4-.65-.4-1.1v-2.93h-.33v2.93c0,.55.16,1,.49,1.34.33.34.76.5,1.3.5.4,0,.75-.09,1.06-.28s.54-.47.71-.85v1.04h.34v-4.67h-.34v2.49Z"/><path class="cls-2" d="m189.83,7.01l-.33.1v1.21h-1.07v.31h1.07v3.26c0,.49.14.81.43.99s.73.21,1.34.12v-.29c-.54.06-.91.04-1.12-.07-.21-.11-.32-.36-.32-.75v-3.26h1.44v-.31h-1.44v-1.31Z"/><path class="cls-2" d="m194.08,6.46c-.08,0-.15.03-.21.09-.06.06-.08.13-.08.21,0,.07.03.14.08.2.06.06.12.09.21.09s.15-.03.21-.09c.06-.06.08-.13.08-.2,0-.08-.03-.15-.08-.21-.06-.06-.12-.09-.21-.09Z"/><rect class="cls-2" x="193.92" y="8.32" width=".34" height="4.67"/><path class="cls-2" d="m199.34,8.21c-.68,0-1.26.24-1.73.71-.47.47-.71,1.05-.71,1.73s.24,1.26.71,1.73c.47.47,1.05.71,1.73.71s1.27-.23,1.74-.71c.47-.47.71-1.05.71-1.73s-.24-1.26-.71-1.73c-.47-.47-1.05-.71-1.74-.71Zm1.5,3.95c-.41.41-.91.61-1.5.61s-1.09-.2-1.5-.61c-.41-.41-.61-.91-.61-1.51s.2-1.1.61-1.51c.41-.41.91-.61,1.5-.61s1.09.2,1.5.61c.41.41.62.91.62,1.51s-.21,1.1-.62,1.51Z"/><path class="cls-2" d="m206.53,8.21c-.4,0-.75.09-1.06.28-.31.19-.54.48-.71.86v-1.04h-.34v4.67h.34v-2.49c0-.62.16-1.1.49-1.45.32-.35.74-.52,1.25-.52.46,0,.83.14,1.09.42s.4.65.4,1.1v2.93h.33v-2.93c0-.55-.16-1-.49-1.34-.33-.34-.76-.5-1.3-.5Z"/><path class="cls-2" d="m213.98,11.02c-.2-.19-.45-.31-.74-.38-.29-.07-.58-.14-.86-.21-.28-.07-.53-.17-.73-.31-.2-.14-.31-.33-.31-.58,0-.3.12-.54.35-.72.23-.18.53-.27.89-.27.3,0,.56.07.78.2.22.13.39.32.49.56l.27-.16c-.12-.28-.31-.5-.58-.67s-.59-.25-.96-.25c-.47,0-.86.13-1.14.38-.29.25-.43.57-.43.94,0,.31.1.55.3.73s.45.31.74.38c.29.07.58.14.86.21.28.07.53.18.73.32.2.14.3.34.3.6,0,.3-.12.55-.37.73-.25.18-.56.28-.94.28-.8,0-1.29-.29-1.49-.86l-.27.16c.25.68.83,1.02,1.76,1.02.49,0,.88-.13,1.19-.38.31-.25.46-.57.46-.95,0-.31-.1-.56-.3-.75Z"/></g></svg>