<svg width="106" height="74" viewBox="0 0 106 74" fill="none" xmlns="http://www.w3.org/2000/svg">
<path d="M19.0001 23.4999C19.0001 22.3065 19.4742 21.1619 20.3181 20.318C21.162 19.474 22.3066 18.9999 23.5001 18.9999H100C101.194 18.9999 102.338 19.474 103.182 20.318C104.026 21.1619 104.5 22.3065 104.5 23.4999V68.5C104.5 69.6935 104.026 70.8381 103.182 71.682C102.338 72.5259 101.194 73 100 73H23.5001C22.3066 73 21.162 72.5259 20.3181 71.682C19.4742 70.8381 19.0001 69.6935 19.0001 68.5V23.4999Z" fill="#FD6600"/>
<path d="M10.0001 14.5C10.0001 13.3065 10.4742 12.1619 11.3181 11.318C12.1621 10.4741 13.3067 9.99997 14.5001 9.99997H91.0002C92.1937 9.99997 93.3383 10.4741 94.1822 11.318C95.0261 12.1619 95.5002 13.3065 95.5002 14.5V59.5C95.5002 60.6935 95.0261 61.8381 94.1822 62.682C93.3383 63.5259 92.1937 64 91.0002 64H14.5001C13.9092 64 13.324 63.8836 12.7781 63.6575C12.2321 63.4314 11.736 63.0999 11.3181 62.682C10.4742 61.8381 10.0001 60.6935 10.0001 59.5V14.5Z" fill="#FD6600"/>
<path d="M1 5.50001C1 4.30653 1.47411 3.16194 2.31802 2.31802C3.16194 1.47411 4.30653 1 5.50001 1H82.0001C83.1936 1 84.3382 1.47411 85.1821 2.31802C86.026 3.16194 86.5001 4.30653 86.5001 5.50001V50.5001C86.5001 51.6935 86.026 52.8381 85.1821 53.6821C84.3382 54.526 83.1936 55.0001 82.0001 55.0001H5.50001C4.30653 55.0001 3.16194 54.526 2.31802 53.6821C1.47411 52.8381 1 51.6935 1 50.5001V5.50001Z" fill="#DFF9FF"/>
<path d="M5.50001 1C4.30653 1 3.16194 1.47411 2.31802 2.31802C1.47411 3.16194 1 4.30653 1 5.50001V50.5001C0.999901 51.135 1.13417 51.7628 1.39399 52.3422C1.65381 52.9215 2.03329 53.4393 2.5075 53.8616L55.3781 1H5.50001Z" fill="#DFF9FF"/>
<path d="M1 5.50001C1 4.30653 1.47411 3.16194 2.31802 2.31802C3.16194 1.47411 4.30653 1 5.50001 1H82.0001C83.1936 1 84.3382 1.47411 85.1821 2.31802C86.026 3.16194 86.5001 4.30653 86.5001 5.50001V50.5001C86.5001 51.6935 86.026 52.8381 85.1821 53.6821C84.3382 54.526 83.1936 55.0001 82.0001 55.0001H5.50001C4.30653 55.0001 3.16194 54.526 2.31802 53.6821C1.47411 52.8381 1 51.6935 1 50.5001V5.50001Z" stroke="black" stroke-width="2" stroke-linecap="round" stroke-linejoin="round"/>
<path d="M95.5002 9.99997V59.5C95.5002 60.6935 95.0261 61.8381 94.1822 62.682C93.3383 63.5259 92.1937 64 91.0002 64H10.0001" stroke="black" stroke-width="2" stroke-linecap="round" stroke-linejoin="round"/>
<path d="M104.5 18.9999V68.5C104.5 69.6935 104.026 70.8381 103.182 71.682C102.338 72.5259 101.194 73 100 73H19.0001" stroke="black" stroke-width="2" stroke-linecap="round" stroke-linejoin="round"/>
<path d="M43.7501 41.5001C46.4202 41.5001 49.0303 40.7083 51.2503 39.2249C53.4704 37.7415 55.2007 35.6331 56.2225 33.1663C57.2443 30.6995 57.5117 27.9851 56.9908 25.3663C56.4699 22.7476 55.1841 20.3421 53.2961 18.4541C51.4081 16.5661 49.0026 15.2803 46.3839 14.7594C43.7651 14.2385 41.0507 14.5059 38.5839 15.5277C36.1171 16.5494 34.0087 18.2798 32.5253 20.4998C31.0419 22.7199 30.2501 25.33 30.2501 28.0001C30.2501 31.5805 31.6724 35.0143 34.2042 37.546C36.7359 40.0778 40.1697 41.5001 43.7501 41.5001Z" fill="white" stroke="black" stroke-width="2" stroke-linecap="round" stroke-linejoin="round"/>
<path d="M10.0001 46H19.0001" stroke="black" stroke-width="2" stroke-linecap="round" stroke-linejoin="round"/>
<path d="M68.5001 9.99997H77.5001" stroke="black" stroke-width="2" stroke-linecap="round" stroke-linejoin="round"/>
</svg>
