<svg width="214" height="214" viewBox="0 0 214 214" fill="none" xmlns="http://www.w3.org/2000/svg">
<path d="M0.000119864 106.502C0.00546267 83.1471 7.68571 60.4416 21.8589 41.8793C36.032 23.3171 55.9125 9.92704 78.4408 3.76985C100.969 -2.38733 124.897 -0.970371 146.541 7.80266C168.185 16.5757 186.346 32.2186 198.229 52.3238C210.113 72.4291 215.059 95.8824 212.308 119.074C209.557 142.266 199.261 163.911 183.004 180.679C166.746 197.446 145.429 208.406 122.333 211.871C99.2375 215.337 75.6426 211.117 55.18 199.86L13.7631 212.473C11.9158 213.035 9.95024 213.085 8.07669 212.617C6.20315 212.149 4.4921 211.18 3.12657 209.815C1.76105 208.449 0.792409 206.738 0.324268 204.865C-0.143872 202.991 -0.093904 201.026 0.468829 199.178L13.0814 157.698C4.4732 142.009 -0.0267764 124.397 0.000119864 106.502ZM63.9151 95.8492C63.9151 98.6744 65.0374 101.384 67.0351 103.382C69.0328 105.379 71.7423 106.502 74.5676 106.502H138.483C141.308 106.502 144.017 105.379 146.015 103.382C148.013 101.384 149.135 98.6744 149.135 95.8492C149.135 93.024 148.013 90.3145 146.015 88.3167C144.017 86.319 141.308 85.1967 138.483 85.1967H74.5676C71.7423 85.1967 69.0328 86.319 67.0351 88.3167C65.0374 90.3145 63.9151 93.024 63.9151 95.8492ZM74.5676 127.807C71.7423 127.807 69.0328 128.929 67.0351 130.927C65.0374 132.924 63.9151 135.634 63.9151 138.459C63.9151 141.284 65.0374 143.994 67.0351 145.992C69.0328 147.989 71.7423 149.112 74.5676 149.112H117.178C120.003 149.112 122.712 147.989 124.71 145.992C126.708 143.994 127.83 141.284 127.83 138.459C127.83 135.634 126.708 132.924 124.71 130.927C122.712 128.929 120.003 127.807 117.178 127.807H74.5676Z" fill="#635BFF"/>
</svg>
