<svg width="24" height="24" viewBox="0 0 24 24" fill="none" xmlns="http://www.w3.org/2000/svg">
<path d="M1 10.0579C1 11.0853 1.25695 12.0707 1.71431 12.7971C2.17168 13.5236 2.792 13.9317 3.43882 13.9317C4.08563 13.9317 4.70596 13.5236 5.16332 12.7971C5.62069 12.0707 5.87764 11.0853 5.87764 10.0579C5.87764 9.03053 5.62069 8.04521 5.16332 7.31873C4.70596 6.59225 4.08563 6.18411 3.43882 6.18411C2.792 6.18411 2.17168 6.59225 1.71431 7.31873C1.25695 8.04521 1 9.03053 1 10.0579Z" stroke="black" stroke-linecap="round" stroke-linejoin="round"/>
<path d="M11.0624 4.43011C11.1394 6.37336 10.2098 7.98688 8.98743 8.03468C7.76509 8.08248 6.71152 6.54895 6.63348 4.6057C6.55544 2.66245 7.48512 1.04991 8.70843 1.00113C9.93174 0.952354 10.9853 2.48783 11.0624 4.43011Z" stroke="black" stroke-linecap="round" stroke-linejoin="round"/>
<path d="M18.2766 10.0579C18.2766 11.0853 18.5336 12.0707 18.9909 12.7971C19.4483 13.5236 20.0686 13.9317 20.7154 13.9317C21.3622 13.9317 21.9826 13.5236 22.4399 12.7971C22.8973 12.0707 23.1542 11.0853 23.1542 10.0579C23.1542 9.03053 22.8973 8.04521 22.4399 7.31873C21.9826 6.59225 21.3622 6.18411 20.7154 6.18411C20.0686 6.18411 19.4483 6.59225 18.9909 7.31873C18.5336 8.04521 18.2766 9.03053 18.2766 10.0579Z" stroke="black" stroke-linecap="round" stroke-linejoin="round"/>
<path d="M13.0916 4.43011C13.0146 6.37336 13.9442 7.98688 15.1666 8.03468C16.3889 8.08248 17.4425 6.54895 17.5205 4.6057C17.5986 2.66245 16.6689 1.04991 15.4456 1.00113C14.2223 0.952354 13.1687 2.48783 13.0916 4.43011Z" stroke="black" stroke-linecap="round" stroke-linejoin="round"/>
<path d="M15.4054 13.4957C15.0718 11.8373 14.0738 9.83551 12.0769 9.83551C10.08 9.83551 9.08205 11.8324 8.74842 13.4957C8.38943 15.2907 5.41992 16.4915 5.41992 19.1537C5.41992 24.2821 18.7339 24.2821 18.7339 19.1537C18.7339 16.4876 15.7644 15.2907 15.4054 13.4957Z" stroke="black" stroke-linecap="round" stroke-linejoin="round"/>
</svg>
