<svg width="20" height="20" viewBox="0 0 20 20" fill="none" xmlns="http://www.w3.org/2000/svg">
<path fill-rule="evenodd" clip-rule="evenodd" d="M5.86301 2.72825L4.03301 4.55825C1.34501 7.24825 1.14441e-05 8.59225 1.14441e-05 10.2622C1.14441e-05 11.9332 1.34501 13.2772 4.03401 15.9662C6.72301 18.6572 8.06701 20.0002 9.73801 20.0002C11.408 20.0002 12.753 18.6552 15.442 15.9662L17.272 14.1362C18.817 12.5912 19.59 11.8192 19.877 10.8162C20.165 9.81325 19.919 8.74825 19.427 6.61925L19.144 5.39125C18.731 3.59925 18.524 2.70325 17.911 2.08925C17.297 1.47625 16.401 1.26925 14.609 0.856245L13.381 0.572245C11.251 0.0812454 10.187 -0.164755 9.18401 0.122245C8.18101 0.410245 7.40801 1.18325 5.86301 2.72825ZM10.853 12.3282C11.526 11.6562 11.521 10.6902 11.118 9.92525C11.2178 9.78114 11.2639 9.60664 11.2484 9.43205C11.233 9.25747 11.1568 9.09382 11.0332 8.96953C10.9096 8.84523 10.7464 8.76815 10.5719 8.75166C10.3974 8.73516 10.2227 8.78031 10.078 8.87924C9.73801 8.69924 9.36501 8.60325 8.99301 8.60725C8.7941 8.6091 8.60407 8.6899 8.46473 8.83186C8.32539 8.97383 8.24815 9.16533 8.25001 9.36425C8.25187 9.56316 8.33267 9.75319 8.47463 9.89252C8.6166 10.0319 8.8081 10.1091 9.00701 10.1072C9.23856 10.1158 9.4574 10.2153 9.61601 10.3842C10.003 10.7712 9.90201 11.1592 9.79301 11.2682C9.68301 11.3772 9.29601 11.4782 8.90901 11.0912C8.12501 10.3072 6.77101 10.0472 5.90401 10.9142C5.23101 11.5872 5.23601 12.5532 5.63901 13.3182C5.53987 13.4624 5.49424 13.6366 5.51001 13.8109C5.52577 13.9851 5.60195 14.1483 5.72535 14.2723C5.84876 14.3963 6.01162 14.4733 6.18577 14.4899C6.35992 14.5065 6.5344 14.4617 6.67901 14.3632C7.12778 14.6094 7.64829 14.6914 8.15101 14.5952C8.34595 14.5552 8.51699 14.4394 8.62651 14.2732C8.73603 14.107 8.77506 13.9042 8.73501 13.7092C8.69496 13.5143 8.57912 13.3433 8.41296 13.2337C8.2468 13.1242 8.04395 13.0852 7.84901 13.1252C7.67201 13.1622 7.38601 13.1042 7.14101 12.8592C6.75401 12.4712 6.85501 12.0842 6.96401 11.9752C7.07401 11.8662 7.46101 11.7652 7.84801 12.1522C8.63201 12.9362 9.98601 13.1962 10.853 12.3282ZM11.979 8.29325C11.7933 8.10749 11.646 7.88698 11.5456 7.64431C11.4451 7.40163 11.3934 7.14154 11.3935 6.87889C11.3935 6.61624 11.4453 6.35617 11.5458 6.11353C11.6464 5.87089 11.7938 5.65043 11.9795 5.46475C12.1653 5.27906 12.3858 5.13177 12.6285 5.0313C12.8711 4.93083 13.1312 4.87915 13.3939 4.87919C13.6565 4.87924 13.9166 4.93102 14.1592 5.03157C14.4019 5.13213 14.6223 5.27949 14.808 5.46525C15.183 5.84039 15.3937 6.34915 15.3936 6.8796C15.3935 7.41005 15.1827 7.91873 14.8075 8.29375C14.4324 8.66876 13.9236 8.87939 13.3932 8.8793C12.8627 8.8792 12.354 8.66839 11.979 8.29325Z" fill="black"/>
</svg>
