<svg width="74" height="74" viewBox="0 0 74 74" fill="none" xmlns="http://www.w3.org/2000/svg">
<path d="M18.2166 7.26059H55.7802C55.7802 7.26059 57.3454 7.26059 57.3454 8.82574V71.4348C57.3454 71.4348 57.3454 73 55.7802 73H18.2166C18.2166 73 16.6515 73 16.6515 71.4348V8.82574C16.6515 8.82574 16.6515 7.26059 18.2166 7.26059Z" fill="white"/>
<path d="M56.6567 7.57676C56.404 7.38416 56.0977 7.27478 55.7802 7.26373H18.2166C17.8015 7.26373 17.4034 7.42863 17.1099 7.72216C16.8164 8.01568 16.6515 8.41378 16.6515 8.82888V47.5695L56.6567 7.57676Z" fill="#FD6600"/>
<path d="M31.5204 7.26373H18.2166C17.8015 7.26373 17.4034 7.42863 17.1099 7.72216C16.8164 8.01568 16.6515 8.41378 16.6515 8.82888V71.4348C16.6515 71.85 16.8164 72.2481 17.1099 72.5416C17.4034 72.8351 17.8015 73 18.2166 73H55.7802C56.1953 73 56.5934 72.8351 56.8869 72.5416C57.1805 72.2481 57.3454 71.85 57.3454 71.4348V30.6878" stroke="black" stroke-width="2" stroke-linecap="round" stroke-linejoin="round"/>
<path d="M72.9969 68.3046L69.8666 62.2506V47.9576C69.998 42.3919 63.3524 37.4304 57.3454 32.3061V49.3631L54.1149 46.0607C53.7588 45.69 53.3329 45.3935 52.8618 45.1881C52.3906 44.9828 51.8835 44.8726 51.3696 44.864C50.8557 44.8555 50.3451 44.9486 49.8674 45.1382C49.3896 45.3277 48.9541 45.6099 48.5858 45.9684C48.2176 46.327 47.9239 46.7548 47.7217 47.2274C47.5195 47.6999 47.4127 48.2077 47.4075 48.7217C47.4024 49.2356 47.499 49.7455 47.6917 50.222C47.8844 50.6985 48.1695 51.1321 48.5305 51.498L57.3454 60.4788V65.1743C57.8247 67.9745 58.8916 70.6416 60.4757 73" fill="white"/>
<path d="M72.9969 68.3046L69.8666 62.2506V47.9576C69.998 42.3919 63.3524 37.4304 57.3454 32.3061V49.3631L54.1149 46.0607C53.7588 45.69 53.3329 45.3935 52.8618 45.1881C52.3906 44.9828 51.8835 44.8726 51.3696 44.864C50.8557 44.8555 50.3451 44.9486 49.8674 45.1382C49.3896 45.3277 48.9541 45.6099 48.5858 45.9684C48.2176 46.327 47.9239 46.7548 47.7217 47.2274C47.5195 47.6999 47.4127 48.2077 47.4075 48.7217C47.4024 49.2356 47.499 49.7455 47.6917 50.222C47.8844 50.6985 48.1695 51.1321 48.5305 51.498L57.3454 60.4788V65.1743C57.8247 67.9745 58.8916 70.6416 60.4757 73" stroke="black" stroke-width="2" stroke-linecap="round" stroke-linejoin="round"/>
<path d="M62.1003 54.2182L57.3454 49.36" stroke="black" stroke-width="2" stroke-linecap="round" stroke-linejoin="round"/>
<path d="M1 5.69858L4.1303 11.7526V26.0455C3.99883 31.6143 10.6444 36.5727 16.6515 41.697V24.6431L19.882 27.9425C20.2381 28.3131 20.6639 28.6096 21.1351 28.815C21.6063 29.0204 22.1134 29.1305 22.6273 29.1391C23.1412 29.1477 23.6517 29.0545 24.1295 28.865C24.6072 28.6754 25.0428 28.3932 25.411 28.0347C25.7793 27.6761 26.073 27.2483 26.2752 26.7758C26.4774 26.3033 26.5842 25.7954 26.5893 25.2815C26.5945 24.7675 26.4979 24.2576 26.3052 23.7811C26.1125 23.3047 25.8274 22.871 25.4664 22.5052L16.6515 13.5243V8.82887C16.1716 6.02874 15.1048 3.36178 13.5212 1.00313" fill="white"/>
<path d="M1 5.69858L4.1303 11.7526V26.0455C3.99883 31.6143 10.6444 36.5727 16.6515 41.697V24.6431L19.882 27.9425C20.2381 28.3131 20.6639 28.6096 21.1351 28.815C21.6063 29.0204 22.1134 29.1305 22.6273 29.1391C23.1412 29.1477 23.6517 29.0545 24.1295 28.865C24.6072 28.6754 25.0428 28.3932 25.411 28.0347C25.7793 27.6761 26.073 27.2483 26.2752 26.7758C26.4774 26.3033 26.5842 25.7954 26.5893 25.2815C26.5945 24.7675 26.4979 24.2576 26.3052 23.7811C26.1125 23.3047 25.8274 22.871 25.4664 22.5052L16.6515 13.5243V8.82887C16.1716 6.02874 15.1048 3.36178 13.5212 1.00313" stroke="black" stroke-width="2" stroke-linecap="round" stroke-linejoin="round"/>
<path d="M11.8965 19.7849L16.6515 24.6432" stroke="black" stroke-width="2" stroke-linecap="round" stroke-linejoin="round"/>
<path d="M40.1287 47.9576H22.9121" stroke="black" stroke-width="2" stroke-linecap="round" stroke-linejoin="round"/>
<path d="M51.0848 38.5667H22.9121" stroke="black" stroke-width="2" stroke-linecap="round" stroke-linejoin="round"/>
<path d="M36.9984 57.3485H22.9121" stroke="black" stroke-width="2" stroke-linecap="round" stroke-linejoin="round"/>
<path d="M38.5041 13.5212C38.5041 16.842 39.8233 20.0268 42.1715 22.375C44.5197 24.7232 47.7045 26.0424 51.0253 26.0424C54.3461 26.0424 57.531 24.7232 59.8791 22.375C62.2273 20.0268 63.5465 16.842 63.5465 13.5212C63.5465 10.2004 62.2273 7.01555 59.8791 4.66737C57.531 2.31919 54.3461 1 51.0253 1C47.7045 1 44.5197 2.31919 42.1715 4.66737C39.8233 7.01555 38.5041 10.2004 38.5041 13.5212Z" fill="#FD6600" stroke="black" stroke-width="2" stroke-linecap="round" stroke-linejoin="round"/>
<path d="M63.606 4.13342L52.1929 15.5434C52.0475 15.6891 51.8748 15.8048 51.6847 15.8837C51.4945 15.9626 51.2907 16.0032 51.0848 16.0032C50.8789 16.0032 50.6751 15.9626 50.4849 15.8837C50.2948 15.8048 50.1221 15.6891 49.9767 15.5434L46.3893 11.9592" stroke="black" stroke-width="2" stroke-linecap="round" stroke-linejoin="round"/>
</svg>
