<svg width="21" height="22" viewBox="0 0 21 22" fill="none" xmlns="http://www.w3.org/2000/svg">
<path d="M19.568 7.22999C19.5676 7.41677 19.4997 7.59711 19.3767 7.73768C19.2537 7.87826 19.0839 7.96957 18.8989 7.99475L6.0108 9.6025C5.67512 9.64321 5.33463 9.61222 5.01183 9.51159C4.68902 9.41096 4.39123 9.24297 4.13816 9.01873C3.88508 8.79449 3.68247 8.51909 3.5437 8.21075C3.40494 7.9024 3.33319 7.56812 3.33319 7.22999C3.33319 6.89185 3.40494 6.55757 3.5437 6.24922C3.68247 5.94088 3.88508 5.66548 4.13816 5.44124C4.39123 5.217 4.68902 5.04901 5.01183 4.94838C5.33463 4.84775 5.67512 4.81676 6.0108 4.85747L18.8989 6.46522C19.0839 6.4904 19.2537 6.58172 19.3767 6.72229C19.4997 6.86286 19.5676 7.0432 19.568 7.22999Z" stroke="black" stroke-linecap="round" stroke-linejoin="round"/>
<path d="M10.0258 5.33547C9.93532 4.40989 9.55027 3.53775 8.92725 2.84729C8.30423 2.15682 7.47613 1.68446 6.56468 1.49964C5.65324 1.31482 4.70654 1.4273 3.86378 1.82054C3.02101 2.21379 2.32665 2.86704 1.88277 3.68427C1.71638 3.99173 1.65357 4.34465 1.70366 4.69064C1.75376 5.03663 1.9141 5.35724 2.16087 5.60488C2.39518 5.82803 2.70635 5.9525 3.02992 5.9525C3.35349 5.9525 3.66466 5.82803 3.89897 5.60488L4.09886 5.42238" stroke="black" stroke-linecap="round" stroke-linejoin="round"/>
<path d="M7.40128 9.42875L3.22982 12.2879C2.6502 12.688 2.17649 13.2229 1.84949 13.8466C1.52248 14.4703 1.35198 15.1642 1.35266 15.8684V20.5439C1.35266 20.6581 1.37514 20.7711 1.41882 20.8765C1.46249 20.982 1.5265 21.0778 1.6072 21.1585C1.6879 21.2392 1.78371 21.3032 1.88914 21.3468C1.99458 21.3905 2.10759 21.413 2.22172 21.413H9.17415C9.28827 21.413 9.40128 21.3905 9.50672 21.3468C9.61216 21.3032 9.70796 21.2392 9.78866 21.1585C9.86936 21.0778 9.93337 20.982 9.97705 20.8765C10.0207 20.7711 10.0432 20.6581 10.0432 20.5439V9.09851" stroke="black" stroke-linecap="round" stroke-linejoin="round"/>
<path d="M3.30804 17.285C3.30804 17.5989 3.36986 17.9097 3.48996 18.1996C3.61007 18.4896 3.78611 18.753 4.00803 18.975C4.22995 19.1969 4.49341 19.3729 4.78337 19.493C5.07332 19.6131 5.3841 19.6749 5.69794 19.6749C6.01179 19.6749 6.32256 19.6131 6.61252 19.493C6.90247 19.3729 7.16593 19.1969 7.38785 18.975C7.60978 18.753 7.78582 18.4896 7.90592 18.1996C8.02602 17.9097 8.08784 17.5989 8.08784 17.285C8.08784 16.6512 7.83605 16.0433 7.38785 15.5951C6.93966 15.1469 6.33178 14.8951 5.69794 14.8951C5.0641 14.8951 4.45622 15.1469 4.00803 15.5951C3.55984 16.0433 3.30804 16.6512 3.30804 17.285Z" stroke="black" stroke-linecap="round" stroke-linejoin="round"/>
<path d="M4.0033 18.9709L7.38391 15.599" stroke="black" stroke-linecap="round" stroke-linejoin="round"/>
</svg>
