<svg width="22" height="22" viewBox="0 0 22 22" fill="none" xmlns="http://www.w3.org/2000/svg">
<path d="M9.48863 1.4375H1.86959C1.617 1.4375 1.37476 1.53784 1.19615 1.71645C1.01755 1.89505 0.917206 2.13729 0.917206 2.38988V10.0089H5.64863C5.72229 10.0091 5.79498 9.99209 5.86097 9.95937C5.92697 9.92665 5.98447 9.87906 6.02896 9.82036C6.07345 9.76165 6.10372 9.69343 6.11738 9.62104C6.13104 9.54866 6.12772 9.4741 6.10768 9.40321L5.20292 6.1994H9.01244C9.13874 6.1994 9.25986 6.14923 9.34916 6.05993C9.43846 5.97063 9.48863 5.84951 9.48863 5.72321V1.4375Z" stroke="black" stroke-linecap="round" stroke-linejoin="round"/>
<path d="M12.3458 1.4375H19.9648C20.2174 1.4375 20.4596 1.53784 20.6382 1.71645C20.8169 1.89505 20.9172 2.13729 20.9172 2.38988V10.0089H16.1858C16.1121 10.0091 16.0394 9.99209 15.9734 9.95937C15.9074 9.92665 15.8499 9.87906 15.8054 9.82036C15.7609 9.76165 15.7307 9.69343 15.717 9.62104C15.7034 9.54866 15.7067 9.4741 15.7267 9.40321L16.6315 6.1994H12.822C12.6957 6.1994 12.5745 6.14923 12.4852 6.05993C12.3959 5.97063 12.3458 5.84951 12.3458 5.72321V1.4375Z" stroke="black" stroke-linecap="round" stroke-linejoin="round"/>
<path d="M9.48863 21.4375H1.86959C1.617 21.4375 1.37476 21.3372 1.19615 21.1586C1.01755 20.98 0.917206 20.7377 0.917206 20.4851V12.8661H5.64863C5.72229 12.866 5.79498 12.8829 5.86097 12.9156C5.92697 12.9484 5.98447 12.996 6.02896 13.0547C6.07345 13.1134 6.10372 13.1816 6.11738 13.254C6.13104 13.3264 6.12772 13.4009 6.10768 13.4718L5.20292 16.6756H9.01244C9.13874 16.6756 9.25986 16.7258 9.34916 16.8151C9.43846 16.9044 9.48863 17.0255 9.48863 17.1518V21.4375Z" stroke="black" stroke-linecap="round" stroke-linejoin="round"/>
<path d="M12.3458 21.4375H19.9648C20.2174 21.4375 20.4596 21.3372 20.6382 21.1586C20.8169 20.98 20.9172 20.7377 20.9172 20.4851V12.8661H16.1858C16.1121 12.866 16.0394 12.8829 15.9734 12.9156C15.9074 12.9484 15.8499 12.996 15.8054 13.0547C15.7609 13.1134 15.7307 13.1816 15.717 13.254C15.7034 13.3264 15.7067 13.4009 15.7267 13.4718L16.6315 16.6756H12.822C12.6957 16.6756 12.5745 16.7258 12.4852 16.8151C12.3959 16.9044 12.3458 17.0255 12.3458 17.1518V21.4375Z" stroke="black" stroke-linecap="round" stroke-linejoin="round"/>
</svg>
