<svg width="41" height="49" viewBox="0 0 41 49" fill="none" xmlns="http://www.w3.org/2000/svg">
<path d="M16.4468 31.8208L16.4347 31.7926C16.1916 31.7351 15.9499 31.672 15.7097 31.6033L15.6916 31.5973C13.3944 30.9369 11.273 29.7737 9.48101 28.1919C7.51028 26.4534 5.99474 24.2592 5.06656 21.8006C4.13837 19.3421 3.82572 16.6937 4.15585 14.0866C4.48599 11.4795 5.44889 8.99267 6.9606 6.84305C8.47231 4.69342 10.4869 2.94624 12.8288 1.75384C15.1707 0.561447 17.7687 -0.0399606 20.3963 0.00206002C23.0239 0.0440806 25.6014 0.728254 27.9039 1.99492C30.2065 3.26159 32.1642 5.0723 33.6064 7.26916C35.0486 9.46603 35.9315 11.9823 36.1781 14.5987C36.2566 15.4304 35.5739 16.1091 34.7382 16.1091C33.9045 16.1091 33.2379 15.4304 33.1413 14.6007C32.875 12.3116 32.0092 10.1333 30.6312 8.28613C29.2533 6.43892 27.4121 4.98824 25.2937 4.08074C23.1754 3.17323 20.855 2.84107 18.5672 3.11783C16.2793 3.39458 14.105 4.27045 12.2642 5.65689C10.4233 7.04333 8.98116 8.89119 8.08342 11.0137C7.18567 13.1362 6.86419 15.4581 7.15148 17.7446C7.43877 20.0312 8.32463 22.2014 9.71953 24.0358C11.1144 25.8703 12.9689 27.3039 15.0955 28.1919L15.1761 28.2261C15.5788 28.3913 15.9923 28.5369 16.4166 28.6631C16.773 27.8019 17.4172 27.0909 18.2392 26.6514C19.0612 26.2119 20.0102 26.0712 20.9244 26.2532C21.8386 26.4351 22.6614 26.9286 23.2524 27.6494C23.8435 28.3701 24.1663 29.2736 24.1657 30.2057C24.1666 31.1313 23.8486 32.029 23.2653 32.7477C22.682 33.4664 21.869 33.9623 20.963 34.1519C20.0569 34.3414 19.1133 34.2131 18.2908 33.7886C17.4682 33.364 16.8171 32.6691 16.4468 31.8208ZM14.4612 34.3824C10.8837 33.2698 7.71167 31.1313 5.33861 28.2322C3.86795 28.4044 2.51176 29.1108 1.5276 30.2171C0.543428 31.3234 -0.000182237 32.7526 4.58275e-08 34.2333V35.6732C4.58275e-08 43.1606 8.47814 48.33 20.1381 48.33C31.798 48.33 40.2762 42.8766 40.2762 35.6732V34.2333C40.2762 32.6311 39.6397 31.0944 38.5067 29.9614C37.3737 28.8284 35.837 28.1919 34.2348 28.1919H26.8944C27.3694 29.7829 27.2676 31.4905 26.6067 33.0137C25.9459 34.5369 24.7685 35.7779 23.2822 36.5179C21.7958 37.258 20.096 37.4495 18.4822 37.0588C16.8684 36.6682 15.4444 35.7203 14.4612 34.3824ZM30.2071 16.1091C30.2071 13.0642 28.8579 10.3355 26.7212 8.4888C25.6492 7.56399 24.3941 6.87566 23.038 6.46875C21.6819 6.06184 20.2553 5.9455 18.8511 6.12732C17.447 6.30914 16.097 6.78503 14.8893 7.52393C13.6816 8.26284 12.6433 9.24813 11.8421 10.4155C11.041 11.5829 10.495 12.9061 10.2399 14.2988C9.98484 15.6914 10.0263 17.1222 10.3616 18.4978C10.697 19.8733 11.3186 21.1627 12.186 22.2817C13.0534 23.4007 14.1471 24.3243 15.3956 24.992C16.6931 23.8116 18.384 23.1575 20.1381 23.1574C21.8928 23.157 23.5846 23.8112 24.8826 24.992C26.4915 24.1325 27.8367 22.8521 28.7745 21.2875C29.7123 19.723 30.2075 17.9331 30.2071 16.1091Z" fill="#212529"/>
</svg>
