<svg width="226" height="54" viewBox="0 0 226 54" fill="none" xmlns="http://www.w3.org/2000/svg">
<g clip-path="url(#clip0_660_14)">
<path d="M78.134 25.2448C85.2182 24.9186 92.5086 24.7338 99.9974 24.6957C99.9974 24.6957 100.378 24.7883 100.378 25.1118L100.381 53.9808H77.6775V25.6851C77.6775 25.3105 78.134 25.2448 78.134 25.2448ZM0.372368 36.2565C7.14672 34.4569 14.3585 32.8443 21.9831 31.4304C22.0999 31.4085 22.3338 31.5119 22.3338 31.7893V41.7244H28.6082C38.4395 41.7244 44.5319 37.5073 45.0724 28.358C45.0724 28.0754 45.4448 27.8959 45.4448 27.8959C52.3902 27.0691 59.6021 26.3953 67.0638 25.8812C67.0638 25.8812 67.436 25.9626 67.436 26.2728C67.4496 26.6613 67.4553 27.053 67.4553 27.45C67.4553 35.3727 64.8413 43.07 60.1373 46.8059C53.7895 51.89 47.8168 53.9808 31.165 53.9808H0V36.7866C0 36.4851 0.247274 36.2893 0.372368 36.2565ZM163.643 28.4101C172.08 29.5166 180.091 30.8596 187.651 32.4122C187.651 32.4122 188.039 32.5753 188.186 32.9479L189.034 35.1666L189.776 33.2824C189.898 32.9697 190.267 32.9616 190.267 32.9616C196.865 34.3808 203.107 35.9631 208.976 37.6979C208.976 37.6979 209.272 37.8989 209.15 38.1847L202.177 53.9812H174.399L163.273 28.7797C163.167 28.5133 163.643 28.4098 163.643 28.4098L163.643 28.4101ZM102.413 24.6876C111.294 24.6822 119.894 24.8861 128.201 25.2888C128.201 25.2888 128.353 25.5115 128.255 25.6367L151.564 53.981H123.038L101.759 25.112C102.025 24.7583 102.413 24.6876 102.413 24.6876Z" fill="black"/>
<path d="M0 36.787V0.0195312H27.2819C43.1866 0.0195312 53.4907 1.44167 60.8847 8.91284C64.5772 12.6813 67.1887 18.7471 67.436 26.2733C59.7026 26.8006 52.2436 27.4994 45.0724 28.3585C45.0971 27.9182 45.1105 27.4666 45.1105 27.0018C45.1105 16.9123 38.9123 12.2764 28.6084 12.2764H22.3338V31.7898C14.4345 33.2471 6.97814 34.9192 0 36.787ZM101.759 25.1122L121.171 0.0195312H149.176L128.255 25.6369C119.78 25.3027 110.918 25.0959 101.758 25.1122H101.759ZM77.6773 25.6858V0.0195312H100.381V25.1122C92.5929 25.1477 85.0224 25.3406 77.6775 25.6858H77.6773ZM189.775 33.2824L202.848 0.0195312H226L209.149 38.1847C203.09 36.3846 196.626 34.7453 189.775 33.2824H189.775ZM163.273 28.78L150.578 0.0195312H175.594L188.186 32.9481C180.365 31.3221 172.05 29.9246 163.273 28.78Z" fill="#0A0A0A"/>
</g>
<defs>
<clipPath id="clip0_660_14">
<rect width="226" height="54" fill="white"/>
</clipPath>
</defs>
</svg>
